<?xml version="1.0" encoding="UTF-8"?>
<svg version="1.1" xmlns="http://www.w3.org/2000/svg" width="512" height="512">
<path d="M0 0 C1.10277283 -0.00100708 2.20554565 -0.00201416 3.34173584 -0.00305176 C21.76507183 0.00828424 39.78965549 0.78844267 58.0625 3.25 C59.09729492 3.38390137 60.13208984 3.51780273 61.19824219 3.65576172 C101.99333282 9.11053478 156.8793967 21.18924641 184.12109375 54.7890625 C190.07492693 62.9833194 193.18235814 70.31418084 193.19392776 80.53764629 C193.19776891 81.81287393 193.20161005 83.08810157 193.2055676 84.40197247 C193.2047874 85.81491265 193.20390862 87.22785278 193.20294189 88.64079285 C193.20552624 90.1435341 193.20853959 91.64627467 193.2119453 93.14901429 C193.22001043 97.27998931 193.2218046 101.41094694 193.22254276 105.54192889 C193.22439416 109.99674802 193.23194194 114.45155815 193.23867798 118.90637207 C193.25225837 128.64817104 193.25828556 138.3899659 193.26268864 148.13177276 C193.26545155 154.21499389 193.269689 160.29821343 193.27419281 166.38143349 C193.28638509 183.22522348 193.29668449 200.0690122 193.3000679 216.91280651 C193.30028747 217.99079339 193.30050703 219.06878027 193.30073325 220.17943342 C193.30095153 221.25999435 193.30116981 222.34055527 193.3013947 223.45386046 C193.30183817 225.64347533 193.30228473 227.83309021 193.30273438 230.02270508 C193.3029558 231.10882886 193.30317723 232.19495264 193.30340537 233.31398926 C193.30735317 250.91205314 193.32480682 268.51007562 193.3480939 286.1081235 C193.37181125 304.17723002 193.38426993 322.24631576 193.38543582 340.31543809 C193.38635236 350.4599863 193.3920995 360.60448056 193.41025543 370.7490139 C193.42566158 379.38753777 193.43077383 388.02599101 193.42251733 396.66452601 C193.41861266 401.07080764 193.41953149 405.47694704 193.43357468 409.88321114 C193.44632445 413.92062398 193.44510669 417.95778788 193.43298396 421.99520043 C193.43102883 423.452153 193.43409691 424.90912327 193.44282833 426.36605098 C193.52220362 440.51151134 191.09453042 449.30311135 182.0625 460.25 C181.55074219 460.87648438 181.03898437 461.50296875 180.51171875 462.1484375 C146.55610743 499.52593213 77.00009482 507.33659105 30.0625 510.25 C25.76135827 510.39564462 21.46355757 510.43604708 17.16015625 510.453125 C15.97162048 510.46009399 14.78308472 510.46706299 13.55853271 510.47424316 C9.74731867 510.49152984 5.93625161 510.49796198 2.125 510.5 C0.82493011 510.50100708 -0.47513977 510.50201416 -1.81460571 510.50305176 C-20.70970212 510.49313545 -39.22998138 510.11748649 -57.9375 507.25 C-59.42467529 507.0331958 -59.42467529 507.0331958 -60.94189453 506.81201172 C-103.84589032 500.43887334 -155.70522211 488.7300823 -184.50390625 453.32421875 C-191.28808625 443.54284877 -191.37703741 431.64966597 -191.31845093 420.18273926 C-191.32191444 418.6918785 -191.32668363 417.20102032 -191.33263266 415.71016741 C-191.34507719 411.64440799 -191.33900238 407.57886168 -191.32967401 403.51310182 C-191.32285682 399.11629991 -191.33337792 394.71953341 -191.34161377 390.32273865 C-191.35492491 381.72165219 -191.35208506 373.12064446 -191.34337585 364.51955497 C-191.33658938 357.52670706 -191.33568674 350.53388115 -191.3389473 343.54103088 C-191.339407 342.54421603 -191.33986669 341.54740118 -191.34034032 340.52037981 C-191.34129954 338.49510999 -191.34227218 336.46984017 -191.3432581 334.44457036 C-191.35180432 315.47190246 -191.34198991 296.49927811 -191.325857 277.52661735 C-191.31245452 261.26170096 -191.31478283 244.99684882 -191.32861328 228.73193359 C-191.34468266 209.82524989 -191.35098042 190.91860431 -191.34177649 172.01191473 C-191.34082088 169.9942662 -191.33987777 167.97661766 -191.3389473 165.95896912 C-191.33848447 164.96635371 -191.33802164 163.9737383 -191.33754479 162.95104364 C-191.33495898 155.96992164 -191.33931708 148.98882392 -191.34638596 142.00770569 C-191.35481624 133.49529417 -191.35248871 124.9829656 -191.33654372 116.47056353 C-191.32868157 112.13082607 -191.3255342 107.79122671 -191.33549118 103.4514904 C-191.34448137 99.4728357 -191.33943467 95.49444611 -191.32355852 91.5158152 C-191.32022892 90.08259431 -191.32186339 88.64935067 -191.32918589 87.21614462 C-191.40690115 70.73055815 -188.1959019 59.87933487 -176.9375 47.75 C-133.43651932 6.01555661 -56.85455365 0.03614065 0 0 Z M-128.1640625 56.296875 C-132.49897881 61.04209203 -134.98122986 64.53874889 -134.875 71.125 C-133.74034514 77.84467823 -129.89047917 81.7695297 -124.5625 85.75 C-91.44260479 107.52146053 -46.38416209 110.31739449 -7.9375 111.25 C-7.22674316 111.27191406 -6.51598633 111.29382813 -5.78369141 111.31640625 C36.17041049 112.51824254 98.45347696 111.45287229 131.25 81.8125 C134.55680905 78.12800971 136.36474744 74.15171172 137.0625 69.25 C136.32764906 63.16123505 133.55748806 59.21616594 129.0625 55.25 C76.37481384 16.06401839 -76.77445004 9.05449442 -128.1640625 56.296875 Z M-124.3125 233.6875 C-129.66763458 240.48154885 -131.50039651 248.06837283 -130.72265625 256.609375 C-129.01580479 266.03769732 -123.62904839 272.76372073 -115.9375 278.25 C-110.4899584 281.41308867 -104.67799019 283.8154574 -98.91796875 286.34375 C-92.39913683 289.32672634 -92.39913683 289.32672634 -90.9375 292.25 C-90.75 295.75 -90.75 295.75 -90.9375 299.25 C-94.00028303 302.31278303 -96.59315822 302.22267129 -100.875 302.5625 C-111.09748547 302.42799361 -119.98421086 297.72664457 -128.9375 293.25 C-128.9375 302.16 -128.9375 311.07 -128.9375 320.25 C-125.9365625 321.2090625 -125.9365625 321.2090625 -122.875 322.1875 C-121.74964844 322.54714844 -120.62429687 322.90679687 -119.46484375 323.27734375 C-104.57488099 327.38321388 -85.765448 327.06099921 -71.9375 319.875 C-65.0124988 315.62901386 -59.66690453 309.53233504 -56.625 302 C-54.79623876 292.02493869 -55.75007933 284.70918848 -61.26953125 276.1953125 C-68.77199026 266.432619 -82.78446313 260.76595358 -93.9375 256.25 C-94.5975 256.25 -95.2575 256.25 -95.9375 256.25 C-97.0952506 252.77674819 -97.00616652 249.88932552 -96.9375 246.25 C-90.65540551 242.1751279 -84.15848963 242.36614177 -77.02734375 243.859375 C-74.30609006 244.59302799 -71.62547892 245.40320895 -68.9375 246.25 C-66.6275 246.91 -64.3175 247.57 -61.9375 248.25 C-61.9375 240.33 -61.9375 232.41 -61.9375 224.25 C-82.56375003 217.37458332 -108.41588248 216.35280217 -124.3125 233.6875 Z M-35.3828125 236.31640625 C-46.80990655 250.52849559 -49.19819803 266.58262005 -47.9375 284.25 C-45.59619407 298.02985478 -38.04194039 308.96759032 -26.9375 317.25 C-19.00233695 322.32850435 -9.41711827 325.57807422 0.0625 325.25 C0.29582031 325.81203125 0.52914062 326.3740625 0.76953125 326.953125 C2.38187076 329.81734142 4.3818562 331.72252021 6.75 334 C10.58312891 337.74992061 14.20966612 341.57648333 17.6875 345.65625 C18.76099686 346.90053045 19.90046959 348.08796959 21.0625 349.25 C23.85934797 349.42525055 26.5557808 349.48143189 29.3515625 349.4453125 C30.16998627 349.4424826 30.98841003 349.43965271 31.83163452 349.43673706 C34.45040393 349.42552532 37.06883364 349.40041929 39.6875 349.375 C41.46093257 349.36497147 43.23437049 349.3558454 45.0078125 349.34765625 C49.35950626 349.32558278 53.7109455 349.29104644 58.0625 349.25 C55.34218118 345.77302437 52.72350866 342.9818532 49.25 340.25 C44.42389337 336.37607116 39.68790482 332.41526713 35 328.375 C34.34475342 327.81554687 33.68950684 327.25609375 33.0144043 326.6796875 C32.39992432 326.14859375 31.78544434 325.6175 31.15234375 325.0703125 C30.60441162 324.59867676 30.05647949 324.12704102 29.49194336 323.64111328 C28.0625 322.25 28.0625 322.25 26.0625 319.25 C26.94035156 319.01023437 27.81820312 318.77046875 28.72265625 318.5234375 C37.68099212 315.10774452 44.2312474 306.76722243 48.625 298.5078125 C55.34397759 283.28056438 56.1550321 267.10752877 51.0625 251.25 C44.89487936 236.49116795 35.56881431 228.23619301 21.0625 222.25 C2.00728151 215.00319365 -21.81241078 221.73958718 -35.3828125 236.31640625 Z M69.0625 221.25 C69.0625 254.91 69.0625 288.57 69.0625 323.25 C90.8425 323.25 112.6225 323.25 135.0625 323.25 C135.0625 315.66 135.0625 308.07 135.0625 300.25 C123.5125 300.25 111.9625 300.25 100.0625 300.25 C100.0625 274.18 100.0625 248.11 100.0625 221.25 C89.8325 221.25 79.6025 221.25 69.0625 221.25 Z " fill="#037AD6" transform="translate(254.9375,0.75)"/>
<path d="M0 0 C7.36400723 9.96306861 7.91960849 19.82343787 7.125 31.875 C6.07581314 38.41018936 3.09591092 43.48747227 -1.875 47.875 C-6.76256213 50.98052988 -12.3027242 50.55367462 -17.875 49.875 C-22.87898492 48.13974717 -25.86028192 45.48131379 -28.3125 40.8125 C-32.47236398 31.39218022 -32.80393466 17.6920408 -29.25 8.0625 C-26.84896131 3.25202739 -23.978742 -0.62664179 -19.0625 -3 C-12.4738664 -5.12536568 -5.54464017 -4.0982123 0 0 Z " fill="#0A7ED7" transform="translate(269.875,250.125)"/>
</svg>
