<?xml version="1.0" encoding="UTF-8"?>
<!DOCTYPE svg PUBLIC "-//W3C//DTD SVG 1.1//EN" "http://www.w3.org/Graphics/SVG/1.1/DTD/svg11.dtd">
<svg xmlns="http://www.w3.org/2000/svg" version="1.1" width="300px" height="300px" style="shape-rendering:geometricPrecision; text-rendering:geometricPrecision; image-rendering:optimizeQuality; fill-rule:evenodd; clip-rule:evenodd" xmlns:xlink="http://www.w3.org/1999/xlink">
<g><path style="opacity:0.467" fill="#697690" d="M 137.5,0.5 C 137.5,0.166667 137.5,-0.166667 137.5,-0.5C 145.833,-0.5 154.167,-0.5 162.5,-0.5C 165.5,0.166667 168.5,0.833333 171.5,1.5C 160.179,0.819435 148.846,0.486101 137.5,0.5 Z"/></g>
<g><path style="opacity:1" fill="#f8f9f9" d="M 189.5,11.5 C 194.409,13.3138 199.409,14.9805 204.5,16.5C 266.465,46.0533 295.965,95.3866 293,164.5C 290.343,185.474 283.843,205.14 273.5,223.5C 247.385,264.568 210.051,287.902 161.5,293.5C 100.947,295.648 55.1135,270.981 24,219.5C 17.3216,205.955 12.1549,191.955 8.5,177.5C 6.82256,165.236 6.15589,152.902 6.5,140.5C 12.6421,81.7033 42.6421,40.2033 96.5,16C 127,5.06218 158,3.56218 189.5,11.5 Z"/></g>
<g><path style="opacity:1" fill="#2e4071" d="M 187.5,4.5 C 201.847,8.01274 215.18,13.6794 227.5,21.5C 224.611,21.0538 221.944,20.0538 219.5,18.5C 218.446,18.6799 217.446,19.0133 216.5,19.5C 214.415,14.2902 210.749,12.6235 205.5,14.5C 205.137,15.1835 204.804,15.8501 204.5,16.5C 199.409,14.9805 194.409,13.3138 189.5,11.5C 192.244,12.205 194.911,12.205 197.5,11.5C 194.336,8.62685 191.002,6.29352 187.5,4.5 Z"/></g>
<g><path style="opacity:1" fill="#1d336c" d="M 164.5,19.5 C 166.5,19.5 168.5,19.5 170.5,19.5C 172.307,25.7278 173.64,32.0611 174.5,38.5C 172.833,38.5 171.167,38.5 169.5,38.5C 169.5,37.1667 169.5,35.8333 169.5,34.5C 165.422,34.1524 161.588,34.8191 158,36.5C 157.167,36.1667 156.333,35.8333 155.5,35.5C 158.528,30.1496 161.528,24.8163 164.5,19.5 Z"/></g>
<g><path style="opacity:1" fill="#1d346a" d="M 136.5,18.5 C 139.85,18.335 143.183,18.5017 146.5,19C 151.371,22.1779 151.704,25.8445 147.5,30C 148.64,31.9734 149.973,33.8067 151.5,35.5C 149.926,36.6309 148.259,36.7975 146.5,36C 143.513,30.115 141.846,30.2816 141.5,36.5C 140.167,36.5 138.833,36.5 137.5,36.5C 137.034,30.509 136.701,24.509 136.5,18.5 Z"/></g>
<g><path style="opacity:1" fill="#e8ecf0" d="M 141.5,22.5 C 145.161,22.3501 146.161,23.8501 144.5,27C 143.552,27.4828 142.552,27.6495 141.5,27.5C 141.5,25.8333 141.5,24.1667 141.5,22.5 Z"/></g>
<g><path style="opacity:1" fill="#e7ecf1" d="M 165.5,25.5 C 167.256,26.5521 167.923,28.2188 167.5,30.5C 166.5,30.5 165.5,30.5 164.5,30.5C 164.629,28.7839 164.962,27.1172 165.5,25.5 Z"/></g>
<g><path style="opacity:1" fill="#1f346c" d="M 118.5,21.5 C 126.81,19.3368 130.644,22.3368 130,30.5C 128.587,32.4136 126.753,33.7469 124.5,34.5C 123.99,37.1523 122.657,39.1523 120.5,40.5C 118.329,34.6501 116.663,28.6501 115.5,22.5C 116.791,22.7373 117.791,22.404 118.5,21.5 Z"/></g>
<g><path style="opacity:1" fill="#eaeef2" d="M 121.5,25.5 C 122.833,25.5 124.167,25.5 125.5,25.5C 126.244,28.9496 124.91,30.6162 121.5,30.5C 121.5,28.8333 121.5,27.1667 121.5,25.5 Z"/></g>
<g><path style="opacity:1" fill="#19326a" d="M 202.5,29.5 C 205.473,30.9867 208.473,32.4867 211.5,34C 212.337,35.0113 212.67,36.1779 212.5,37.5C 210.063,37.2437 207.729,36.5771 205.5,35.5C 204.692,35.8076 204.025,36.3076 203.5,37C 205.717,38.2684 207.717,39.7684 209.5,41.5C 209.113,42.7199 208.28,43.3865 207,43.5C 205.441,42.9706 203.941,42.304 202.5,41.5C 201.5,41.8333 200.833,42.5 200.5,43.5C 202.001,44.7515 203.668,45.7515 205.5,46.5C 206.429,47.6888 206.762,49.0222 206.5,50.5C 201.854,49.8488 198.187,47.6821 195.5,44C 197.711,39.0793 200.044,34.2459 202.5,29.5 Z"/></g>
<g><path style="opacity:1" fill="#1f346b" d="M 92.5,30.5 C 95.9496,29.7564 97.6162,31.0897 97.5,34.5C 94.0504,33.7564 92.3838,35.0897 92.5,38.5C 95.5184,38.3354 98.5184,38.502 101.5,39C 104.448,44.9819 102.448,48.8152 95.5,50.5C 93.8333,50.1667 92.8333,49.1667 92.5,47.5C 94.1083,46.6816 95.7749,46.0149 97.5,45.5C 98.3857,44.675 98.719,43.675 98.5,42.5C 94.3966,43.2309 90.8966,42.2309 88,39.5C 87.3333,38.1667 87.3333,36.8333 88,35.5C 89.1932,33.5029 90.6932,31.8362 92.5,30.5 Z"/></g>
<g><path style="opacity:1" fill="#20346a" d="M 184.5,23.5 C 187.862,23.0695 190.695,24.0695 193,26.5C 193.315,27.9078 192.982,29.2411 192,30.5C 190.736,28.393 188.903,27.393 186.5,27.5C 186.626,30.4678 188.126,32.4678 191,33.5C 192.623,38.6964 190.79,41.6964 185.5,42.5C 180.173,42.3824 178.339,40.049 180,35.5C 182.194,38.3585 184.694,38.8585 187.5,37C 183.363,34.5718 181.529,31.0718 182,26.5C 183.045,25.6266 183.878,24.6266 184.5,23.5 Z"/></g>
<g><path style="opacity:1" fill="#19316a" d="M 218.5,38.5 C 223.647,40.3119 227.98,43.3119 231.5,47.5C 231.167,48.5 230.5,49.1667 229.5,49.5C 227.922,48.3595 226.256,47.8595 224.5,48C 221.877,51.412 219.377,54.912 217,58.5C 215.513,57.8448 214.347,56.8448 213.5,55.5C 216.167,51.8333 218.833,48.1667 221.5,44.5C 218.479,43.2274 217.479,41.2274 218.5,38.5 Z"/></g>
<g><path style="opacity:1" fill="#1b326b" d="M 73.5,42.5 C 79.5612,45.0354 85.2278,48.3688 90.5,52.5C 89.2259,55.4744 87.2259,56.1411 84.5,54.5C 83.062,54.7189 81.7287,55.2189 80.5,56C 79.2301,58.5934 77.8968,61.0934 76.5,63.5C 75.4164,62.3349 74.5831,61.0016 74,59.5C 73.0386,54.9487 71.8719,50.4487 70.5,46C 71.5442,44.8261 72.5442,43.6594 73.5,42.5 Z"/></g>
<g><path style="opacity:1" fill="#d6dde3" d="M 75.5,48.5 C 77.3936,49.0476 79.0603,50.0476 80.5,51.5C 77.3238,54.0543 75.6572,53.0543 75.5,48.5 Z"/></g>
<g><path style="opacity:1" fill="#1b3269" d="M 61.5,52.5 C 62.6266,53.1217 63.6266,53.955 64.5,55C 62.6707,56.1133 61.8374,57.6133 62,59.5C 65.0162,62.3489 67.8496,65.3489 70.5,68.5C 69.8333,69.8333 68.8333,70.8333 67.5,71.5C 64.3489,68.8496 61.3489,66.0162 58.5,63C 56.6133,62.8374 55.1133,63.6707 54,65.5C 53.0754,64.9535 52.2421,64.2868 51.5,63.5C 54.8554,59.8133 58.1887,56.1466 61.5,52.5 Z"/></g>
<g><path style="opacity:1" fill="#1c346d" d="M 227.5,21.5 C 264.062,44.0802 287.062,76.4135 296.5,118.5C 296.885,126.381 297.885,134.047 299.5,141.5C 299.5,148.167 299.5,154.833 299.5,161.5C 297.531,169.265 296.197,177.265 295.5,185.5C 292.571,192.286 290.238,199.286 288.5,206.5C 286.288,213.255 283.288,219.588 279.5,225.5C 277.807,226.475 276.307,227.808 275,229.5C 273.872,227.655 273.372,225.655 273.5,223.5C 283.843,205.14 290.343,185.474 293,164.5C 295.965,95.3866 266.465,46.0533 204.5,16.5C 204.804,15.8501 205.137,15.1835 205.5,14.5C 210.749,12.6235 214.415,14.2902 216.5,19.5C 217.446,19.0133 218.446,18.6799 219.5,18.5C 221.944,20.0538 224.611,21.0538 227.5,21.5 Z"/></g>
<g><path style="opacity:1" fill="#182f66" d="M 236.5,51.5 C 238.446,52.2544 239.279,53.5878 239,55.5C 235.702,59.7998 232.035,63.7998 228,67.5C 226.322,66.5342 225.655,65.2009 226,63.5C 229.336,59.3322 232.836,55.3322 236.5,51.5 Z"/></g>
<g><path style="opacity:1" fill="#1a316a" d="M 244.5,59.5 C 246.595,59.7598 247.928,60.9264 248.5,63C 247.217,65.0049 246.217,67.1716 245.5,69.5C 245.833,69.8333 246.167,70.1667 246.5,70.5C 250.514,67.4588 253.847,67.9588 256.5,72C 251.78,72.7863 247.114,73.7863 242.5,75C 240.2,79.1955 237.867,79.3622 235.5,75.5C 240.362,71.2824 243.362,65.9491 244.5,59.5 Z"/></g>
<g><path style="opacity:1" fill="#1d346c" d="M 137.5,0.5 C 148.846,0.486101 160.179,0.819435 171.5,1.5C 177.007,1.735 182.34,2.735 187.5,4.5C 191.002,6.29352 194.336,8.62685 197.5,11.5C 194.911,12.205 192.244,12.205 189.5,11.5C 158,3.56218 127,5.06218 96.5,16C 42.6421,40.2033 12.6421,81.7033 6.5,140.5C 5.74418,152.376 5.41085,164.376 5.5,176.5C 4.5,176.5 3.5,176.5 2.5,176.5C 2.46405,170.107 2.63072,163.773 3,157.5C 2.66667,158.167 2.33333,158.833 2,159.5C 1.83333,154.833 1.66667,150.167 1.5,145.5C 1.62857,134.736 2.62857,124.069 4.5,113.5C 16.7147,66.2756 45.048,32.4422 89.5,12C 104.826,5.33505 120.826,1.50171 137.5,0.5 Z"/></g>
<g><path style="opacity:1" fill="#20356b" d="M 46.5,68.5 C 51.7441,71.7311 56.7441,75.3977 61.5,79.5C 60.8333,80.8333 59.8333,81.8333 58.5,82.5C 53.235,79.5653 48.5683,75.8986 44.5,71.5C 45.1925,70.4822 45.8592,69.4822 46.5,68.5 Z"/></g>
<g><path style="opacity:1" fill="#1d336b" d="M 39.5,79.5 C 44.3862,80.8568 44.5529,82.5234 40,84.5C 39.5172,85.448 39.3505,86.448 39.5,87.5C 42.0842,87.4312 44.0842,86.2645 45.5,84C 53.8613,84.257 55.6947,88.0903 51,95.5C 44.947,96.7837 44.2803,95.4504 49,91.5C 49.4828,90.552 49.6495,89.552 49.5,88.5C 46.9158,88.5688 44.9158,89.7355 43.5,92C 37.1714,92.6675 34.6714,89.8342 36,83.5C 37.3756,82.2949 38.5423,80.9616 39.5,79.5 Z"/></g>
<g><path style="opacity:1" fill="#1c336b" d="M 254.5,81.5 C 257.187,81.3359 259.854,81.5026 262.5,82C 263.293,83.0852 263.96,84.2519 264.5,85.5C 261.151,90.8603 257.318,95.8603 253,100.5C 249.896,98.362 249.73,96.0287 252.5,93.5C 252,92.5 251.5,91.5 251,90.5C 248.378,88.5956 245.878,86.5956 243.5,84.5C 247.263,83.3854 250.93,82.3854 254.5,81.5 Z"/></g>
<g><path style="opacity:1" fill="#dde4ea" d="M 253.5,86.5 C 259.22,85.7365 259.887,87.0698 255.5,90.5C 254.295,89.4231 253.628,88.0898 253.5,86.5 Z"/></g>
<g><path style="opacity:1" fill="#1c326c" d="M 30.5,97.5 C 34.9797,97.1569 38.4797,98.8236 41,102.5C 46.6234,100.236 48.1234,101.403 45.5,106C 37.4837,106.113 36.817,107.946 43.5,111.5C 43.1345,112.902 42.3012,113.902 41,114.5C 35.9034,112.691 30.9034,110.691 26,108.5C 25.831,104.178 27.331,100.512 30.5,97.5 Z"/></g>
<g><path style="opacity:1" fill="#e5ebee" d="M 31.5,102.5 C 32.8333,102.5 34.1667,102.5 35.5,102.5C 35.5,103.833 35.5,105.167 35.5,106.5C 31.56,107.234 30.2266,105.901 31.5,102.5 Z"/></g>
<g><path style="opacity:1" fill="#526287" d="M 276.5,112.5 C 270.848,113.032 265.181,113.365 259.5,113.5C 259.5,114.5 259.5,115.5 259.5,116.5C 261.5,116.5 263.5,116.5 265.5,116.5C 263.393,117.468 261.059,117.802 258.5,117.5C 258.5,115.833 258.5,114.167 258.5,112.5C 264.682,111.93 270.682,111.93 276.5,112.5 Z"/></g>
<g><path style="opacity:1" fill="#1c326c" d="M 276.5,112.5 C 277.434,114.239 277.434,115.905 276.5,117.5C 264.457,123.037 265.457,125.037 279.5,123.5C 279.756,125.792 279.423,127.959 278.5,130C 273.193,132.157 267.86,133.99 262.5,135.5C 262.5,133.833 262.5,132.167 262.5,130.5C 265.311,130.174 267.978,129.341 270.5,128C 267.242,127.788 264.076,127.288 261,126.5C 260.333,125.167 260.333,123.833 261,122.5C 263.748,120.542 266.582,118.709 269.5,117C 268.207,116.51 266.873,116.343 265.5,116.5C 263.5,116.5 261.5,116.5 259.5,116.5C 259.5,115.5 259.5,114.5 259.5,113.5C 265.181,113.365 270.848,113.032 276.5,112.5 Z"/></g>
<g><path style="opacity:1" fill="#1c336b" d="M 22.5,117.5 C 23.8333,117.5 25.1667,117.5 26.5,117.5C 25.9084,120.127 25.5751,122.794 25.5,125.5C 26.5,125.5 27.5,125.5 28.5,125.5C 27.8872,122.031 29.2206,120.031 32.5,119.5C 32.5,121.833 32.5,124.167 32.5,126.5C 35.7794,125.969 37.1128,123.969 36.5,120.5C 37.5,120.5 38.5,120.5 39.5,120.5C 39.4476,124.198 39.1143,127.865 38.5,131.5C 32.6762,131.723 27.0095,130.89 21.5,129C 20.9415,128.275 20.6082,127.442 20.5,126.5C 21.3284,123.521 21.9951,120.521 22.5,117.5 Z"/></g>
<g><path style="opacity:0.957" fill="#415273" d="M 296.5,118.5 C 297.684,122.461 298.684,126.461 299.5,130.5C 299.5,134.167 299.5,137.833 299.5,141.5C 297.885,134.047 296.885,126.381 296.5,118.5 Z"/></g>
<g><path style="opacity:1" fill="#193169" d="M 19.5,136.5 C 24.8754,138.293 30.2087,140.293 35.5,142.5C 36.7691,144.695 36.7691,146.861 35.5,149C 29.9908,150.336 24.6575,152.17 19.5,154.5C 18.5481,152.955 18.2148,151.288 18.5,149.5C 22.5442,148.374 26.5442,147.041 30.5,145.5C 27.1135,143.371 23.4468,142.038 19.5,141.5C 19.5,139.833 19.5,138.167 19.5,136.5 Z"/></g>
<g><path style="opacity:1" fill="#142e66" d="M 266.5,140.5 C 271.5,140.5 276.5,140.5 281.5,140.5C 281.5,141.833 281.5,143.167 281.5,144.5C 277.154,144.334 272.821,144.501 268.5,145C 266.398,146.733 266.065,148.733 267.5,151C 272.155,151.499 276.821,151.666 281.5,151.5C 281.5,152.833 281.5,154.167 281.5,155.5C 275.5,155.5 269.5,155.5 263.5,155.5C 263.334,151.486 263.501,147.486 264,143.5C 265.045,142.627 265.878,141.627 266.5,140.5 Z"/></g>
<g><path style="opacity:1" fill="#4e6283" d="M 27.5,160.5 C 30.6248,159.521 33.9581,159.187 37.5,159.5C 37.5,161.167 37.5,162.833 37.5,164.5C 35.5,164.5 33.5,164.5 31.5,164.5C 32.9187,163.549 34.5853,163.216 36.5,163.5C 36.5,162.5 36.5,161.5 36.5,160.5C 33.5,160.5 30.5,160.5 27.5,160.5 Z"/></g>
<g><path style="opacity:1" fill="#152f68" d="M 27.5,160.5 C 30.5,160.5 33.5,160.5 36.5,160.5C 36.5,161.5 36.5,162.5 36.5,163.5C 34.5853,163.216 32.9187,163.549 31.5,164.5C 27.4809,164.646 23.4809,164.979 19.5,165.5C 19.5,163.833 19.5,162.167 19.5,160.5C 22.1667,160.5 24.8333,160.5 27.5,160.5 Z"/></g>
<g><path style="opacity:1" fill="#1a316c" d="M 262.5,162.5 C 268.544,162.839 274.544,163.506 280.5,164.5C 280.5,165.833 280.5,167.167 280.5,168.5C 275.482,168.387 270.482,168.053 265.5,167.5C 265.5,169.5 265.5,171.5 265.5,173.5C 264.167,173.5 262.833,173.5 261.5,173.5C 261.724,169.821 262.058,166.154 262.5,162.5 Z"/></g>
<g><path style="opacity:0.545" fill="#4e5a79" d="M 299.5,161.5 C 299.5,164.167 299.5,166.833 299.5,169.5C 298.38,174.882 297.047,180.216 295.5,185.5C 296.197,177.265 297.531,169.265 299.5,161.5 Z"/></g>
<g><path style="opacity:1" fill="#3d4d77" d="M 4.5,113.5 C 2.62857,124.069 1.62857,134.736 1.5,145.5C 1.66667,150.167 1.83333,154.833 2,159.5C 2.33333,158.833 2.66667,158.167 3,157.5C 2.63072,163.773 2.46405,170.107 2.5,176.5C 3.5,176.5 4.5,176.5 5.5,176.5C 5.41085,164.376 5.74418,152.376 6.5,140.5C 6.15589,152.902 6.82256,165.236 8.5,177.5C 4.8284,177.183 3.16174,178.849 3.5,182.5C 1.62641,175.59 0.293079,168.59 -0.5,161.5C -0.5,153.5 -0.5,145.5 -0.5,137.5C 0.521767,129.371 2.18843,121.371 4.5,113.5 Z"/></g>
<g><path style="opacity:1" fill="#1b3169" d="M 34.5,170.5 C 36.9582,170.227 38.6249,171.227 39.5,173.5C 37.3972,177.106 34.7306,180.273 31.5,183C 34.7938,182.635 38.1272,182.135 41.5,181.5C 41.7589,184.48 40.4256,186.313 37.5,187C 33.2177,188.157 28.8843,188.99 24.5,189.5C 25.2262,184.565 27.5595,180.399 31.5,177C 28.1224,176.952 24.7891,177.452 21.5,178.5C 21.5,176.833 21.5,175.167 21.5,173.5C 26.0768,173.075 30.4101,172.075 34.5,170.5 Z"/></g>
<g><path style="opacity:1" fill="#1d336a" d="M 272.5,179.5 C 274.604,179.201 276.604,179.534 278.5,180.5C 277.96,181.748 277.293,182.915 276.5,184C 268.688,183.85 267.854,185.684 274,189.5C 274.808,191.579 274.641,193.579 273.5,195.5C 270.727,192.804 268.06,189.971 265.5,187C 263.5,186.333 261.5,185.667 259.5,185C 258.62,183.644 258.286,182.144 258.5,180.5C 263.413,182.029 268.08,181.696 272.5,179.5 Z"/></g>
<g><path style="opacity:0.545" fill="#475675" d="M 295.5,185.5 C 294.227,192.954 291.894,199.954 288.5,206.5C 290.238,199.286 292.571,192.286 295.5,185.5 Z"/></g>
<g><path style="opacity:1" fill="#173069" d="M 40.5,192.5 C 44.1704,192.327 46.6704,193.993 48,197.5C 48.6667,200.167 48.6667,202.833 48,205.5C 44.0758,208.213 39.9091,210.547 35.5,212.5C 33.7172,211.652 33.2172,210.319 34,208.5C 37.0877,206.706 40.2544,205.039 43.5,203.5C 44.6309,201.926 44.7975,200.259 44,198.5C 43.4387,197.978 42.772,197.645 42,197.5C 38.3333,199.167 34.6667,200.833 31,202.5C 29.5,202.333 28.6667,201.5 28.5,200C 32.3669,197.236 36.3669,194.736 40.5,192.5 Z"/></g>
<g><path style="opacity:1" fill="#1b326a" d="M 255.5,191.5 C 256.239,191.369 256.906,191.536 257.5,192C 261.314,196.649 265.314,201.149 269.5,205.5C 268.833,206.5 268.167,207.5 267.5,208.5C 261.166,209.655 254.832,209.655 248.5,208.5C 248.433,205.234 250.099,203.734 253.5,204C 256.502,201.105 256.835,198.105 254.5,195C 254.989,193.862 255.322,192.695 255.5,191.5 Z"/></g>
<g><path style="opacity:1" fill="#1a326b" d="M 136.5,50.5 C 192.564,48.2558 229.398,73.5891 247,126.5C 253.161,156.334 247.494,183.667 230,208.5C 229.505,210.473 229.338,212.473 229.5,214.5C 233.897,214.425 238.23,214.925 242.5,216C 245.251,216.516 247.584,217.683 249.5,219.5C 244.075,226.192 242.075,233.859 243.5,242.5C 240.575,242.54 237.909,241.707 235.5,240C 231.167,239.667 226.833,239.333 222.5,239C 222,238.5 221.5,238 221,237.5C 220.502,234.518 220.335,231.518 220.5,228.5C 215.42,228.25 210.42,228.75 205.5,230C 195.014,234.744 184.68,239.744 174.5,245C 159.73,251.385 144.73,252.052 129.5,247C 117.987,241.077 106.32,235.41 94.5,230C 89.5518,228.95 84.5518,228.45 79.5,228.5C 79.6646,231.518 79.498,234.518 79,237.5C 78.5,238 78,238.5 77.5,239C 73.1667,239.333 68.8333,239.667 64.5,240C 62.0734,241.591 59.4067,242.425 56.5,242.5C 56.6658,237.821 56.4992,233.155 56,228.5C 53.7338,225.007 52.4004,221.34 52,217.5C 57.8582,214.883 64.0249,213.883 70.5,214.5C 70.6621,212.473 70.4955,210.473 70,208.5C 48.303,177.258 44.6363,143.924 59,108.5C 75.3578,76.2851 101.191,56.9518 136.5,50.5 Z"/></g>
<g><path style="opacity:1" fill="#fafbfb" d="M 208.5,181.5 C 196.48,205.815 176.813,219.149 149.5,221.5C 122.52,219.027 103.187,205.694 91.5,181.5C 91.3334,153.165 91.5,124.831 92,96.5C 93.5,95 95,93.5 96.5,92C 131.833,91.3333 167.167,91.3333 202.5,92C 204.624,93.1217 206.457,94.6217 208,96.5C 208.5,124.831 208.667,153.165 208.5,181.5 Z"/></g>
<g><path style="opacity:1" fill="#fbfcfc" d="M 155.5,56.5 C 201.054,61.5501 229.888,86.2168 242,130.5C 246.6,157.004 241.434,181.338 226.5,203.5C 218.964,200.011 211.297,199.677 203.5,202.5C 203.167,202.167 202.833,201.833 202.5,201.5C 208.012,195.477 211.678,188.477 213.5,180.5C 214.664,152.67 214.83,124.67 214,96.5C 211.744,91.2425 207.91,87.7425 202.5,86C 167.167,85.3333 131.833,85.3333 96.5,86C 91.5902,88.0746 88.2569,91.5746 86.5,96.5C 85.3363,124.33 85.1697,152.33 86,180.5C 86.21,182.058 86.71,183.391 87.5,184.5C 90.0194,191.035 93.6861,196.869 98.5,202C 96.5116,202.18 94.5116,202.014 92.5,201.5C 90.5274,200.837 88.3608,200.504 86,200.5C 82.5226,200.328 79.356,200.994 76.5,202.5C 75.4168,202.539 74.4168,202.873 73.5,203.5C 58.9223,182.801 53.4223,159.801 57,134.5C 63.5172,100.98 82.3505,77.1468 113.5,63C 120.284,60.2119 127.284,58.3785 134.5,57.5C 141.465,56.6591 148.465,56.3257 155.5,56.5 Z"/></g>
<g><path style="opacity:1" fill="#5d6d8f" d="M 92.5,201.5 C 87.1301,201.392 81.7968,201.725 76.5,202.5C 79.356,200.994 82.5226,200.328 86,200.5C 88.3608,200.504 90.5274,200.837 92.5,201.5 Z"/></g>
<g><path style="opacity:1" fill="#243972" d="M 201.5,164.5 C 202.693,164.97 203.36,165.97 203.5,167.5C 201.52,177.649 195.52,184.149 185.5,187C 158.167,187.667 130.833,187.667 103.5,187C 97.0116,182.367 95.0116,176.2 97.5,168.5C 98.3603,171.593 99.6936,174.427 101.5,177C 130.5,177.667 159.5,177.667 188.5,177C 191.167,175.667 193.833,174.333 196.5,173C 198.556,170.386 200.223,167.553 201.5,164.5 Z"/></g>
<g><path style="opacity:1" fill="#344d72" d="M 86.5,96.5 C 86.2157,125.852 86.549,155.185 87.5,184.5C 86.71,183.391 86.21,182.058 86,180.5C 85.1697,152.33 85.3363,124.33 86.5,96.5 Z"/></g>
<g><path style="opacity:1" fill="#21386f" d="M 213.5,180.5 C 213.565,180.062 213.399,179.728 213,179.5C 211.504,181.411 210.171,183.411 209,185.5C 208.51,184.207 208.343,182.873 208.5,181.5C 208.667,153.165 208.5,124.831 208,96.5C 206.457,94.6217 204.624,93.1217 202.5,92C 167.167,91.3333 131.833,91.3333 96.5,92C 95,93.5 93.5,95 92,96.5C 91.5,124.831 91.3334,153.165 91.5,181.5C 92.1346,184.493 92.3013,187.493 92,190.5C 90.7575,188.141 89.2575,186.141 87.5,184.5C 86.549,155.185 86.2157,125.852 86.5,96.5C 88.2569,91.5746 91.5902,88.0746 96.5,86C 131.833,85.3333 167.167,85.3333 202.5,86C 207.91,87.7425 211.744,91.2425 214,96.5C 214.83,124.67 214.664,152.67 213.5,180.5 Z"/></g>
<g><path style="opacity:1" fill="#41557c" d="M 121.5,135.5 C 121.5,147.167 121.5,158.833 121.5,170.5C 122.833,170.5 124.167,170.5 125.5,170.5C 125.5,160.833 125.5,151.167 125.5,141.5C 127.167,141.5 128.833,141.5 130.5,141.5C 129.432,142.434 128.099,142.768 126.5,142.5C 126.5,152.167 126.5,161.833 126.5,171.5C 124.5,171.5 122.5,171.5 120.5,171.5C 120.172,159.322 120.505,147.322 121.5,135.5 Z"/></g>
<g><path style="opacity:1" fill="#21366f" d="M 173.5,135.5 C 175.5,135.5 177.5,135.5 179.5,135.5C 179.5,147.5 179.5,159.5 179.5,171.5C 177.5,171.5 175.5,171.5 173.5,171.5C 173.5,159.5 173.5,147.5 173.5,135.5 Z"/></g>
<g><path style="opacity:1" fill="#8898ae" d="M 148.5,141.5 C 147.432,142.434 146.099,142.768 144.5,142.5C 144.827,152.348 144.494,162.014 143.5,171.5C 143.5,161.5 143.5,151.5 143.5,141.5C 145.167,141.5 146.833,141.5 148.5,141.5 Z"/></g>
<g><path style="opacity:1" fill="#9baab8" d="M 108.5,135.5 C 111.287,134.523 114.287,134.19 117.5,134.5C 117.5,137.167 117.5,139.833 117.5,142.5C 115.585,142.784 113.919,142.451 112.5,141.5C 113.833,141.5 115.167,141.5 116.5,141.5C 116.5,139.5 116.5,137.5 116.5,135.5C 113.833,135.5 111.167,135.5 108.5,135.5 Z"/></g>
<g><path style="opacity:1" fill="#102c67" d="M 138.5,135.5 C 142.833,135.5 147.167,135.5 151.5,135.5C 151.5,136.5 151.5,137.5 151.5,138.5C 150.833,139.833 149.833,140.833 148.5,141.5C 146.833,141.5 145.167,141.5 143.5,141.5C 143.5,151.5 143.5,161.5 143.5,171.5C 141.833,171.5 140.167,171.5 138.5,171.5C 138.5,159.5 138.5,147.5 138.5,135.5 Z"/></g>
<g><path style="opacity:1" fill="#19316c" d="M 182.5,135.5 C 185.572,135.183 188.572,135.516 191.5,136.5C 190.093,140.915 187.093,142.582 182.5,141.5C 182.5,139.5 182.5,137.5 182.5,135.5 Z"/></g>
<g><path style="opacity:1" fill="#21356e" d="M 155.5,135.5 C 160.167,135.5 164.833,135.5 169.5,135.5C 169.503,140.815 166.836,142.815 161.5,141.5C 161.5,151.5 161.5,161.5 161.5,171.5C 159.5,171.5 157.5,171.5 155.5,171.5C 155.5,159.5 155.5,147.5 155.5,135.5 Z"/></g>
<g><path style="opacity:1" fill="#0c2c69" d="M 121.5,135.5 C 125.833,135.5 130.167,135.5 134.5,135.5C 134.653,138.535 133.32,140.535 130.5,141.5C 128.833,141.5 127.167,141.5 125.5,141.5C 125.5,151.167 125.5,160.833 125.5,170.5C 124.167,170.5 122.833,170.5 121.5,170.5C 121.5,158.833 121.5,147.167 121.5,135.5 Z"/></g>
<g><path style="opacity:1" fill="#112d65" d="M 108.5,135.5 C 111.167,135.5 113.833,135.5 116.5,135.5C 116.5,137.5 116.5,139.5 116.5,141.5C 115.167,141.5 113.833,141.5 112.5,141.5C 109.956,140.292 108.622,138.292 108.5,135.5 Z"/></g>
<g><path style="opacity:1" fill="#a5b2c1" d="M 138.5,135.5 C 142.97,134.514 147.637,134.181 152.5,134.5C 152.768,136.099 152.434,137.432 151.5,138.5C 151.5,137.5 151.5,136.5 151.5,135.5C 147.167,135.5 142.833,135.5 138.5,135.5 Z"/></g>
<g><path style="opacity:1" fill="#77869e" d="M 196.5,124.5 C 195.848,123.275 194.681,122.608 193,122.5C 190.941,122.993 188.941,123.66 187,124.5C 185.93,124.472 185.097,124.139 184.5,123.5C 188.698,122.125 193.031,121.458 197.5,121.5C 197.737,122.791 197.404,123.791 196.5,124.5 Z"/></g>
<g><path style="opacity:1" fill="#7b8aa1" d="M 102.5,122.5 C 103.793,121.842 105.293,121.508 107,121.5C 109.603,121.965 112.103,122.632 114.5,123.5C 114.083,124.124 113.416,124.457 112.5,124.5C 109.358,122.881 106.025,122.215 102.5,122.5 Z"/></g>
<g><path style="opacity:1" fill="#17306a" d="M 184.5,123.5 C 185.097,124.139 185.93,124.472 187,124.5C 188.941,123.66 190.941,122.993 193,122.5C 194.681,122.608 195.848,123.275 196.5,124.5C 193.012,129.189 188.345,130.689 182.5,129C 171.604,123.635 160.771,118.135 150,112.5C 138.53,118.152 127.03,123.652 115.5,129C 108.913,131.04 104.58,128.874 102.5,122.5C 106.025,122.215 109.358,122.881 112.5,124.5C 113.416,124.457 114.083,124.124 114.5,123.5C 126.111,117.445 137.944,111.779 150,106.5C 161.571,112.036 173.071,117.702 184.5,123.5 Z"/></g>
<g><path style="opacity:1" fill="#6f829b" d="M 155.5,56.5 C 148.465,56.3257 141.465,56.6591 134.5,57.5C 138.203,55.945 142.203,55.2783 146.5,55.5C 149.686,55.502 152.686,55.8353 155.5,56.5 Z"/></g>
<g><path style="opacity:1" fill="#cdd2e0" d="M 258.5,201.5 C 265.428,205.087 265.095,206.087 257.5,204.5C 258.127,203.583 258.461,202.583 258.5,201.5 Z"/></g>
<g><path style="opacity:0.929" fill="#4b597a" d="M 3.5,182.5 C 7.55542,192.999 11.2221,203.665 14.5,214.5C 9.26559,204.466 5.59892,193.799 3.5,182.5 Z"/></g>
<g><path style="opacity:1" fill="#7b8ca6" d="M 75.5,207.5 C 74.8872,213.271 75.5539,218.604 77.5,223.5C 76.791,224.404 75.791,224.737 74.5,224.5C 74.1778,218.642 74.5111,212.975 75.5,207.5 Z"/></g>
<g><path style="opacity:1" fill="#f7f9f8" d="M 70.5,229.5 C 71.6138,230.885 72.6138,232.385 73.5,234C 69.3496,234.184 65.3496,235.018 61.5,236.5C 61.1781,230.841 59.8448,225.508 57.5,220.5C 61.4659,219.838 65.4659,219.505 69.5,219.5C 69.1872,223.042 69.5206,226.375 70.5,229.5 Z"/></g>
<g><path style="opacity:1" fill="#f7f9f8" d="M 242.5,221.5 C 239.867,226.109 238.867,231.109 239.5,236.5C 235.512,235.505 231.512,234.505 227.5,233.5C 228.18,232.14 228.847,230.807 229.5,229.5C 230.479,226.375 230.813,223.042 230.5,219.5C 234.817,219.083 238.817,219.75 242.5,221.5 Z"/></g>
<g><path style="opacity:1" fill="#7486a2" d="M 242.5,221.5 C 238.817,219.75 234.817,219.083 230.5,219.5C 230.813,223.042 230.479,226.375 229.5,229.5C 229.5,225.833 229.5,222.167 229.5,218.5C 233.182,218.335 236.848,218.501 240.5,219C 241.624,219.249 242.624,219.749 243.5,220.5C 243.376,221.107 243.043,221.44 242.5,221.5 Z"/></g>
<g><path style="opacity:1" fill="#a4b2c3" d="M 70.5,229.5 C 69.5206,226.375 69.1872,223.042 69.5,219.5C 65.4659,219.505 61.4659,219.838 57.5,220.5C 58.2625,219.732 59.2625,219.232 60.5,219C 63.8168,218.502 67.1501,218.335 70.5,218.5C 70.5,222.167 70.5,225.833 70.5,229.5 Z"/></g>
<g><path style="opacity:1" fill="#1d346d" d="M 8.5,177.5 C 12.1549,191.955 17.3216,205.955 24,219.5C 55.1135,270.981 100.947,295.648 161.5,293.5C 166.504,293.889 171.504,294.389 176.5,295C 173.64,296.076 170.64,296.909 167.5,297.5C 153.166,298.657 138.833,298.657 124.5,297.5C 73.9877,287.965 37.321,260.298 14.5,214.5C 11.2221,203.665 7.55542,192.999 3.5,182.5C 3.16174,178.849 4.8284,177.183 8.5,177.5 Z"/></g>
<g><path style="opacity:1" fill="#f0f2f4" d="M 77.5,223.5 C 75.5539,218.604 74.8872,213.271 75.5,207.5C 82.38,205.039 89.38,204.872 96.5,207C 106.833,212 117.167,217 127.5,222C 140.282,227.085 153.282,227.752 166.5,224C 179.833,218 193.167,212 206.5,206C 212.634,205.1 218.634,205.6 224.5,207.5C 225.495,213.128 225.829,218.794 225.5,224.5C 216.574,222.638 207.907,223.471 199.5,227C 189.779,232.527 179.779,237.527 169.5,242C 156.161,246.628 142.827,246.628 129.5,242C 118.231,235.532 106.565,229.866 94.5,225C 88.888,223.869 83.2213,223.369 77.5,223.5 Z"/></g>
<g><path style="opacity:1" fill="#4c546f" d="M 127.5,227.5 C 127.765,229.738 127.932,232.071 128,234.5C 127.075,233.953 126.242,233.287 125.5,232.5C 126.456,230.925 127.123,229.258 127.5,227.5 Z"/></g>
<g><path style="opacity:1" fill="#5a6385" d="M 174.5,226.5 C 176.513,227.475 177.846,229.142 178.5,231.5C 177.369,232.604 176.535,232.271 176,230.5C 175.667,231.5 175.333,232.5 175,233.5C 173.885,232 173.052,230.333 172.5,228.5C 172.846,227.304 173.346,227.304 174,228.5C 174.464,227.906 174.631,227.239 174.5,226.5 Z"/></g>
<g><path style="opacity:1" fill="#495678" d="M 180.5,222.5 C 181.5,222.5 182.5,222.5 183.5,222.5C 183.626,224.2 184.293,225.7 185.5,227C 184.991,228.169 184.158,229.002 183,229.5C 180.662,227.453 179.829,225.119 180.5,222.5 Z"/></g>
<g><path style="opacity:1" fill="#495676" d="M 123.5,225.5 C 126.674,225.952 127.007,226.952 124.5,228.5C 123.77,230.006 123.437,231.34 123.5,232.5C 122.5,232.167 121.833,231.5 121.5,230.5C 122.174,228.805 122.841,227.138 123.5,225.5 Z"/></g>
<g><path style="opacity:1" fill="#44536f" d="M 118.5,223.5 C 119.5,223.5 120.5,223.5 121.5,223.5C 121.5,224.833 121.5,226.167 121.5,227.5C 119.61,227.297 118.11,227.963 117,229.5C 117.15,227.494 117.65,225.494 118.5,223.5 Z"/></g>
<g><path style="opacity:1" fill="#495975" d="M 113.5,221.5 C 115.346,221.222 116.68,221.889 117.5,223.5C 116.469,224.7 115.635,226.034 115,227.5C 114.667,226.833 114.333,226.167 114,225.5C 113.282,226.451 112.449,226.617 111.5,226C 112.582,224.67 113.249,223.17 113.5,221.5 Z"/></g>
<g><path style="opacity:1" fill="#424c6e" d="M 184.5,220.5 C 186.614,221.36 187.78,223.027 188,225.5C 191.312,224.545 191.312,224.879 188,226.5C 186.065,224.966 184.899,222.966 184.5,220.5 Z"/></g>
<g><path style="opacity:1" fill="#3c516c" d="M 110.5,218.5 C 113.125,219.466 113.125,220.466 110.5,221.5C 109.77,223.006 109.437,224.34 109.5,225.5C 108.5,225.167 107.833,224.5 107.5,223.5C 108.26,221.64 109.26,219.973 110.5,218.5 Z"/></g>
<g><path style="opacity:1" fill="#425075" d="M 193.5,215.5 C 197.485,215.44 199.152,217.44 198.5,221.5C 195.459,220.801 193.792,218.801 193.5,215.5 Z"/></g>
<g><path style="opacity:1" fill="#3c4b72" d="M 200.5,213.5 C 202.534,214.548 203.867,216.214 204.5,218.5C 203.047,218.06 201.881,218.726 201,220.5C 200.503,218.19 200.337,215.857 200.5,213.5 Z"/></g>
<g><path style="opacity:1" fill="#4c5a74" d="M 189.5,217.5 C 193.033,217.888 194.533,219.888 194,223.5C 193,223.5 192,223.5 191,223.5C 189.438,221.496 188.938,219.496 189.5,217.5 Z"/></g>
<g><path style="opacity:1" fill="#414f6a" d="M 105.5,216.5 C 106.756,216.461 107.756,216.961 108.5,218C 104.658,224.178 103.658,223.678 105.5,216.5 Z"/></g>
<g><path style="opacity:1" fill="#384768" d="M 204.5,212.5 C 205.397,213.598 206.23,213.598 207,212.5C 207.851,214.592 208.518,216.592 209,218.5C 207.691,216.109 206.691,216.109 206,218.5C 205.495,216.482 204.995,214.482 204.5,212.5 Z"/></g>
<g><path style="opacity:1" fill="#3c406f" d="M 98.5,213.5 C 99.552,213.351 100.552,213.517 101.5,214C 100.001,215.797 98.5013,217.631 97,219.5C 96.9637,217.428 97.4637,215.428 98.5,213.5 Z"/></g>
<g><path style="opacity:1" fill="#3f4c69" d="M 210.5,210.5 C 211.675,210.281 212.675,210.614 213.5,211.5C 212.811,213.444 212.311,215.444 212,217.5C 211.56,215.134 211.06,212.801 210.5,210.5 Z"/></g>
<g><path style="opacity:1" fill="#575f7d" d="M 94.5,212.5 C 95.3764,212.369 96.0431,212.702 96.5,213.5C 93.9181,219.934 93.2514,219.601 94.5,212.5 Z"/></g>
<g><path style="opacity:1" fill="#556382" d="M 89.5,210.5 C 90.8221,210.33 91.9887,210.663 93,211.5C 93.1805,213.488 93.0138,215.488 92.5,217.5C 91.1667,217.5 89.8333,217.5 88.5,217.5C 88.6741,215.139 89.0074,212.806 89.5,210.5 Z"/></g>
<g><path style="opacity:1" fill="#465577" d="M 84.5,210.5 C 87.128,211.625 87.9613,213.625 87,216.5C 86,215.167 85,215.167 84,216.5C 83.5099,214.455 83.6765,212.455 84.5,210.5 Z"/></g>
<g><path style="opacity:1" fill="#4f5a78" d="M 169.5,228.5 C 171.101,229.519 172.101,231.019 172.5,233C 172.333,234.5 171.5,235.333 170,235.5C 167.679,233.89 166.846,231.89 167.5,229.5C 170.286,234.854 170.952,234.521 169.5,228.5 Z"/></g>
<g><path style="opacity:1" fill="#747d98" d="M 132.5,229.5 C 134.164,230.949 134.998,232.949 135,235.5C 135.98,233.941 136.813,232.274 137.5,230.5C 137.833,230.833 138.167,231.167 138.5,231.5C 138.088,233.887 137.088,235.887 135.5,237.5C 133.493,235.658 131.493,234.658 129.5,234.5C 130.26,232.64 131.26,230.973 132.5,229.5 Z"/></g>
<g><path style="opacity:1" fill="#3a486c" d="M 140.5,231.5 C 141.725,232.152 142.392,233.319 142.5,235C 142.333,236.167 142.167,237.333 142,238.5C 141.119,236.726 139.953,236.06 138.5,236.5C 139.456,234.925 140.123,233.258 140.5,231.5 Z"/></g>
<g><path style="opacity:1" fill="#44536e" d="M 144.5,232.5 C 145.833,232.5 147.167,232.5 148.5,232.5C 148.313,234.564 147.813,236.564 147,238.5C 146.333,235.833 145.667,235.833 145,238.5C 144.505,236.527 144.338,234.527 144.5,232.5 Z"/></g>
<g><path style="opacity:1" fill="#5d6c85" d="M 152.5,233.5 C 153.601,232.402 154.934,232.235 156.5,233C 155.897,234.825 155.23,236.659 154.5,238.5C 153.83,236.709 153.163,235.042 152.5,233.5 Z"/></g>
<g><path style="opacity:1" fill="#525d78" d="M 162.5,230.5 C 165.718,230.651 166.051,231.484 163.5,233C 164.448,233.483 165.448,233.649 166.5,233.5C 166.934,236.166 165.934,237.333 163.5,237C 162.577,234.959 162.244,232.792 162.5,230.5 Z"/></g>
<g><path style="opacity:1" fill="#4e5978" d="M 157.5,231.5 C 158.552,231.351 159.552,231.517 160.5,232C 159.949,233.398 159.616,234.732 159.5,236C 161.645,236.743 161.811,237.576 160,238.5C 157.866,236.713 157.033,234.38 157.5,231.5 Z"/></g>
<g><path style="opacity:1" fill="#21356d" d="M 117.5,257.5 C 120.5,257.5 123.5,257.5 126.5,257.5C 124.85,263.435 123.516,269.435 122.5,275.5C 121.167,275.5 119.833,275.5 118.5,275.5C 118.268,271.02 118.935,266.687 120.5,262.5C 119.675,261.614 118.675,261.281 117.5,261.5C 117.5,260.167 117.5,258.833 117.5,257.5 Z"/></g>
<g><path style="opacity:1" fill="#22366c" d="M 176.5,256.5 C 186.041,257.09 188.041,261.423 182.5,269.5C 184.326,269.92 186.326,269.92 188.5,269.5C 188.5,270.833 188.5,272.167 188.5,273.5C 184.246,274.646 179.913,275.313 175.5,275.5C 177.715,271.063 179.381,266.396 180.5,261.5C 178.173,261.247 176.173,261.914 174.5,263.5C 174.167,262.667 173.833,261.833 173.5,261C 174.008,259.107 175.008,257.607 176.5,256.5 Z"/></g>
<g><path style="opacity:1" fill="#22356c" d="M 135.5,260.5 C 145.688,259.505 148.521,263.505 144,272.5C 142.341,273.817 141.174,275.483 140.5,277.5C 138.833,278.833 137.167,278.833 135.5,277.5C 136.624,276.086 137.624,274.586 138.5,273C 131.96,270.128 130.96,265.962 135.5,260.5 Z"/></g>
<g><path style="opacity:1" fill="#eff2f2" d="M 138.5,263.5 C 139.5,263.5 140.5,263.5 141.5,263.5C 141.5,265.167 141.5,266.833 141.5,268.5C 140.167,268.5 138.833,268.5 137.5,268.5C 137.366,266.708 137.699,265.042 138.5,263.5 Z"/></g>
<g><path style="opacity:1" fill="#19316a" d="M 156.5,260.5 C 163.697,259.029 166.364,261.695 164.5,268.5C 167.684,276.167 165.018,279.333 156.5,278C 156,277.5 155.5,277 155,276.5C 155.081,272.759 154.915,269.092 154.5,265.5C 154.437,263.486 155.103,261.819 156.5,260.5 Z"/></g>
<g><path style="opacity:1" fill="#d1d7e1" d="M 158.5,271.5 C 159.833,271.5 161.167,271.5 162.5,271.5C 162.778,273.346 162.111,274.68 160.5,275.5C 158.889,274.68 158.222,273.346 158.5,271.5 Z"/></g>
<g><path style="opacity:1" fill="#cbd4de" d="M 158.5,263.5 C 161.861,264.203 162.194,265.537 159.5,267.5C 157.358,266.563 157.024,265.23 158.5,263.5 Z"/></g>
<g><path style="opacity:1" fill="#24396e" d="M 273.5,223.5 C 273.372,225.655 273.872,227.655 275,229.5C 276.307,227.808 277.807,226.475 279.5,225.5C 261.803,255.355 236.803,276.855 204.5,290C 192.616,294.136 180.616,297.302 168.5,299.5C 156.167,299.5 143.833,299.5 131.5,299.5C 129.167,298.833 126.833,298.167 124.5,297.5C 138.833,298.657 153.166,298.657 167.5,297.5C 170.64,296.909 173.64,296.076 176.5,295C 171.504,294.389 166.504,293.889 161.5,293.5C 210.051,287.902 247.385,264.568 273.5,223.5 Z"/></g>
</svg>
