<?xml version="1.0" encoding="UTF-8"?>
<svg version="1.1" xmlns="http://www.w3.org/2000/svg" width="2366" height="2366">
<path d="M0 0 C1.27521052 -0.00152655 2.55042104 -0.0030531 3.86427431 -0.0046259 C7.38616803 -0.00869996 10.90803452 -0.00661721 14.42992819 -0.00348004 C18.28247288 -0.00116521 22.13501317 -0.00469042 25.98755696 -0.00744686 C32.75972547 -0.01149203 39.5318863 -0.01183033 46.30405558 -0.00974091 C56.44236007 -0.00663013 66.58065754 -0.00928157 76.71896153 -0.01303962 C93.99878889 -0.01927325 111.27861374 -0.02074575 128.55844206 -0.01962215 C146.07020931 -0.01849781 163.58197443 -0.01953139 181.09374136 -0.02319461 C182.19975731 -0.02342426 183.30577327 -0.02365392 184.44530486 -0.02389053 C188.94994092 -0.02483217 193.45457697 -0.02578785 197.95921302 -0.02676172 C244.9561219 -0.0369072 291.95302959 -0.03996774 338.94993944 -0.04055383 C344.00892944 -0.04061858 349.06791944 -0.04068652 354.12690943 -0.04075724 C355.38229935 -0.04077424 356.63768927 -0.04079125 357.93112131 -0.04080877 C385.74724001 -0.04121718 413.56335849 -0.04340695 441.37947707 -0.04591308 C452.83224407 -0.04694144 464.28501107 -0.04793147 475.73777807 -0.04892933 C477.63591157 -0.04909522 477.63591157 -0.04909522 479.5723912 -0.04926445 C551.4124669 -0.05552969 623.2525425 -0.05972499 695.09261848 -0.05926865 C697.12723144 -0.05925589 699.16184439 -0.05924393 701.19645735 -0.05923224 C715.49023564 -0.0591499 729.78401394 -0.05904719 744.07779223 -0.05893936 C748.1760725 -0.05890859 752.27435277 -0.05887852 756.37263304 -0.05884854 C759.79113227 -0.05882345 763.2096315 -0.05879766 766.62813074 -0.05877043 C831.19209941 -0.05825903 895.75606684 -0.05967638 960.32003492 -0.06911784 C960.99972884 -0.0692172 961.67942276 -0.06931656 962.37971347 -0.06941893 C983.61667693 -0.07253029 1004.85364035 -0.07589678 1026.09060377 -0.07931072 C1047.88177737 -0.0828122 1069.67295098 -0.08628269 1091.46412462 -0.08957511 C1092.13510698 -0.08967664 1092.80608935 -0.08977816 1093.49740451 -0.08988277 C1135.52631655 -0.09623298 1177.55522817 -0.10014967 1219.58414072 -0.1014331 C1220.88233298 -0.10147305 1222.18052523 -0.101513 1223.51805665 -0.10155416 C1252.01597306 -0.10240742 1280.51388945 -0.10266864 1309.01180587 -0.10238378 C1319.20878164 -0.1022873 1329.40575741 -0.10223526 1339.60273318 -0.10220506 C1342.13949824 -0.10219714 1344.67626329 -0.10218694 1347.21302835 -0.10217443 C1387.63892949 -0.10199809 1428.06482713 -0.10769697 1468.49072727 -0.11632825 C1509.20550732 -0.12497702 1549.92028252 -0.12717043 1590.6350631 -0.12056693 C1596.26165096 -0.11965463 1601.88823883 -0.11881135 1607.51482671 -0.11800891 C1608.61778542 -0.11784882 1609.72074412 -0.11768874 1610.85712581 -0.1175238 C1628.3184552 -0.11517118 1645.77977619 -0.11952748 1663.24110399 -0.1266801 C1680.41276328 -0.13357357 1697.58441018 -0.13332375 1714.75606919 -0.12548796 C1724.82146901 -0.12110798 1734.88683233 -0.12217483 1744.95222913 -0.13135475 C1751.64291495 -0.13690811 1758.33357362 -0.13516459 1765.02425737 -0.12757196 C1768.81319167 -0.12347389 1772.6020543 -0.12238474 1776.39098414 -0.13032265 C1795.28919121 -0.16731608 1814.19147635 -0.08376461 1832.76418775 3.87649983 C1833.98017652 4.13028401 1833.98017652 4.13028401 1835.22073072 4.38919514 C1851.15908128 7.84511325 1866.12092473 12.96071752 1880.76418775 20.12649983 C1881.48203443 20.47583577 1882.19988111 20.82517171 1882.93948072 21.18509358 C1921.22846123 40.04887283 1952.46463624 71.133442 1971.76418775 109.12649983 C1972.12206373 109.81920979 1972.47993971 110.51191975 1972.84866041 111.22562093 C1987.66728209 140.14616448 1993.95393278 172.01831297 1993.89068758 204.36231208 C1993.89221413 205.6375226 1993.89374068 206.91273312 1993.89531349 208.22658639 C1993.89938754 211.74848011 1993.8973048 215.2703466 1993.89416762 218.79224027 C1993.89185279 222.64478496 1993.895378 226.49732525 1993.89813444 230.34986904 C1993.90217961 237.12203755 1993.90251791 243.89419838 1993.9004285 250.66636766 C1993.89731771 260.80467215 1993.89996916 270.94296962 1993.9037272 281.0812736 C1993.90996083 298.36110096 1993.91143333 315.64092582 1993.91030973 332.92075413 C1993.90918539 350.43252139 1993.91021898 367.94428651 1993.9138822 385.45605344 C1993.91411185 386.56206939 1993.9143415 387.66808535 1993.91457811 388.80761694 C1993.91551975 393.31225299 1993.91647544 397.81688905 1993.9174493 402.3215251 C1993.92759478 449.31843398 1993.93065533 496.31534167 1993.93124142 543.31225152 C1993.93130616 548.37124151 1993.9313741 553.43023151 1993.93144482 558.48922151 C1993.93146183 559.74461143 1993.93147883 561.00000135 1993.93149635 562.29343339 C1993.93190476 590.10955209 1993.93409454 617.92567057 1993.93660067 645.74178915 C1993.93762902 657.19455615 1993.93861905 668.64732315 1993.93961692 680.10009015 C1993.9397828 681.99822365 1993.9397828 681.99822365 1993.93995204 683.93470328 C1993.94621728 755.77477898 1993.95041258 827.61485458 1993.94995623 899.45493055 C1993.94994348 901.48954351 1993.94993152 903.52415647 1993.94991982 905.55876943 C1993.94983748 919.85254772 1993.94973477 934.14632601 1993.94962694 948.44010431 C1993.94959617 952.53838458 1993.94956611 956.63666485 1993.94953613 960.73494512 C1993.94951103 964.15344435 1993.94948525 967.57194358 1993.94945802 970.99044282 C1993.94894662 1035.55441149 1993.95036397 1100.11837892 1993.95980543 1164.682347 C1993.95995447 1165.70188788 1993.95995447 1165.70188788 1993.96010652 1166.74202555 C1993.96321788 1187.97898901 1993.96658437 1209.21595243 1993.9699983 1230.45291585 C1993.97349978 1252.24408945 1993.97697027 1274.03526306 1993.9802627 1295.8264367 C1993.98036422 1296.49741906 1993.98046575 1297.16840143 1993.98057035 1297.85971659 C1993.98692057 1339.88862863 1993.99083726 1381.91754025 1993.99212068 1423.9464528 C1993.99216063 1425.24464505 1993.99220058 1426.54283731 1993.99224175 1427.88036873 C1993.99309501 1456.37828514 1993.99335622 1484.87620153 1993.99307137 1513.37411795 C1993.99297488 1523.57109372 1993.99292284 1533.76806949 1993.99289264 1543.96504526 C1993.99288473 1546.50181032 1993.99287452 1549.03857537 1993.99286202 1551.57534043 C1993.99268567 1592.00124157 1993.99838456 1632.42713921 1994.00701583 1672.85303935 C1994.0156646 1713.5678194 1994.01785802 1754.28259459 1994.01125451 1794.99737517 C1994.01034222 1800.62396304 1994.00949894 1806.25055091 1994.0086965 1811.87713879 C1994.00845637 1813.53157685 1994.00845637 1813.53157685 1994.00821138 1815.21943789 C1994.00585876 1832.68076728 1994.01021507 1850.14208827 1994.01736768 1867.60341607 C1994.02426116 1884.77507536 1994.02401133 1901.94672225 1994.01617555 1919.11838127 C1994.01179557 1929.18378109 1994.01286241 1939.24914441 1994.02204233 1949.3145412 C1994.02759569 1956.00522703 1994.02585217 1962.69588569 1994.01825955 1969.38656944 C1994.01416148 1973.17550375 1994.01307232 1976.96436638 1994.02101024 1980.75329622 C1994.05800366 1999.65150329 1993.9744522 2018.55378843 1990.01418775 2037.12649983 C1989.76040357 2038.3424886 1989.76040357 2038.3424886 1989.50149244 2039.5830428 C1986.04557433 2055.52139336 1980.92997006 2070.48323681 1973.76418775 2085.12649983 C1973.41485182 2085.84434651 1973.06551588 2086.56219319 1972.705594 2087.3017928 C1953.84181475 2125.59077331 1922.75724559 2156.82694832 1884.76418775 2176.12649983 C1884.07147779 2176.48437581 1883.37876783 2176.84225178 1882.66506666 2177.21097249 C1853.64464913 2192.08076868 1821.98389385 2198.31646292 1789.52837551 2198.25299966 C1788.25316498 2198.25452621 1786.97795446 2198.25605276 1785.6641012 2198.25762557 C1782.14220748 2198.26169962 1778.62034098 2198.25961688 1775.09844732 2198.2564797 C1771.24590263 2198.25416487 1767.39336233 2198.25769008 1763.54081854 2198.26044652 C1756.76865003 2198.26449169 1749.99648921 2198.26482999 1743.22431993 2198.26274057 C1733.08601543 2198.25962979 1722.94771797 2198.26228124 1712.80941398 2198.26603928 C1695.52958662 2198.27227291 1678.24976177 2198.27374541 1660.96993345 2198.27262181 C1643.4581662 2198.27149747 1625.94640107 2198.27253105 1608.43463415 2198.27619427 C1607.32861819 2198.27642393 1606.22260224 2198.27665358 1605.08307065 2198.27689019 C1600.57843459 2198.27783183 1596.07379854 2198.27878752 1591.56916248 2198.27976138 C1544.57225361 2198.28990686 1497.57534592 2198.29296741 1450.57843607 2198.29355349 C1445.51944607 2198.29361824 1440.46045607 2198.29368618 1435.40146607 2198.2937569 C1434.14607615 2198.29377391 1432.89068624 2198.29379091 1431.5972542 2198.29380843 C1403.78113549 2198.29421684 1375.96501702 2198.29640662 1348.14889843 2198.29891275 C1336.69613144 2198.2999411 1325.24336444 2198.30093113 1313.79059744 2198.301929 C1311.89246394 2198.30209488 1311.89246394 2198.30209488 1309.95598431 2198.30226412 C1238.11590861 2198.30852935 1166.275833 2198.31272465 1094.43575703 2198.31226831 C1092.40114407 2198.31225556 1090.36653111 2198.3122436 1088.33191815 2198.3122319 C1074.03813986 2198.31214956 1059.74436157 2198.31204685 1045.45058328 2198.31193902 C1041.35230301 2198.31190825 1037.25402274 2198.31187819 1033.15574247 2198.31184821 C1029.73724324 2198.31182311 1026.318744 2198.31179732 1022.90024477 2198.3117701 C958.33627609 2198.3112587 893.77230867 2198.31267604 829.20834059 2198.32211751 C828.52864666 2198.32221687 827.84895274 2198.32231622 827.14866204 2198.32241859 C805.91169858 2198.32552996 784.67473515 2198.32889645 763.43777174 2198.33231038 C741.64659813 2198.33581186 719.85542452 2198.33928235 698.06425089 2198.34257478 C697.39326852 2198.3426763 696.72228616 2198.34277783 696.030971 2198.34288243 C654.00205896 2198.34923265 611.97314734 2198.35314933 569.94423479 2198.35443276 C568.64604253 2198.35447271 567.34785027 2198.35451266 566.01031885 2198.35455382 C537.51240244 2198.35540708 509.01448605 2198.3556683 480.51656963 2198.35538345 C470.31959386 2198.35528696 460.12261809 2198.35523492 449.92564232 2198.35520472 C447.38887727 2198.3551968 444.85211221 2198.3551866 442.31534716 2198.3551741 C401.88944601 2198.35499775 361.46354837 2198.36069664 321.03764823 2198.36932791 C280.32286819 2198.37797668 239.60809299 2198.38017009 198.89331241 2198.37356659 C193.26672455 2198.3726543 187.64013667 2198.37181102 182.01354879 2198.37100857 C180.91059009 2198.37084849 179.80763139 2198.3706884 178.67124969 2198.37052346 C161.20992031 2198.36817084 143.74859932 2198.37252715 126.28727151 2198.37967976 C109.11561223 2198.38657324 91.94396533 2198.38632341 74.77230632 2198.37848763 C64.70690649 2198.37410764 54.64154318 2198.37517449 44.57614638 2198.38435441 C37.88546055 2198.38990777 31.19480189 2198.38816425 24.50411814 2198.38057163 C20.71518383 2198.37647355 16.9263212 2198.3753844 13.13739136 2198.38332232 C-5.7608157 2198.42031574 -24.66310085 2198.33676428 -43.23581225 2194.37649983 C-44.04647143 2194.20731038 -44.85713061 2194.03812093 -45.69235522 2193.86380452 C-61.63070577 2190.40788641 -76.59254922 2185.29228214 -91.23581225 2178.12649983 C-91.95365893 2177.77716389 -92.67150561 2177.42782796 -93.41110522 2177.06790608 C-131.70008572 2158.20412683 -162.93626074 2127.11955767 -182.23581225 2089.12649983 C-182.59368822 2088.43378987 -182.9515642 2087.74107991 -183.3202849 2087.02737874 C-198.13890658 2058.10683519 -204.42555727 2026.23468669 -204.36231208 1993.89068758 C-204.36383863 1992.61547706 -204.36536517 1991.34026654 -204.36693798 1990.02641328 C-204.37101204 1986.50451956 -204.36892929 1982.98265306 -204.36579211 1979.46075939 C-204.36347729 1975.60821471 -204.3670025 1971.75567441 -204.36975893 1967.90313062 C-204.3738041 1961.13096211 -204.3741424 1954.35880128 -204.37205299 1947.58663201 C-204.36894221 1937.44832751 -204.37159365 1927.31003004 -204.3753517 1917.17172606 C-204.38158533 1899.8918987 -204.38305782 1882.61207384 -204.38193423 1865.33224553 C-204.38080988 1847.82047828 -204.38184347 1830.30871315 -204.38550669 1812.79694623 C-204.38573634 1811.69093027 -204.385966 1810.58491432 -204.38620261 1809.44538273 C-204.38714424 1804.94074667 -204.38809993 1800.43611061 -204.3890738 1795.93147456 C-204.39921928 1748.93456568 -204.40227982 1701.937658 -204.40286591 1654.94074815 C-204.40293066 1649.88175815 -204.4029986 1644.82276815 -204.40306932 1639.76377815 C-204.40308632 1638.50838823 -204.40310333 1637.25299831 -204.40312085 1635.95956628 C-204.40352926 1608.14344757 -204.40571903 1580.3273291 -204.40822516 1552.51121051 C-204.40925351 1541.05844352 -204.41024354 1529.60567652 -204.41124141 1518.15290952 C-204.411352 1516.88748718 -204.41146259 1515.62206485 -204.41157653 1514.31829639 C-204.41784177 1442.47822069 -204.42203707 1370.63814508 -204.42158073 1298.79806911 C-204.42156797 1296.76345615 -204.42155601 1294.72884319 -204.42154432 1292.69423023 C-204.42146198 1278.40045194 -204.42135927 1264.10667365 -204.42125144 1249.81289536 C-204.42122067 1245.71461509 -204.4211906 1241.61633482 -204.42116062 1237.51805455 C-204.42113553 1234.09955531 -204.42110974 1230.68105608 -204.42108251 1227.26255685 C-204.42057111 1162.69858817 -204.42198846 1098.13462075 -204.43142992 1033.57065266 C-204.43152928 1032.89095874 -204.43162864 1032.21126482 -204.43173101 1031.51097412 C-204.43484237 1010.27401065 -204.43820886 989.03704723 -204.44162279 967.80008382 C-204.44512427 946.00891021 -204.44859477 924.2177366 -204.45188719 902.42656296 C-204.45198872 901.7555806 -204.45209024 901.08459824 -204.45219485 900.39328307 C-204.45854506 858.36437104 -204.46246175 816.33545942 -204.46374518 774.30654687 C-204.46378513 773.00835461 -204.46382508 771.71016235 -204.46386624 770.37263093 C-204.4647195 741.87471452 -204.46498072 713.37679813 -204.46469586 684.87888171 C-204.46459938 674.68190594 -204.46454734 664.48493017 -204.46451713 654.2879544 C-204.46450922 651.75118935 -204.46449902 649.21442429 -204.46448651 646.67765924 C-204.46431017 606.25175809 -204.47000905 565.82586045 -204.47864033 525.39996031 C-204.4872891 484.68518026 -204.48948251 443.97040507 -204.482879 403.25562449 C-204.48196671 397.62903662 -204.48112343 392.00244875 -204.48032099 386.37586087 C-204.4801609 385.27290217 -204.48000082 384.16994346 -204.47983588 383.03356177 C-204.47748326 365.57223239 -204.48183956 348.1109114 -204.48899218 330.64958359 C-204.49588565 313.4779243 -204.49563583 296.30627741 -204.48780004 279.13461839 C-204.48342006 269.06921857 -204.48448691 259.00385526 -204.49366683 248.93845846 C-204.49922019 242.24777263 -204.49747667 235.55711397 -204.48988404 228.86643022 C-204.48578597 225.07749591 -204.48469681 221.28863328 -204.49263473 217.49970344 C-204.52962816 198.60149638 -204.44607669 179.69921123 -200.48581225 161.12649983 C-200.31662279 160.31584065 -200.14743334 159.50518147 -199.97311693 158.66995686 C-196.51719883 142.73160631 -191.40159456 127.76976286 -184.23581225 113.12649983 C-183.88647631 112.40865315 -183.53714037 111.69080647 -183.1772185 110.95120686 C-164.31343924 72.66222636 -133.22887008 41.42605134 -95.23581225 22.12649983 C-94.54310229 21.76862386 -93.85039232 21.41074788 -93.13669115 21.04202718 C-64.11627362 6.17223098 -32.45551834 -0.06346326 0 0 Z " fill="#EC1C24" transform="translate(288.23581224679947,83.87350016832352)"/>
<path d="M0 0 C0.8971768 -0.00486483 1.7943536 -0.00972965 2.71871758 -0.0147419 C9.51690096 -0.05107052 16.3150087 -0.06744349 23.11328125 -0.07421875 C24.11496086 -0.07536934 25.11664047 -0.07651993 26.14867401 -0.07770538 C87.7565631 -0.12681889 148.86118006 4.51880598 209.42578125 16.23828125 C211.33979736 16.60010498 211.33979736 16.60010498 213.29248047 16.96923828 C245.68357836 23.11258673 277.94414758 30.39210422 309.42578125 40.23828125 C311.0228634 40.73334986 312.62003884 41.22811756 314.21728516 41.72265625 C366.96899202 58.08314844 417.817023 77.90190928 467.42578125 102.23828125 C468.63879721 102.83113128 469.85185173 103.4239024 471.06494141 104.01660156 C487.83858427 112.22319951 504.28012988 120.84236251 520.42578125 130.23828125 C522.43068118 131.39376445 524.43589629 132.54870092 526.44140625 133.703125 C553.98352222 149.60661078 580.49700952 166.82785017 606.42578125 185.23828125 C607.57989502 186.05594971 607.57989502 186.05594971 608.75732422 186.89013672 C625.22501383 198.58152907 641.06966217 211.0140134 656.68603516 223.81445312 C658.24526452 225.09054429 659.80979225 226.36015506 661.375 227.62890625 C671.75222386 236.0518792 681.90020794 244.7332113 691.73046875 253.7890625 C693.84607557 255.71150522 695.98144198 257.59720384 698.1394043 259.47119141 C711.11014213 270.8124428 723.32106282 282.97213121 735.48364258 295.16577148 C738.01333429 297.70088801 740.54841658 300.23052762 743.08398438 302.75976562 C744.72037327 304.39681442 746.35645242 306.03417291 747.9921875 307.671875 C748.73706924 308.41473251 749.48195099 309.15759003 750.24940491 309.92295837 C754.2831656 313.97466256 758.15417282 318.11238745 761.87745667 322.45184326 C764.43177647 325.39898624 767.12498003 328.21439919 769.80078125 331.05078125 C774.52774501 336.09739069 779.00087268 341.27162273 783.32421875 346.671875 C785.40579552 349.21387488 787.57616505 351.6335746 789.80078125 354.05078125 C793.78086591 358.42336561 797.43925622 362.97997416 801.06030273 367.64819336 C804.06106907 371.51385907 807.11539278 375.32735261 810.21972656 379.11035156 C826.00268317 398.34436463 840.48213474 418.64140203 854.42578125 439.23828125 C854.82829102 439.83108887 855.23080078 440.42389648 855.64550781 441.03466797 C868.27357542 459.66700485 880.16835411 478.74903087 891.42578125 498.23828125 C891.96589844 499.17285156 892.50601563 500.10742188 893.0625 501.0703125 C900.23695363 513.52761797 907.07872545 526.12820945 913.6640625 538.90625 C915.31773826 542.11439231 916.99146271 545.3074585 918.71875 548.4765625 C934.58981114 577.62492862 947.65116524 608.78651086 959.47314453 639.77001953 C960.32887823 641.98720757 961.21027653 644.19074874 962.109375 646.390625 C968.72652923 662.69059736 973.99915327 679.51396477 979.42578125 696.23828125 C979.81975098 697.45209473 980.2137207 698.6659082 980.61962891 699.91650391 C985.92921687 716.40924582 990.33992124 733.08827021 994.56787109 749.88183594 C995.26958645 752.62719242 995.99627992 755.36067243 996.7578125 758.08984375 C1013.92632443 819.64971137 1022.36318157 885.48065326 1025.05078125 949.17578125 C1025.11096436 950.57521973 1025.11096436 950.57521973 1025.17236328 952.00292969 C1025.52256874 961.42752876 1025.42578125 970.78662142 1025.42578125 980.23828125 C1011.89578125 980.23828125 998.36578125 980.23828125 984.42578125 980.23828125 C984.1834375 976.49484375 983.94109375 972.75140625 983.69140625 968.89453125 C981.12982873 929.95756653 981.12982873 929.95756653 976.42578125 891.23828125 C976.23902832 889.94921875 976.05227539 888.66015625 975.85986328 887.33203125 C963.4427732 801.70191282 937.8900264 719.91281442 899.86962891 642.19335938 C898.47688108 639.34286569 897.09754484 636.48616785 895.71875 633.62890625 C889.41726709 620.68578719 882.34467317 608.29824779 875.00048828 595.92236328 C872.84657067 592.25101907 870.79091453 588.52930164 868.73828125 584.80078125 C864.03909526 576.34743058 858.76721445 568.29601218 853.42578125 560.23828125 C852.87728516 559.40603027 852.32878906 558.5737793 851.76367188 557.71630859 C835.60836426 533.20496475 818.49607132 509.58350006 799.81298828 486.92529297 C798.56028135 485.40184966 797.31852865 483.8694149 796.078125 482.3359375 C786.47651617 470.46897631 776.38993248 459.03745065 765.96484375 447.890625 C764.40149612 446.21220863 762.85017762 444.52332779 761.30078125 442.83203125 C754.21955582 435.13131773 746.93758873 427.64636893 739.55078125 420.23828125 C738.67107666 419.35398437 737.79137207 418.4696875 736.88500977 417.55859375 C732.48396412 413.16797415 728.02269091 408.92413899 723.30664062 404.87402344 C720.15358663 402.13188147 717.1457068 399.23720923 714.11328125 396.36328125 C708.96863206 391.52523301 703.73314305 386.90409877 698.2109375 382.49609375 C695.60436545 380.38305217 693.07033159 378.20945859 690.54199219 376.00463867 C682.81383293 369.27446521 674.76976956 363.03849427 666.5859375 356.875 C664.46888662 355.27094156 662.36697733 353.64911601 660.26953125 352.01953125 C625.58366413 325.11378621 588.11324014 301.90269447 549.42578125 281.23828125 C548.53906738 280.76068359 547.65235352 280.28308594 546.73876953 279.79101562 C510.04482826 260.05892714 471.77828451 243.87008605 432.41503906 230.27880859 C429.64678029 229.31520855 426.89028709 228.32499284 424.13671875 227.3203125 C412.12713948 222.96135882 399.95401024 219.43550682 387.62158203 216.10888672 C384.53798829 215.26884888 381.46388329 214.40043926 378.390625 213.5234375 C347.58405078 204.82914864 316.04613799 199.05121659 284.42578125 194.23828125 C283.14864258 194.04250488 281.87150391 193.84672852 280.55566406 193.64501953 C259.27158926 190.44261931 237.89494093 188.62901576 216.42578125 187.23828125 C215.69742065 187.18882355 214.96906006 187.13936584 214.21862793 187.08840942 C198.62696577 186.05385587 183.02090412 186.05078637 167.40234375 186.05297852 C164.43222928 186.05305945 161.46227016 186.04615281 158.4921875 186.0324707 C139.04283811 185.9444278 119.81461355 186.49307544 100.42578125 188.23828125 C99.05256714 188.35890427 99.05256714 188.35890427 97.65161133 188.48196411 C92.07096359 188.97687615 86.49764143 189.52825828 80.92578125 190.11328125 C80.10947235 190.19787598 79.29316345 190.2824707 78.45211792 190.36962891 C64.4163598 191.83054711 50.44707868 193.58476358 36.50195312 195.76025391 C33.60883574 196.20983516 30.71323258 196.63761164 27.81640625 197.0625 C-50.13784231 208.88975728 -125.88760936 235.18203725 -196.52441406 269.74707031 C-198.55033534 270.73765046 -200.5783242 271.72401363 -202.60839844 272.70605469 C-217.10395934 279.72184993 -231.07296248 287.38737531 -244.89697266 295.64550781 C-247.28406854 297.06566225 -249.68056921 298.46656779 -252.0859375 299.85546875 C-269.40141207 309.86667398 -286.25183846 320.67911597 -302.57421875 332.23828125 C-303.26370605 332.72586914 -303.95319336 333.21345703 -304.66357422 333.71582031 C-330.65793125 352.15963171 -355.75243699 371.8122111 -379.359375 393.23828125 C-381.34834377 395.03431654 -383.35985069 396.79781428 -385.38671875 398.55078125 C-395.97899051 407.80712861 -406.06010053 417.56145418 -415.98779297 427.52148438 C-417.96467885 429.50378369 -419.94692914 431.48060758 -421.9296875 433.45703125 C-430.2816905 441.79934775 -430.2816905 441.79934775 -438.16357422 450.58251953 C-440.49936838 453.32418724 -442.98570466 455.92435936 -445.44921875 458.55078125 C-449.92967021 463.36717926 -454.18380128 468.30681103 -458.3046875 473.4375 C-460.35296161 475.96523242 -462.44144037 478.44775695 -464.55541992 480.92016602 C-500.73217722 523.24361356 -534.12338674 571.40211916 -558.6875 621.46875 C-559.99061769 624.10344987 -561.3464679 626.70224739 -562.7421875 629.2890625 C-576.64161954 655.05096583 -587.99137029 681.83064172 -598.70571899 709.03872681 C-599.57952232 711.25171301 -600.461694 713.46123923 -601.34448242 715.6706543 C-605.64726058 726.5035773 -609.44127016 737.45660897 -613.01171875 748.55078125 C-613.29146545 749.41612488 -613.57121216 750.28146851 -613.85943604 751.17303467 C-622.05135418 776.55826947 -628.80522603 802.19322976 -634.57421875 828.23828125 C-634.83444824 829.40230469 -635.09467773 830.56632813 -635.36279297 831.765625 C-638.64742224 846.57874065 -641.3735529 861.44610408 -643.76171875 876.42578125 C-643.8824173 877.17496826 -644.00311584 877.92415527 -644.12747192 878.69604492 C-649.52363279 912.42216621 -651.26033048 946.10842923 -653.57421875 980.23828125 C-759.50421875 980.23828125 -865.43421875 980.23828125 -974.57421875 980.23828125 C-974.57421875 957.07108276 -974.57421875 957.07108276 -974.12890625 949.17578125 C-974.07876877 948.23536987 -974.02863129 947.2949585 -973.97697449 946.3260498 C-973.81023393 943.29618356 -973.63166995 940.26724019 -973.44921875 937.23828125 C-973.38652802 936.17955811 -973.32383728 935.12083496 -973.25924683 934.0300293 C-970.91057156 895.23779692 -966.22547654 856.48803269 -958.9671936 818.30645752 C-958.58931733 816.31774314 -958.21391852 814.3285585 -957.83862305 812.33935547 C-954.49046283 794.72131202 -950.74954578 777.22730875 -946.51171875 759.80078125 C-946.31029266 758.96612335 -946.10886658 758.13146545 -945.90133667 757.27151489 C-943.25801857 746.35811213 -940.26882425 735.59263427 -936.96948242 724.859375 C-935.53083091 720.15759572 -934.23506924 715.42118918 -932.94921875 710.67578125 C-928.77559173 695.70143158 -923.46507142 681.05808397 -918.32861328 666.39303589 C-917.8208661 664.94277273 -917.3140471 663.49218432 -916.80810547 662.04129028 C-897.61098876 606.99660529 -872.68071912 553.71243225 -843.57421875 503.23828125 C-842.91760254 502.09520508 -842.26098633 500.95212891 -841.58447266 499.77441406 C-832.53847754 484.04158066 -823.17417036 468.6063675 -813.08984375 453.50878906 C-811.83579318 451.63013727 -810.59145911 449.74601507 -809.35546875 447.85546875 C-791.36863775 420.49414532 -771.74737416 394.29194163 -750.99804688 368.97802734 C-749.72195571 367.41879798 -748.45234494 365.85427025 -747.18359375 364.2890625 C-738.7606208 353.91183864 -730.0792887 343.76385456 -721.0234375 333.93359375 C-719.10099478 331.81798693 -717.21529616 329.68262052 -715.34130859 327.5246582 C-704.0000572 314.55392037 -691.84036879 302.34299968 -679.64672852 290.18041992 C-677.11161199 287.65072821 -674.58197238 285.11564592 -672.05273438 282.58007812 C-670.41568558 280.94368923 -668.77832709 279.30761008 -667.140625 277.671875 C-666.39776749 276.92699326 -665.65490997 276.18211151 -664.88954163 275.41465759 C-660.83783744 271.3808969 -656.70011255 267.50988968 -652.36065674 263.78660583 C-649.41351376 261.23228603 -646.59810081 258.53908247 -643.76171875 255.86328125 C-638.71510931 251.13631749 -633.54087727 246.66318982 -628.140625 242.33984375 C-625.59862512 240.25826698 -623.1789254 238.08789745 -620.76171875 235.86328125 C-616.38913439 231.88319659 -611.83252584 228.22480628 -607.16430664 224.60375977 C-603.29864093 221.60299343 -599.48514739 218.54866972 -595.70214844 215.44433594 C-576.46813537 199.66137933 -556.17109797 185.18192776 -535.57421875 171.23828125 C-534.98141113 170.83577148 -534.38860352 170.43326172 -533.77783203 170.01855469 C-515.14471522 157.38995848 -496.05927218 145.50432353 -476.57421875 134.23828125 C-475.69813965 133.73006836 -474.82206055 133.22185547 -473.91943359 132.69824219 C-411.0402892 96.33300164 -344.70471913 67.4327405 -275.57421875 45.23828125 C-274.48077148 44.88540039 -273.38732422 44.53251953 -272.26074219 44.16894531 C-256.87055683 39.23418618 -241.26112671 35.22026325 -225.59570312 31.27075195 C-222.76720689 30.55132133 -219.94769474 29.80358015 -217.13085938 29.03979492 C-205.35763192 25.85640122 -193.52930856 23.2062693 -181.57421875 20.80078125 C-180.62035278 20.60785492 -179.66648682 20.41492859 -178.68371582 20.21615601 C-119.8853127 8.34787836 -60.07044865 0.25258164 0 0 Z " fill="#FEFEFE" transform="translate(1157.57421875,182.76171875)"/>
<path d="M0 0 C13.53 0 27.06 0 41 0 C41.20753906 3.49980469 41.41507813 6.99960938 41.62890625 10.60546875 C43.64249928 43.15977249 46.89059862 75.2816377 51.64123535 107.55981445 C51.96049384 109.73129357 52.2736254 111.90354655 52.58496094 114.07617188 C53.32063909 119.08107786 54.15347072 123.9583884 55.46386719 128.84375 C56.44135513 132.77506761 57.13959784 136.76480391 57.90161133 140.74243164 C63.21252038 168.32940472 70.20456325 195.30712071 79 222 C79.2648822 222.8068927 79.5297644 223.6137854 79.80267334 224.44512939 C97.46716808 278.20878306 119.03280221 330.34119771 147.48144531 379.37744141 C148.9450397 381.90508303 150.39280515 384.44110115 151.8359375 386.98046875 C165.23837078 410.48480726 180.19106629 433.05096768 196 455 C196.55445801 455.76989258 197.10891602 456.53978516 197.68017578 457.33300781 C205.34427881 467.93685569 213.28987489 478.2387352 221.62353516 488.32373047 C223.46611062 490.56763312 225.26461681 492.84520998 227.0625 495.125 C234.99685428 505.06805157 243.45026041 514.58585659 252 524 C253.39589215 525.56244746 254.79172375 527.12494901 256.1875 528.6875 C265.6752532 539.20227803 275.37483964 549.46941038 285.375 559.5 C286.62277222 560.75466064 286.62277222 560.75466064 287.89575195 562.03466797 C292.17267468 566.30089304 296.52117013 570.40854792 301.1015625 574.34667969 C304.25898855 577.09643396 307.27404886 579.99534026 310.3125 582.875 C315.4350247 587.69258232 320.64910531 592.28767105 326.1484375 596.67578125 C328.9049045 598.92249066 331.57559389 601.24140736 334.24267578 603.59228516 C342.22805287 610.62480272 350.53096761 617.12839901 359.03662109 623.51708984 C360.81278556 624.85859978 362.57594127 626.21440481 364.33203125 627.58203125 C377.17346785 637.58058377 390.35569671 647.12552449 404 656 C405.48064432 656.97238896 406.96109695 657.94506985 408.44140625 658.91796875 C437.67900668 678.08610344 467.79258574 695.26671951 499 711 C500.03527832 711.52303711 501.07055664 712.04607422 502.13720703 712.58496094 C520.99799581 722.04767755 540.43170644 730.13446215 560 738 C560.64966736 738.26123657 561.29933472 738.52247314 561.96868896 738.79162598 C589.51583421 749.83557173 617.79834123 759.33135972 646.63134766 766.3984375 C649.54251036 767.13778041 652.41696388 767.97871514 655.29736328 768.82861328 C669.96581891 773.12745327 685.0334256 775.95050515 700 779 C700.99435059 779.20512207 701.98870117 779.41024414 703.01318359 779.62158203 C726.15616946 784.3725058 749.57999401 787.66851478 773.0625 790.1875 C774.13599197 790.30544922 774.13599197 790.30544922 775.23117065 790.42578125 C801.38051259 793.26832195 827.57113483 794.38879595 853.86363602 794.31785583 C855.98395211 794.31238004 858.10425691 794.31003662 860.22457886 794.3079834 C897.67921324 794.25170987 934.90066387 792.26060143 972 787 C973.27955566 786.82774902 974.55911133 786.65549805 975.87744141 786.47802734 C1016.531513 780.99845553 1056.9047856 772.44224877 1096 760 C1097.48074188 759.53189804 1098.9615397 759.063973 1100.44238281 758.59619141 C1156.98056767 740.70608596 1211.78768583 718.27173149 1263.23583984 688.58496094 C1265.91344752 687.04962893 1268.60387398 685.54018545 1271.30078125 684.0390625 C1283.70223476 677.10873605 1295.62012692 669.56990402 1307.4453125 661.69970703 C1309.68789169 660.20765463 1311.93592581 658.72451709 1314.1875 657.24609375 C1330.98210047 646.18899546 1347.09316291 634.29444989 1363 622 C1363.68787598 621.46955078 1364.37575195 620.93910156 1365.08447266 620.39257812 C1373.01275286 614.26793591 1380.74132915 607.94216165 1388.34375 601.41796875 C1390.04685578 599.95988526 1391.75709274 598.51053148 1393.46875 597.0625 C1400.84094207 590.80972086 1408.01625509 584.3872571 1415.07446289 577.78198242 C1416.55671171 576.41023979 1418.05028627 575.05072794 1419.54858398 573.6965332 C1427.21825571 566.74663363 1434.60497653 559.54993956 1441.91088867 552.21948242 C1443.82422194 550.30074495 1445.74290504 548.38747246 1447.66210938 546.47460938 C1453.14005478 540.99963245 1458.58596902 535.54522376 1463.60522461 529.63989258 C1465.78215689 527.08038722 1468.08488584 524.64610604 1470.375 522.1875 C1474.64839971 517.56219047 1478.68883729 512.79918099 1482.63671875 507.890625 C1484.79321928 505.25292188 1487.00202966 502.67738686 1489.24023438 500.10961914 C1495.96622441 492.38190905 1502.2015918 484.34159189 1508.36328125 476.16015625 C1509.96733969 474.04310537 1511.58916524 471.94119608 1513.21875 469.84375 C1532.61029103 444.85073207 1550.08527947 418.32930337 1566 391 C1566.48774902 390.16726563 1566.97549805 389.33453125 1567.47802734 388.4765625 C1575.4276908 374.87661826 1582.83784729 361.02909601 1590 347 C1590.5561499 345.91259521 1590.5561499 345.91259521 1591.12353516 344.80322266 C1593.09933946 340.92815165 1595.03983436 337.0371611 1596.953125 333.13085938 C1597.68543718 331.64027619 1598.42284141 330.15218879 1599.1640625 328.66601562 C1622.79830756 281.2117217 1640.0954685 230.87900004 1653.3203125 179.61328125 C1654.00294808 176.98866516 1654.70412621 174.36946182 1655.40625 171.75 C1660.06072325 154.08611008 1663.35972537 136.17691393 1666.60101318 118.21096802 C1666.86723042 116.73573681 1667.13452569 115.26069973 1667.40289307 113.78585815 C1674.25961733 76.06864776 1676.92823075 38.32773118 1679 0 C1784.93 0 1890.86 0 2000 0 C2000 12.29106095 1999.93798676 24.49039547 1999.3125 36.75 C1999.27187439 37.55983337 1999.23124878 38.36966675 1999.18939209 39.20404053 C1996.10723605 98.68778942 1986.86140331 158.22237437 1972.71435547 216.04394531 C1972.04232213 218.82486794 1971.39266836 221.60970818 1970.75390625 224.3984375 C1964.52556359 251.49821859 1955.83377917 277.94762166 1946.875 304.25 C1946.55018646 305.20366455 1946.22537292 306.1573291 1945.89071655 307.13989258 C1933.7898724 342.5775785 1919.47911799 376.93118457 1903.50341797 410.80517578 C1902.11791774 413.74942001 1900.74619483 416.6996102 1899.37890625 419.65234375 C1893.88226486 431.45510816 1887.83390713 442.88168676 1881.51025391 454.26025391 C1880.04052268 456.92648795 1878.59933895 459.60597571 1877.16796875 462.29296875 C1857.79629527 498.5581557 1835.56255074 534.37404641 1810.53466797 566.97802734 C1808.23303899 570.01049492 1805.99008473 573.08513664 1803.74243164 576.15771484 C1797.3353262 584.91602779 1790.79539239 593.53971305 1784 602 C1783.49114258 602.63502441 1782.98228516 603.27004883 1782.45800781 603.92431641 C1776.18216023 611.74337393 1769.80895112 619.46416812 1763.24951172 627.04711914 C1760.15934436 630.62415014 1757.15248725 634.25509621 1754.1875 637.9375 C1751.18622017 641.6363746 1748.07177464 645.04459122 1744.65234375 648.35546875 C1742.99154399 650.00841603 1741.46377609 651.72251638 1739.9375 653.5 C1728.94046359 666.21810439 1717.04510347 678.11542223 1705.14794922 689.98242188 C1702.60396672 692.5209885 1700.06544872 695.0649333 1697.52734375 697.609375 C1695.8857376 699.25032112 1694.24382169 700.89095744 1692.6015625 702.53125 C1691.85556793 703.2792688 1691.10957336 704.0272876 1690.3409729 704.79797363 C1686.28029942 708.84074507 1682.13446892 712.72152312 1677.78520203 716.45291138 C1674.83836515 719.00669394 1672.02345686 721.69959992 1669.1875 724.375 C1664.14089056 729.10196376 1658.96665852 733.57509143 1653.56640625 737.8984375 C1651.02440637 739.98001427 1648.60470665 742.1503838 1646.1875 744.375 C1641.81299174 748.35683587 1637.25470925 752.01742083 1632.58349609 755.63891602 C1628.76685432 758.60045484 1625.00788283 761.61959829 1621.28027344 764.69238281 C1612.72444665 771.73660944 1603.90992436 778.37899127 1594.93261719 784.87548828 C1592.64234788 786.53465607 1590.35766327 788.20076291 1588.07519531 789.87060547 C1577.86414412 797.31953964 1567.49700582 804.49280961 1556.96826172 811.48486328 C1554.4974887 813.12666873 1552.03176552 814.77586068 1549.56640625 816.42578125 C1539.50525022 823.13737673 1529.31451475 829.58805124 1518.95191956 835.82382202 C1517.00552296 836.99667201 1515.06386966 838.17701592 1513.12353516 839.35986328 C1491.89243309 852.28137312 1469.98025384 863.82070909 1447.83197021 875.06774902 C1445.22416154 876.39480782 1442.62221149 877.73322993 1440.01953125 879.0703125 C1374.89642925 912.32491452 1303.288911 937.71584018 1232 954 C1230.1118457 954.43940918 1230.1118457 954.43940918 1228.18554688 954.88769531 C1202.13895127 960.92871205 1175.8841466 965.43674725 1149.48016357 969.60479736 C1147.33310853 969.94692069 1145.18785178 970.29741421 1143.04345703 970.65576172 C1125.7045542 973.5476836 1108.24768104 975.10155537 1090.75 976.6875 C1089.55834229 976.79645599 1088.36668457 976.90541199 1087.13891602 977.01766968 C1058.377756 979.62292979 1029.79404905 980.2096674 1000.9375 980.1875 C1000.07059666 980.18708584 999.20369331 980.18667168 998.31052017 980.18624496 C946.68840373 980.15536591 946.68840373 980.15536591 922 978 C921.07473511 977.91987671 920.14947021 977.83975342 919.19616699 977.75720215 C894.13591428 975.56352324 869.22018504 972.82259047 844.42089844 968.57763672 C840.03444488 967.83696093 835.63914555 967.16116684 831.24243164 966.48461914 C826.1553161 965.69380354 821.07687257 964.85384912 816 964 C815.07944824 963.84660156 814.15889648 963.69320312 813.21044922 963.53515625 C796.87784906 960.7551392 780.79382103 956.91240231 764.6875 953.0625 C763.09387131 952.68315308 763.09387131 952.68315308 761.4680481 952.29614258 C747.20047268 948.89006161 733.06240682 945.17373874 719 941 C717.74888428 940.62979736 716.49776855 940.25959473 715.20874023 939.87817383 C664.05287294 924.54437387 614.57329958 905.15623769 566.3125 882.3125 C565.48663391 881.92243774 564.66076782 881.53237549 563.80987549 881.13049316 C503.33297134 852.50571501 446.32757505 816.4984425 393.31640625 775.77734375 C391.32933463 774.25269352 389.33815918 772.73377738 387.34375 771.21875 C375.58581166 762.25477721 364.13498214 752.92212524 352.953125 743.24975586 C349.37604087 740.15947249 345.74499382 737.15255974 342.0625 734.1875 C338.3636254 731.18622017 334.95540878 728.07177464 331.64453125 724.65234375 C329.99158397 722.99154399 328.27748362 721.46377609 326.5 719.9375 C313.78189561 708.94046359 301.88457777 697.04510347 290.01757812 685.14794922 C287.4790115 682.60396672 284.9350667 680.06544872 282.390625 677.52734375 C280.74967888 675.8857376 279.10904256 674.24382169 277.46875 672.6015625 C276.7207312 671.85556793 275.9727124 671.10957336 275.20202637 670.3409729 C271.15925493 666.28029942 267.27847688 662.13446892 263.54708862 657.78520203 C260.99330606 654.83836515 258.30040008 652.02345686 255.625 649.1875 C250.89803624 644.14089056 246.42490857 638.96665852 242.1015625 633.56640625 C240.01998573 631.02440637 237.8496162 628.60470665 235.625 626.1875 C231.64316413 621.81299174 227.98257917 617.25470925 224.36108398 612.58349609 C221.39954516 608.76685432 218.38040171 605.00788283 215.30761719 601.28027344 C207.49390618 591.78984084 200.21348798 581.95083075 193 572 C191.87131816 570.45165931 190.74241497 568.90347994 189.61328125 567.35546875 C173.03017845 544.56833455 157.69854027 521.04261231 143 497 C142.59330078 496.33726074 142.18660156 495.67452148 141.76757812 494.99169922 C130.00620883 475.79539154 119.23805247 456.04449695 109 436 C108.46995361 434.96480225 108.46995361 434.96480225 107.92919922 433.90869141 C105.97886764 430.08801653 104.06878821 426.24899186 102.18017578 422.39746094 C101.31650655 420.64296531 100.44684437 418.89141628 99.57373047 417.14160156 C91.8954716 401.73755514 84.78401153 386.15713553 78.0625 370.3125 C77.70987091 369.48258545 77.35724182 368.6526709 76.993927 367.79760742 C70.17746734 351.71932675 63.72940911 335.54449857 58.125 319 C57.48645611 317.12812609 56.84790347 315.25625509 56.20872498 313.38459778 C55.56280095 311.49279096 54.91787179 309.60064455 54.27294922 307.70849609 C53.04421132 304.1288013 51.79443597 300.55733316 50.53515625 296.98828125 C46.72365743 286.16829013 43.10052086 275.38778773 40.1640625 264.296875 C39.17879631 260.58902932 38.0694684 256.93022424 36.92895508 253.26757812 C30.30611503 231.89654341 25.32147276 210.06284215 20.6875 188.1875 C20.52260071 187.41464661 20.35770142 186.64179321 20.18780518 185.84552002 C18.03266716 175.7008132 16.21766476 165.54042207 14.66699219 155.28588867 C14.04733081 151.21521392 13.31779732 147.17266757 12.5625 143.125 C10.28143427 130.48230078 8.6434284 117.73830366 7 105 C6.87111389 104.00873108 6.87111389 104.00873108 6.73962402 102.99743652 C2.31496076 68.8729219 -0.66634516 34.42783327 0 0 Z " fill="#FEFEFE" transform="translate(183,1203)"/>
<path d="M0 0 C0.6820752 0.08699158 1.36415039 0.17398315 2.06689453 0.26361084 C15.72127594 2.00706129 29.38403634 3.76577863 42.87011719 6.55957031 C45.38264751 7.0791261 47.89840121 7.58176392 50.4140625 8.0859375 C64.0802633 10.85273508 77.65364074 13.94764346 91.18701172 17.30322266 C92.91674614 17.73167796 94.64735944 18.15662565 96.37939453 18.57568359 C143.76575707 30.05463054 190.07100443 47.85986014 234.07714844 68.62451172 C236.82964703 69.91983222 239.58901182 71.1989456 242.3515625 72.47265625 C250.60721725 76.29846715 258.62321393 80.30646049 266.43359375 84.98046875 C269.4320641 86.73719406 272.52390686 88.25713339 275.64453125 89.78515625 C282.04781025 92.95925743 288.14697728 96.53725618 294.25 100.25 C295.33974121 100.90895264 296.42948242 101.56790527 297.55224609 102.24682617 C311.23523618 110.53822811 324.78602357 118.97658146 338 128 C338.74733398 128.51014648 339.49466797 129.02029297 340.26464844 129.54589844 C358.56467337 142.08827521 376.17603086 155.48229092 393.29101562 169.59521484 C394.87988323 170.90126401 396.47862053 172.19528081 398.078125 173.48828125 C403.42089444 177.80876101 408.59521652 182.2646791 413.67578125 186.890625 C415.72042335 188.74626657 417.78784149 190.56756376 419.875 192.375 C429.414683 200.71027413 438.53731622 209.39342119 447.42944336 218.41357422 C451.20932688 222.23165026 455.02196624 226.01681435 458.8359375 229.80078125 C460.68236349 231.63794865 462.52871546 233.47519045 464.375 235.3125 C465.75558594 236.68051758 465.75558594 236.68051758 467.1640625 238.07617188 C472.32681976 243.22049071 477.26510523 248.46168004 482 254 C483.45445517 255.60768373 484.91220895 257.21239715 486.375 258.8125 C490.19597138 263.05088843 493.84247331 267.39879103 497.4296875 271.8359375 C499.35180461 274.2128481 501.29965269 276.56675943 503.2578125 278.9140625 C510.61925366 287.75148183 517.72946482 296.71877684 524.52880859 305.99609375 C525.96478852 307.95203852 527.4134099 309.89809073 528.86328125 311.84375 C545.92816991 334.92872873 561.68304179 359.12366036 576 384 C576.4626123 384.80356934 576.92522461 385.60713867 577.40185547 386.43505859 C580.34594987 391.58202319 583.1982877 396.77432198 586 402 C586.4434375 402.82516113 586.886875 403.65032227 587.34375 404.50048828 C606.2971458 439.92622773 622.44853289 476.18076693 636 514 C636.60279888 515.66669043 637.20565791 517.33335911 637.80859375 519 C647.40649388 545.74786996 654.68073923 573.31391747 661 601 C661.29261719 602.26875977 661.58523438 603.53751953 661.88671875 604.84472656 C669.25413303 636.95474906 673.75709876 669.27759597 676.875 702.0625 C676.98459045 703.18796234 677.09418091 704.31342468 677.20709229 705.47299194 C678.67274431 720.7187015 679.20595599 735.68050856 679 751 C666.13 751 653.26 751 640 751 C639.896875 747.143125 639.79375 743.28625 639.6875 739.3125 C637.80839208 683.43834821 628.99862554 628.55181329 612.03076172 575.23876953 C611.36604336 573.15014949 610.70586688 571.06007588 610.05126953 568.96826172 C597.57845837 529.19920845 579.78116892 489.95046905 558.33251953 454.22070312 C557.03260307 452.05433448 555.74820748 449.8793283 554.46484375 447.703125 C539.23210664 422.10737005 521.79989186 397.69713351 502.61669922 374.92089844 C501.10306644 373.12245949 499.59901915 371.31649615 498.09765625 369.5078125 C492.10650053 362.3199136 485.85177455 355.41402505 479.46435547 348.57763672 C478.04910134 347.05289977 476.64869501 345.51611533 475.25390625 343.97265625 C466.686346 334.49761406 457.89601469 325.1366451 448.14453125 316.86328125 C445.83819329 314.85941384 443.6077611 312.78746281 441.37573242 310.70166016 C436.0582604 305.73561036 430.66339123 300.94923357 424.984375 296.39453125 C422.76972458 294.61759315 420.57507619 292.82504198 418.390625 291.01171875 C403.8418053 278.97219982 388.49534371 268.24537418 372.8125 257.75 C372.18945984 257.33193085 371.56641968 256.91386169 370.92449951 256.48312378 C327.54397287 227.42152933 280.46645807 204.60133611 231 188 C230.030625 187.67451172 229.06125 187.34902344 228.0625 187.01367188 C221.73762566 184.9097727 215.38330635 182.91882505 209 181 C208.04125977 180.7102832 207.08251953 180.42056641 206.09472656 180.12207031 C190.23858688 175.37816164 174.25901864 171.78106204 158.02197266 168.60058594 C155.6363475 168.12646751 153.26044216 167.63099438 150.88671875 167.1015625 C131.63035063 162.89276759 111.80214598 161.03300106 92.1875 159.3125 C91.49868744 159.2518335 90.80987488 159.19116699 90.10018921 159.12866211 C85.40245919 158.71971751 80.70281222 158.34550982 76 158 C75.00383667 157.92631195 75.00383667 157.92631195 73.98754883 157.85113525 C61.87049857 156.98078334 49.77093849 156.75880478 37.625 156.75 C36.15867126 156.74848938 36.15867126 156.74848938 34.66271973 156.74694824 C16.64339281 156.75937385 -1.08751021 157.81308008 -18.98968506 159.78509521 C-22.23635281 160.13216742 -25.48773976 160.42994417 -28.73828125 160.73828125 C-63.83159747 164.2987282 -99.3549213 171.38739642 -133 182 C-133.68263916 182.21420593 -134.36527832 182.42841187 -135.06860352 182.64910889 C-162.01060684 191.11838171 -188.1189704 201.09924084 -213.76367188 212.96777344 C-215.91567026 213.96107575 -218.07414041 214.93883054 -220.234375 215.9140625 C-264.41482394 236.04666204 -305.83177761 263.87229399 -343 295 C-343.50450684 295.41958984 -344.00901367 295.83917969 -344.52880859 296.27148438 C-351.9752453 302.46742624 -359.2020119 308.84967032 -366.29907227 315.44262695 C-368.42196742 317.38635427 -370.57654246 319.29335571 -372.7265625 321.20703125 C-378.05134376 325.99301609 -383.13751821 330.98922852 -388.1875 336.0625 C-389.03763672 336.90876953 -389.88777344 337.75503906 -390.76367188 338.62695312 C-395.1662047 343.03628523 -399.42200859 347.51126811 -403.48266602 352.23754883 C-405.55766493 354.64775271 -407.71707305 356.97656224 -409.875 359.3125 C-414.7957178 364.71491457 -419.42792553 370.30168859 -424 376 C-424.91225289 377.12020516 -425.82503803 378.23997705 -426.73828125 379.359375 C-444.0938333 400.71983007 -459.93938375 423.33480863 -474 447 C-474.7223249 448.19030531 -475.44500202 449.38039692 -476.16796875 450.5703125 C-490.21627556 473.8701572 -502.32088901 497.99705466 -513 523 C-513.26554687 523.62090515 -513.53109375 524.2418103 -513.8046875 524.88153076 C-534.31048532 572.9846096 -548.01297394 623.95433517 -554.59130859 675.82226562 C-554.96988043 678.76580867 -555.3804271 681.70281081 -555.80078125 684.640625 C-558.76830875 706.73729129 -559.57120639 728.61556674 -561 751 C-665.94 751 -770.88 751 -879 751 C-879 740.4475039 -878.96796721 730.06870294 -878.3125 719.5625 C-878.27220673 718.9086734 -878.23191345 718.2548468 -878.19039917 717.58120728 C-877.39819263 705.0699932 -876.04965137 692.63319452 -874.5625 680.1875 C-874.40764633 678.88511887 -874.40764633 678.88511887 -874.24966431 677.556427 C-868.31870601 628.11654445 -857.3434714 579.3521875 -842 532 C-841.5968457 530.75105957 -841.19369141 529.50211914 -840.77832031 528.21533203 C-830.18377753 495.57771567 -816.97313582 463.86441375 -802 433 C-801.46810059 431.89914062 -800.93620117 430.79828125 -800.38818359 429.6640625 C-792.8349313 414.09951018 -784.68446535 398.95976595 -776 384 C-775.15072082 382.52101753 -774.30174135 381.04186289 -773.453125 379.5625 C-763.43693383 362.2108501 -752.54164064 345.3731279 -741 329 C-740.58830566 328.41347656 -740.17661133 327.82695313 -739.75244141 327.22265625 C-727.13161857 309.26859857 -713.87387393 291.75943107 -699.609375 275.078125 C-697.22527908 272.28333811 -694.92194485 269.42948955 -692.625 266.5625 C-688.54908898 261.54824976 -684.21147206 256.81957713 -679.77978516 252.12133789 C-677.07250356 249.24932752 -674.42618806 246.34778271 -671.85766602 243.35058594 C-667.783346 238.68460699 -663.45076325 234.3067429 -659.06640625 229.93359375 C-658.22963852 229.09586929 -657.39287079 228.25814484 -656.53074646 227.39503479 C-654.77131896 225.63493065 -653.01064347 223.87607323 -651.2487793 222.1184082 C-648.57030589 219.44529028 -645.89721127 216.76687749 -643.22460938 214.08789062 C-641.50552885 212.36947097 -639.78613811 210.65136158 -638.06640625 208.93359375 C-637.27657852 208.14174179 -636.48675079 207.34988983 -635.67298889 206.53404236 C-631.47498296 202.35350289 -627.20002544 198.32676971 -622.70477295 194.46665955 C-620.31332865 192.40923917 -618.00455766 190.26548561 -615.6875 188.125 C-610.80112002 183.67311345 -605.76464457 179.4669687 -600.61962891 175.31933594 C-598.81015192 173.84535137 -597.01966395 172.35009746 -595.23046875 170.8515625 C-584.44102896 161.835235 -573.33117464 153.32293774 -562 145 C-561.20883789 144.41798828 -560.41767578 143.83597656 -559.60253906 143.23632812 C-549.57897694 135.88042789 -539.43247302 128.76343549 -529 122 C-528.20674316 121.48356934 -527.41348633 120.96713867 -526.59619141 120.43505859 C-506.05527456 107.09533488 -484.9345472 94.85904544 -463.35986328 83.27392578 C-461.3238617 82.17483037 -459.29827215 81.06005868 -457.27734375 79.93359375 C-407.86862535 52.76163495 -353.05001073 33.36262003 -298.6875 19.0625 C-297.86540039 18.84622955 -297.04330078 18.62995911 -296.19628906 18.40713501 C-272.40946671 12.17232495 -248.51797341 7.36579291 -224.22607422 3.51855469 C-221.55357208 3.08898041 -218.88765532 2.6373467 -216.22265625 2.1640625 C-205.10508756 0.22521743 -193.90560205 -0.94170277 -182.6875 -2.125 C-181.86934814 -2.21153839 -181.05119629 -2.29807678 -180.20825195 -2.38723755 C-120.43883622 -8.66632506 -59.58652578 -7.66877327 0 0 Z " fill="#FEFEFE" transform="translate(1424,412)"/>
<path d="M0 0 C12.87 0 25.74 0 39 0 C39.12117188 2.76503906 39.24234375 5.53007813 39.3671875 8.37890625 C41.25189415 50.71768096 45.77781476 91.61439893 55 133 C55.22155762 133.99692871 55.44311523 134.99385742 55.67138672 136.02099609 C59.26586721 151.90796263 64.42409517 167.32084152 69.58984375 182.75390625 C70.48462946 185.42779629 71.34423577 188.10428109 72.18359375 190.796875 C92.6162902 255.8898447 129.07722528 318.86778532 172.546875 371.24267578 C174.63615921 373.76933367 176.68971268 376.32467907 178.75 378.875 C182.26667782 383.17101484 185.91834282 387.32063937 189.6640625 391.41796875 C191.57366202 393.52874681 193.44943363 395.66041116 195.31640625 397.80859375 C198.89836044 401.91095773 202.58187398 405.90783331 206.3125 409.875 C206.96549072 410.56972412 207.61848145 411.26444824 208.29125977 411.98022461 C215.16136811 419.26495952 222.0638151 426.45339654 229.68359375 432.96484375 C232.1683425 435.14790293 234.57822682 437.39858444 236.98876953 439.6628418 C242.52498759 444.86036485 248.11741417 449.89393134 254.05078125 454.640625 C256.25392869 456.40314295 258.43494631 458.18251758 260.60546875 459.984375 C295.54314733 488.90361782 334.54451619 512.69252473 375 533 C376.45889648 533.73645752 376.45889648 533.73645752 377.94726562 534.48779297 C464.1752123 577.76609538 563.01511804 597.27683093 689 592 C690.88410213 591.8657106 692.76821557 591.73157963 694.65234375 591.59765625 C706.18169589 590.71724867 717.61631207 589.16996039 729.0625 587.5625 C730.18079697 587.40737442 730.18079697 587.40737442 731.32168579 587.24911499 C739.63239216 586.08779809 747.78199249 584.70821789 755.94458008 582.72583008 C758.94878676 582.01216596 761.95620827 581.39924107 764.98828125 580.81640625 C816.59151125 570.71041527 866.08794786 551.39723904 913 528 C914.44415283 527.28094482 914.44415283 527.28094482 915.91748047 526.54736328 C953.85054934 507.52259676 989.48120255 483.23389772 1022 456 C1022.50450684 455.58041016 1023.00901367 455.16082031 1023.52880859 454.72851562 C1031.05556931 448.46573872 1038.36460311 442.01208527 1045.53808594 435.34863281 C1046.95512223 434.04140026 1048.38750337 432.75086261 1049.8203125 431.4609375 C1055.9811878 425.90439875 1061.93528077 420.16873598 1067.8125 414.3125 C1068.51785889 413.6117334 1069.22321777 412.9109668 1069.94995117 412.18896484 C1073.9248188 408.2023747 1077.71809793 404.11403967 1081.39428711 399.85083008 C1083.66106401 397.23802246 1086.01732176 394.71864106 1088.375 392.1875 C1093.49000206 386.64340173 1098.28724722 380.89094098 1103 375 C1103.91076019 373.88094186 1104.82225476 372.76248112 1105.734375 371.64453125 C1131.3250882 340.15553885 1153.1728415 305.91983195 1172 270 C1172.51771973 269.01515625 1173.03543945 268.0303125 1173.56884766 267.015625 C1186.85330442 241.56888679 1197.62949152 215.24926743 1206.93164062 188.11132812 C1207.9030834 185.28224524 1208.89387192 182.4608624 1209.890625 179.640625 C1215.11283781 164.66652256 1219.09968661 149.35964122 1223 134 C1223.24492188 133.05640625 1223.48984375 132.1128125 1223.7421875 131.140625 C1232.97260088 95.30490246 1236.30583123 57.73359323 1238.5703125 20.91015625 C1239.00389889 13.93729882 1239.50224495 6.96857071 1240 0 C1344.94 0 1449.88 0 1558 0 C1558 20.01438884 1558 20.01438884 1557.64453125 26.6171875 C1557.60157425 27.43758514 1557.55861725 28.25798279 1557.51435852 29.10324097 C1556.92109238 39.47653696 1555.8150029 49.79856656 1554.6875 60.125 C1554.52134689 61.66688995 1554.52134689 61.66688995 1554.35183716 63.2399292 C1552.65898428 78.90136439 1550.76466668 94.4860431 1548 110 C1547.84708496 110.86947266 1547.69416992 111.73894531 1547.53662109 112.63476562 C1542.15706979 142.87840993 1535.28382318 172.71965583 1526 202 C1525.66295044 203.06752502 1525.66295044 203.06752502 1525.3190918 204.15661621 C1505.00586129 268.48866494 1478.467895 329.49456272 1443 387 C1442.45569336 387.88333008 1441.91138672 388.76666016 1441.35058594 389.67675781 C1434.54876539 400.67338533 1427.44553192 411.42921707 1420 422 C1419.56945313 422.61214355 1419.13890625 423.22428711 1418.6953125 423.85498047 C1412.94341844 432.0143908 1407.04298255 440.05306405 1401 448 C1400.5978125 448.52980469 1400.195625 449.05960938 1399.78125 449.60546875 C1391.01630247 461.13685285 1381.82398195 472.28820371 1372.43261719 483.31298828 C1371.01400845 484.98350403 1369.60406198 486.66101042 1368.1953125 488.33984375 C1362.87035918 494.65670191 1357.39646765 500.80706855 1351.73046875 506.8203125 C1351.04150513 507.5516037 1350.3525415 508.2828949 1349.6427002 509.03634644 C1342.31939565 516.77234015 1334.82145973 524.33005746 1327.27880859 531.8515625 C1324.96983764 534.15509127 1322.66637223 536.46403136 1320.36328125 538.7734375 C1318.86750859 540.26855047 1317.37142636 541.76335381 1315.875 543.2578125 C1315.20090088 543.93393585 1314.52680176 544.6100592 1313.83227539 545.30667114 C1309.92170979 549.19822806 1305.90501736 552.91142289 1301.72529602 556.51281738 C1299.50714828 558.42483174 1297.34880749 560.39916373 1295.1875 562.375 C1290.87225424 566.26924618 1286.42908245 569.96654724 1281.91015625 573.62109375 C1279.33084805 575.72954837 1276.79040324 577.8733109 1274.25976562 580.03930664 C1267.9082192 585.47170007 1261.41017876 590.65651026 1254.73632812 595.68896484 C1252.92899644 597.05361208 1251.12848186 598.42694872 1249.328125 599.80078125 C1223.69298605 619.28479144 1196.72753125 636.66097697 1169 653 C1168.11231934 653.5264209 1167.22463867 654.0528418 1166.31005859 654.59521484 C1157.18676641 660.00206342 1148.01599653 665.16832483 1138.4765625 669.8046875 C1135.13356828 671.42973298 1131.82531897 673.11330208 1128.5234375 674.8203125 C1090.39899802 694.41759051 1050.53818789 709.09025006 1009.85675049 722.39129639 C1007.38008526 723.20322835 1004.90705103 724.02601191 1002.43359375 724.84765625 C955.18621245 740.37037932 904.0234808 749.65814684 854.50146484 753.69238281 C850.82235131 754.01560712 847.15820694 754.42170366 843.48828125 754.8359375 C796.16898521 759.92421081 746.86006277 758.77712979 699.65374756 753.30718994 C696.93994936 752.99304872 694.22523508 752.68801154 691.51025391 752.38427734 C673.65616486 750.37062034 655.79506828 748.24561001 638.18164062 744.64257812 C635.77855186 744.15723976 633.37465275 743.68512826 630.96679688 743.22460938 C585.35438994 734.4977691 540.08392627 722.51467015 497 705 C495.92443848 704.56751953 494.84887695 704.13503906 493.74072266 703.68945312 C457.0874299 688.92076421 420.86834276 672.31741262 387.03491211 651.81762695 C384.7562019 650.45289382 382.47018653 649.10987114 380.17016602 647.78198242 C369.53515436 641.62838586 359.25921059 635.03969602 349.0625 628.1875 C348.27728973 627.66186462 347.49207947 627.13622925 346.68307495 626.59466553 C335.28432418 618.96322602 323.95632766 611.25971811 313 603 C312.43490723 602.57686523 311.86981445 602.15373047 311.28759766 601.71777344 C302.61906545 595.21068627 294.22303087 588.36716417 285.83789062 581.50146484 C284.19344437 580.15803439 282.54246048 578.82261569 280.890625 577.48828125 C275.55838114 573.17277881 270.39219161 568.7242176 265.3203125 564.10546875 C263.29845816 562.27082315 261.25321478 560.47231214 259.1875 558.6875 C247.53480558 548.4942578 236.52568125 537.68435707 225.59570312 526.72607422 C223.11181551 524.23678685 220.62257317 521.75294298 218.1328125 519.26953125 C216.52832482 517.66438331 214.92414708 516.0589255 213.3203125 514.453125 C212.58789337 513.7227301 211.85547424 512.99233521 211.1008606 512.23980713 C206.53377499 507.65210485 202.22099272 502.90618174 198 498 C196.54554483 496.39231627 195.08779105 494.78760285 193.625 493.1875 C189.73075382 488.87225424 186.03345276 484.42908245 182.37890625 479.91015625 C180.27063363 477.33107069 178.12711626 474.79080984 175.96118164 472.26049805 C156.69110642 449.72772899 139.28795906 425.20764244 123.39746094 400.19335938 C121.97519289 397.96106445 120.53928289 395.73799307 119.1015625 393.515625 C112.33888461 383.00395022 106.08699357 372.25989007 100.0078125 361.33984375 C98.11836591 357.94673789 96.1606586 354.61861697 94.1171875 351.31640625 C90.35786534 345.10017526 87.21012503 338.58790647 84.01605225 332.06964111 C83.04152733 330.08458883 82.05885215 328.10383603 81.07275391 326.12451172 C71.25073618 306.39036745 62.22137905 286.45162193 54 266 C53.55994629 264.91799316 53.11989258 263.83598633 52.66650391 262.72119141 C41.87760358 236.09476523 33.11747819 208.53378739 25.74267578 180.77539062 C25.02386648 178.08918939 24.27863915 175.4116459 23.52734375 172.734375 C15.41220146 143.35447924 10.03611711 113.18854955 6 83 C5.85224121 81.90606934 5.70448242 80.81213867 5.55224609 79.68505859 C3.67632117 65.49989188 2.45422658 51.25955154 1.3125 37 C1.24560974 36.18714539 1.17871948 35.37429077 1.10980225 34.5368042 C0.91549725 32.15008617 0.73170389 29.76276626 0.55078125 27.375 C0.494702 26.69740631 0.43862274 26.01981262 0.38084412 25.32168579 C-0.23319678 16.85390816 0 8.55416669 0 0 Z " fill="#FEFEFE" transform="translate(263,1203)"/>
<path d="M0 0 C13.53 0 27.06 0 41 0 C41.0825 5.15625 41.165 10.3125 41.25 15.625 C43.36918148 102.65565706 70.49023923 187.70164492 124 257 C125.12148438 258.4540625 125.12148438 258.4540625 126.265625 259.9375 C128.14478547 262.32082548 130.05854672 264.66718658 132 267 C133.25683594 268.5159375 133.25683594 268.5159375 134.5390625 270.0625 C148.43360101 286.71460054 163.24944036 303.57390043 180.390625 316.94921875 C182.81480792 318.85445233 185.14486855 320.8424554 187.46899414 322.86767578 C195.8856933 330.16893986 204.8725996 336.62236296 214 343 C214.62068359 343.43666992 215.24136719 343.87333984 215.88085938 344.32324219 C257.07794717 373.15205889 305.10609811 394.58514034 354.48974609 404.49414062 C357.00461999 405.00093101 359.51192367 405.53662642 362.01953125 406.078125 C412.7945875 416.87646263 471.42097547 419.37627095 522 406 C523.57213841 405.67719707 525.14657713 405.36547778 526.72265625 405.0625 C586.58191511 393.31828442 643.51495288 364.87939445 691 327 C692.010625 326.20207031 693.02125 325.40414063 694.0625 324.58203125 C699.95822549 319.85037656 705.55011553 314.83687593 711.0859375 309.6953125 C713.75932527 307.222608 716.46536833 304.79373619 719.1875 302.375 C725.82832536 296.40464259 732.14825737 290.17290995 737.953125 283.3828125 C739.54914793 281.52484687 741.16381297 279.69218311 742.796875 277.8671875 C766.85388064 250.81009641 785.8072057 220.28404766 802 188 C802.38140137 187.24122559 802.76280273 186.48245117 803.15576172 185.70068359 C819.66645483 152.5498913 830.20462029 116.93745642 836.3125 80.5 C836.49729416 79.40810867 836.49729416 79.40810867 836.68582153 78.29415894 C841.06712209 52.12884992 841.37994671 26.66229168 842 0 C934.07 0 1026.14 0 1121 0 C1121 29.15665829 1121 29.15665829 1120.25 38.125 C1120.16274658 39.22150879 1120.07549316 40.31801758 1119.9855957 41.44775391 C1118.80767366 55.35798683 1117.01235543 69.18840466 1115 83 C1114.82629883 84.19850586 1114.65259766 85.39701172 1114.47363281 86.63183594 C1111.41976635 107.1395935 1106.48335505 127.03009089 1101 147 C1100.68506592 148.15612793 1100.37013184 149.31225586 1100.0456543 150.50341797 C1097.34601626 160.20033348 1094.19476383 169.7290877 1090.9375 179.25 C1090.65276825 180.0824826 1090.3680365 180.91496521 1090.07467651 181.77267456 C1073.46004134 230.14455078 1049.82982684 277.66103098 1019.52148438 318.92529297 C1017.88177612 321.16121093 1016.26100281 323.41019607 1014.640625 325.66015625 C1006.82651718 336.45304436 998.61741191 346.83898613 990 357 C989.46020508 357.6388916 988.92041016 358.2777832 988.36425781 358.93603516 C976.99741003 372.35167951 964.9669657 385.10422994 952.5625 397.5625 C951.82942627 398.30024658 951.09635254 399.03799316 950.34106445 399.7980957 C946.28652995 403.8406577 942.13488715 407.70573441 937.79760742 411.44311523 C935.43617066 413.48832537 933.1596161 415.61965059 930.875 417.75 C925.67067822 422.49553859 920.23012749 426.84639408 914.66015625 431.15234375 C912.2044946 433.05165994 909.77755417 434.9801313 907.37109375 436.94140625 C898.20686917 444.40710499 888.74906226 451.31850223 879 458 C878.30600098 458.47904785 877.61200195 458.9580957 876.89697266 459.45166016 C854.59860381 474.8002928 831.19394545 487.93142392 807 500 C806.03578125 500.48339844 805.0715625 500.96679688 804.078125 501.46484375 C782.94603842 512.00034934 760.89296143 520.27374477 738.62939453 528.07617188 C736.46596327 528.83628551 734.30828419 529.60964959 732.15234375 530.390625 C707.1271749 539.171386 681.05531431 544.38866294 655 549 C653.80890625 549.21140625 652.6178125 549.4228125 651.390625 549.640625 C622.13595768 554.72242167 592.98629315 556.56898037 563.35045624 556.44662857 C560.95655428 556.43733127 558.5626789 556.43295708 556.16876221 556.42929077 C532.63179033 556.37912113 509.35971619 555.73096884 486.03582764 552.29748535 C483.98639533 551.99801202 481.93535772 551.71349739 479.88330078 551.43261719 C454.2976461 547.90061396 428.71392122 542.55334414 404 535 C403.09749512 534.72607422 402.19499023 534.45214844 401.26513672 534.16992188 C355.16759201 520.0703921 311.22850384 501.02127529 270 476 C269.24831543 475.5467334 268.49663086 475.0934668 267.72216797 474.62646484 C252.26445671 465.27568111 237.27544847 455.07311814 223 444 C222.44505859 443.56977539 221.89011719 443.13955078 221.31835938 442.69628906 C210.819232 434.54123367 200.39893938 426.31041393 190.58203125 417.3359375 C188.47125319 415.42633798 186.33958884 413.55056637 184.19140625 411.68359375 C180.08904227 408.10163956 176.09216669 404.41812602 172.125 400.6875 C171.43027588 400.03450928 170.73555176 399.38151855 170.01977539 398.70874023 C162.71260301 391.8174715 155.50161688 384.89222163 148.96875 377.25 C146.92230507 374.91120579 144.81620284 372.63947171 142.69482422 370.36889648 C136.85588363 364.11496432 131.33822053 357.69068916 126 351 C125.07908815 349.87030792 124.15715889 348.74144468 123.234375 347.61328125 C101.38788645 320.78883661 82.68924695 291.59898181 66.20458984 261.21679688 C65.41006392 259.75463729 64.61100243 258.29493196 63.80712891 256.83789062 C23.6974672 184.06633262 -0.7119245 94.92446745 -0.0625 11.5625 C-0.0315625 5.8390625 -0.0315625 5.8390625 0 0 Z " fill="#FEFEFE" transform="translate(341,1203)"/>
<path d="M0 0 C1.08365845 -0.00066278 1.08365845 -0.00066278 2.18920898 -0.00133896 C24.81179814 -0.00858557 47.22005221 0.3819353 69.6875 3.25 C70.35287781 3.3325 71.01825562 3.415 71.70379639 3.5 C102.80851888 7.36059747 133.83885138 13.6454963 163.6875 23.25 C165.03406065 23.6772959 166.38074803 24.10419254 167.72753906 24.53076172 C231.04782208 44.64958584 289.96533 74.65627476 342.6875 115.25 C343.28900879 115.71116211 343.89051758 116.17232422 344.51025391 116.64746094 C357.26369312 126.4481677 369.39432865 136.90893808 381.17675781 147.85253906 C382.73324963 149.29231915 384.29903561 150.72137161 385.8671875 152.1484375 C395.62080702 161.04441875 405.33795013 170.09496105 413.890625 180.171875 C415.75734551 182.33077785 417.68625642 184.42535822 419.62817383 186.51660156 C425.24044693 192.56543786 430.53027462 198.80559936 435.6875 205.25 C436.60990375 206.38083957 437.53312196 207.51101515 438.45703125 208.640625 C455.42229301 229.47456379 471.10224372 251.79800427 484.46484375 275.11669922 C485.36307584 276.68394204 486.26764709 278.24755608 487.17578125 279.80908203 C518.6081148 333.96234166 542.33162418 393.95725127 552.2980957 455.95898438 C552.86055078 459.26812445 553.53999533 462.55136373 554.20776367 465.84057617 C558.15839716 485.68220564 560.37680773 506.05699752 561.375 526.25 C561.41125488 526.97558105 561.44750977 527.70116211 561.48486328 528.44873047 C561.85460988 537.7126001 561.6875 546.97824261 561.6875 556.25 C548.1575 556.25 534.6275 556.25 520.6875 556.25 C520.584375 551.856875 520.48125 547.46375 520.375 542.9375 C518.56929992 481.23775925 506.30369454 423.1716642 479.6875 367.25 C479.07285889 365.94482422 479.07285889 365.94482422 478.44580078 364.61328125 C465.81714677 337.91772423 449.41543047 313.05824028 430.6875 290.25 C430.24341797 289.70827148 429.79933594 289.16654297 429.34179688 288.60839844 C419.61635419 276.80492951 409.22631461 265.71023713 398.4375 254.875 C397.69298584 254.12581299 396.94847168 253.37662598 396.18139648 252.60473633 C391.51220148 247.94903161 386.71142941 243.51958941 381.6875 239.25 C381.05070312 238.70649902 380.41390625 238.16299805 379.7578125 237.60302734 C363.35293077 223.69939396 346.09133897 211.36737603 327.6875 200.25 C326.89069824 199.76708496 326.09389648 199.28416992 325.27294922 198.78662109 C302.86071387 185.31589164 279.22705939 174.24315085 254.6875 165.25 C253.78854004 164.91186279 252.88958008 164.57372559 251.96337891 164.2253418 C245.81643286 161.9357801 239.65030487 159.99838986 233.3125 158.3125 C232.35609619 158.05726563 231.39969238 157.80203125 230.41430664 157.5390625 C228.44430658 157.01740583 226.47335919 156.49931311 224.50146484 155.98486328 C222.74245159 155.52549924 220.98472376 155.06115069 219.22900391 154.58935547 C173.60384228 142.38383744 125.58048524 139.06898475 78.6875 144.25 C77.71280762 144.35183594 76.73811523 144.45367188 75.73388672 144.55859375 C-20.36120644 154.73503114 -116.20917742 202.04875156 -179.3125 276.25 C-180.15941406 277.20777344 -181.00632812 278.16554688 -181.87890625 279.15234375 C-200.89843588 300.75733562 -217.1204738 324.65252356 -230.98681641 349.84521484 C-232.18919599 352.02632699 -233.41074121 354.19538765 -234.63671875 356.36328125 C-269.1914227 418.47115839 -278.51822241 486.27317398 -280.3125 556.25 C-372.3825 556.25 -464.4525 556.25 -559.3125 556.25 C-559.3125 521.61501072 -559.3125 521.61501072 -558 510.1875 C-557.86392334 508.90278809 -557.72784668 507.61807617 -557.58764648 506.29443359 C-556.51855939 496.45143808 -555.25712506 486.64393643 -553.71728516 476.86376953 C-553.28414213 474.06688817 -552.88162824 471.26648243 -552.48046875 468.46484375 C-544.02477216 410.90141856 -524.28768092 356.07663367 -498.3125 304.25 C-497.58764404 302.7964209 -497.58764404 302.7964209 -496.84814453 301.31347656 C-470.16099642 248.09075803 -432.6765258 200.6713831 -390.8125 158.625 C-390.08337402 157.89120117 -389.35424805 157.15740234 -388.60302734 156.40136719 C-384.5699807 152.38031542 -380.43918672 148.53606511 -376.12548828 144.81787109 C-373.70200507 142.72204438 -371.35334691 140.54900943 -369 138.375 C-363.59593362 133.45818551 -358.03731413 128.78714873 -352.3125 124.25 C-351.66925781 123.73953125 -351.02601563 123.2290625 -350.36328125 122.703125 C-322.92998566 100.9998893 -294.08799032 82.09108915 -263.36181641 65.36865234 C-261.46853278 64.33517301 -259.58322425 63.28854519 -257.69921875 62.23828125 C-194.37289377 27.27282574 -120.18127922 7.13866942 -48.3125 1.25 C-47.17433838 1.1557373 -46.03617676 1.06147461 -44.86352539 0.96435547 C-29.93310556 -0.0893791 -14.96020623 0.00419347 0 0 Z " fill="#FEFEFE" transform="translate(1463.3125,606.75)"/>
</svg>
