<?xml version="1.0" encoding="UTF-8"?>
<svg version="1.1" xmlns="http://www.w3.org/2000/svg" width="320" height="310">
<path d="M0 0 C14.31002698 10.47484387 20.23721555 24.50996502 23.58203125 41.45703125 C24.33674963 46.76773059 24.76017706 51.97300548 24.8203125 57.33984375 C24.83010635 58.06801804 24.83990021 58.79619232 24.84999084 59.5464325 C25.02519339 75.95561692 24.58832008 91.45307322 20.58203125 107.45703125 C20.36240723 108.38725098 20.1427832 109.3174707 19.91650391 110.27587891 C10.25211306 151.16999984 -7.87434419 190.71696454 -34.41796875 223.45703125 C-35.1553125 224.38644531 -35.89265625 225.31585938 -36.65234375 226.2734375 C-50.33629039 243.32984616 -65.89025818 260.30499736 -83.41796875 273.45703125 C-83.9485791 273.86405273 -84.47918945 274.27107422 -85.02587891 274.69042969 C-126.5397092 306.50476692 -126.5397092 306.50476692 -152.41796875 304.45703125 C-162.86799615 302.04654 -171.16145706 294.93666892 -177.41796875 286.45703125 C-186.79559577 270.82765289 -181.90726363 250.43770929 -179.93359375 233.26171875 C-179.67338956 230.93897683 -179.41394511 228.6161497 -179.1552124 226.29324341 C-178.61272555 221.43979139 -178.06422799 216.58707312 -177.51074219 211.73486328 C-176.81234483 205.61197732 -176.12415059 199.48800503 -175.43991852 193.36352158 C-170.97690237 153.43373137 -170.97690237 153.43373137 -169.13476562 139.54003906 C-169.03822063 138.81038752 -168.94167564 138.08073597 -168.84220505 137.32897377 C-168.41619741 134.13024771 -167.97827778 130.93379013 -167.52203369 127.73922729 C-165.44513513 112.66074034 -165.3206462 100.15537731 -174.41796875 87.45703125 C-179.8654829 80.44335678 -187.02282861 76.85976769 -195.54296875 74.64453125 C-196.49171875 74.58265625 -197.44046875 74.52078125 -198.41796875 74.45703125 C-199.05734375 74.40675781 -199.69671875 74.35648437 -200.35546875 74.3046875 C-210.90707167 73.8336338 -221.10815813 76.91305539 -229.41796875 83.45703125 C-236.63242878 90.68703968 -240.46694565 101.00961686 -240.66796875 111.14453125 C-240.53039369 120.40333296 -237.66717677 127.64110584 -231.41796875 134.45703125 C-228.15605587 137.50148328 -224.71659081 139.92571535 -220.98046875 142.33203125 C-214.58154235 146.55122218 -208.06608606 151.57787391 -206.41796875 159.45703125 C-205.14729105 169.11677497 -206.94918647 176.39904674 -212.41796875 184.45703125 C-217.20429288 190.22341223 -223.26304899 192.69922998 -230.5703125 193.7734375 C-244.01137186 194.52691461 -255.92136188 186.55377665 -265.60546875 178.08203125 C-282.46952088 162.28532419 -294.62417642 141.96795893 -295.80078125 118.4765625 C-296.28454701 101.21258376 -293.99066158 86.11169156 -286.41796875 70.45703125 C-285.75667969 69.07451172 -285.75667969 69.07451172 -285.08203125 67.6640625 C-281.41653034 60.48494609 -276.74990226 54.47786945 -271.41796875 48.45703125 C-270.86496094 47.82023437 -270.31195313 47.1834375 -269.7421875 46.52734375 C-255.14691259 30.80935539 -231.76105002 21.01348385 -210.50390625 20.21875 C-181.7587105 19.6548212 -159.12134479 26.34428325 -137.82421875 46.125 C-120.96501647 62.46419442 -111.61986543 82.45644061 -111.08203125 106.140625 C-111.04040374 109.05889032 -111.03490729 111.97600978 -111.04296875 114.89453125 C-111.04384491 115.67768707 -111.04472107 116.4608429 -111.04562378 117.26773071 C-111.1267898 139.60186856 -114.10874651 161.44001168 -117.27734375 183.51171875 C-117.51812904 185.18942101 -117.51812904 185.18942101 -117.76377869 186.90101624 C-118.56597025 192.46999727 -119.38106036 198.03662229 -120.21899414 203.6003418 C-120.37180847 204.63131989 -120.5246228 205.66229797 -120.68206787 206.72451782 C-120.97096751 208.67239086 -121.26542564 210.61945001 -121.56622314 212.56552124 C-121.69365906 213.43149933 -121.82109497 214.29747742 -121.95239258 215.18969727 C-122.06690262 215.94493179 -122.18141266 216.70016632 -122.2993927 217.47828674 C-122.55397146 219.66970553 -122.55397146 219.66970553 -121.41796875 222.45703125 C-117.90269636 223.40738105 -116.15626165 223.87462817 -112.91796875 222.04296875 C-112.09296875 221.31335938 -111.26796875 220.58375 -110.41796875 219.83203125 C-109.474375 219.00574219 -108.53078125 218.17945313 -107.55859375 217.328125 C-106.51056751 216.37235459 -105.46375748 215.4152494 -104.41796875 214.45703125 C-103.22527626 213.38539904 -102.03256735 212.31378509 -100.83984375 211.2421875 C-94.64651724 205.62747627 -88.67414187 199.97378551 -83.41796875 193.45703125 C-82.5080106 192.35921077 -81.59783282 191.26157231 -80.6875 190.1640625 C-56.38990594 160.60701178 -39.20545763 126.15421284 -31.82910156 88.50048828 C-31.0858425 84.80626124 -30.24755705 81.13267182 -29.41796875 77.45703125 C-30.08280273 77.28864746 -30.74763672 77.12026367 -31.43261719 76.94677734 C-42.72879897 74.00472255 -53.53860467 67.46599971 -60.23046875 57.70703125 C-65.49403829 48.46021989 -67.03078846 37.71016396 -64.7265625 27.34765625 C-61.31142413 16.08770214 -54.66835146 5.74388992 -44.37890625 -0.33984375 C-30.4569245 -7.45326508 -13.60588758 -8.68227075 0 0 Z " fill="#FB0E39" transform="translate(295.41796875,5.54296875)"/>
</svg>
