<?xml version="1.0" encoding="UTF-8"?>
<!DOCTYPE svg PUBLIC "-//W3C//DTD SVG 1.1//EN" "http://www.w3.org/Graphics/SVG/1.1/DTD/svg11.dtd">
<svg xmlns="http://www.w3.org/2000/svg" version="1.1" width="128px" height="128px" style="shape-rendering:geometricPrecision; text-rendering:geometricPrecision; image-rendering:optimizeQuality; fill-rule:evenodd; clip-rule:evenodd" xmlns:xlink="http://www.w3.org/1999/xlink">
<g><path style="opacity:1" fill="#897a52" d="M 16.5,-0.5 C 19.1667,-0.5 21.8333,-0.5 24.5,-0.5C 24.6107,0.117425 24.944,0.617425 25.5,1C 22.5575,2.45906 22.2241,4.12573 24.5,6C 23.8487,7.30804 24.5154,8.14138 26.5,8.5C 26.5,9.83333 26.5,11.1667 26.5,12.5C 29.7387,12.4129 32.7387,13.0795 35.5,14.5C 35.33,13.1779 35.6634,12.0113 36.5,11C 35.451,10.5078 34.451,10.6744 33.5,11.5C 32.7025,11.0431 32.3691,10.3764 32.5,9.5C 32.5,8.16667 32.5,6.83333 32.5,5.5C 30.8333,5.5 29.1667,5.5 27.5,5.5C 27.67,4.17793 27.3366,3.01127 26.5,2C 27.5707,1.14825 28.5707,0.314913 29.5,-0.5C 30.5,-0.5 31.5,-0.5 32.5,-0.5C 31.5661,1.23852 31.5661,2.90519 32.5,4.5C 35.8099,7.89503 39.4765,10.0617 43.5,11C 41.6652,11.9277 41.3318,13.0944 42.5,14.5C 40.6471,15.7596 38.8138,15.7596 37,14.5C 36.4209,15.9285 36.5876,17.2618 37.5,18.5C 36.8333,19.1667 36.1667,19.8333 35.5,20.5C 34.9423,19.2101 33.9423,18.3768 32.5,18C 32.8333,17.6667 33.1667,17.3333 33.5,17C 31.9262,16.3013 30.5929,16.6346 29.5,18C 32.8064,19.5369 33.3064,21.7035 31,24.5C 28.9883,21.1381 26.9883,17.8047 25,14.5C 23.7949,15.0712 22.6283,15.7379 21.5,16.5C 24.0239,18.8308 24.6905,21.4974 23.5,24.5C 21.6023,22.7504 20.269,20.5837 19.5,18C 16.9693,17.5522 14.6359,16.7189 12.5,15.5C 12.631,14.7611 12.4643,14.0944 12,13.5C 10.9887,14.3366 9.82207,14.67 8.5,14.5C 9.23411,13.2921 9.56745,11.9587 9.5,10.5C 11.2624,10.6427 12.9291,10.3094 14.5,9.5C 14.4895,10.4415 14.9895,11.1081 16,11.5C 21.8991,9.3508 21.2325,7.01747 14,4.5C 12.3566,5.31461 10.8566,6.31461 9.5,7.5C 10.4338,4.36435 12.6005,2.69769 16,2.5C 16.4828,1.55198 16.6495,0.551975 16.5,-0.5 Z"/></g>
<g><path style="opacity:1" fill="#9a6d33" d="M -0.5,-0.5 C -0.166667,-0.5 0.166667,-0.5 0.5,-0.5C 2.50019,1.67098 4.33353,4.00432 6,6.5C 5.19626,4.17246 5.36292,1.83913 6.5,-0.5C 7.16667,-0.5 7.83333,-0.5 8.5,-0.5C 9.47508,3.26545 10.8084,3.26545 12.5,-0.5C 13.8333,-0.5 15.1667,-0.5 16.5,-0.5C 16.6495,0.551975 16.4828,1.55198 16,2.5C 12.6005,2.69769 10.4338,4.36435 9.5,7.5C 7.39103,7.72375 5.72436,9.22375 4.5,12C 2.86586,12.4935 1.19919,12.6602 -0.5,12.5C -0.5,8.16667 -0.5,3.83333 -0.5,-0.5 Z"/></g>
<g><path style="opacity:1" fill="#594628" d="M 0.5,-0.5 C 2.5,-0.5 4.5,-0.5 6.5,-0.5C 5.36292,1.83913 5.19626,4.17246 6,6.5C 4.33353,4.00432 2.50019,1.67098 0.5,-0.5 Z"/></g>
<g><path style="opacity:1" fill="#e2ba80" d="M 8.5,-0.5 C 9.83333,-0.5 11.1667,-0.5 12.5,-0.5C 10.8084,3.26545 9.47508,3.26545 8.5,-0.5 Z"/></g>
<g><path style="opacity:1" fill="#5d5029" d="M 24.5,-0.5 C 26.1667,-0.5 27.8333,-0.5 29.5,-0.5C 28.5707,0.314913 27.5707,1.14825 26.5,2C 27.3366,3.01127 27.67,4.17793 27.5,5.5C 29.1667,5.5 30.8333,5.5 32.5,5.5C 32.5,6.83333 32.5,8.16667 32.5,9.5C 30.8621,8.8411 29.1955,8.17444 27.5,7.5C 26.8933,7.62358 26.56,7.95691 26.5,8.5C 24.5154,8.14138 23.8487,7.30804 24.5,6C 22.2241,4.12573 22.5575,2.45906 25.5,1C 24.944,0.617425 24.6107,0.117425 24.5,-0.5 Z"/></g>
<g><path style="opacity:1" fill="#624b21" d="M 8.5,14.5 C 7.16667,14.5 6.5,15.1667 6.5,16.5C 5.83333,17.8333 5.16667,19.1667 4.5,20.5C 2.14678,19.1349 0.48011,17.1349 -0.5,14.5C -0.5,13.8333 -0.5,13.1667 -0.5,12.5C 1.19919,12.6602 2.86586,12.4935 4.5,12C 5.72436,9.22375 7.39103,7.72375 9.5,7.5C 10.8566,6.31461 12.3566,5.31461 14,4.5C 21.2325,7.01747 21.8991,9.3508 16,11.5C 14.9895,11.1081 14.4895,10.4415 14.5,9.5C 12.9291,10.3094 11.2624,10.6427 9.5,10.5C 9.56745,11.9587 9.23411,13.2921 8.5,14.5 Z"/></g>
<g><path style="opacity:1" fill="#35341c" d="M 72.5,-0.5 C 77.5,-0.5 82.5,-0.5 87.5,-0.5C 87.2189,1.96285 86.2189,4.12952 84.5,6C 85.694,8.65777 84.694,9.82444 81.5,9.5C 81.67,10.8221 81.3366,11.9887 80.5,13C 81.3333,13.8333 82.1667,14.6667 83,15.5C 83.6172,14.5509 83.4506,13.7175 82.5,13C 84.3869,12.2204 86.0536,12.3871 87.5,13.5C 85.5,13.5 84.5,14.5 84.5,16.5C 83.8902,17.391 83.5569,18.391 83.5,19.5C 81.3369,18.7194 81.0036,19.5528 82.5,22C 78.6265,21.5404 74.9599,21.7071 71.5,22.5C 69.8067,20.4331 69.14,18.2664 69.5,16C 70.2064,13.3805 71.2064,10.8805 72.5,8.5C 71.4233,5.52579 71.4233,2.52579 72.5,-0.5 Z"/></g>
<g><path style="opacity:1" fill="#2a2b1d" d="M 87.5,-0.5 C 94.8333,-0.5 102.167,-0.5 109.5,-0.5C 109.162,2.1569 109.829,4.49024 111.5,6.5C 109.82,7.76893 108.653,9.43559 108,11.5C 107.417,9.99842 106.584,8.66508 105.5,7.5C 105.104,11.2634 104.104,14.5968 102.5,17.5C 101.07,17.4208 99.7362,17.7542 98.5,18.5C 97.912,16.0891 96.7454,14.0891 95,12.5C 94.6667,13.5 94.3333,14.5 94,15.5C 92.2528,13.0815 90.0862,12.4148 87.5,13.5C 86.0536,12.3871 84.3869,12.2204 82.5,13C 83.4506,13.7175 83.6172,14.5509 83,15.5C 82.1667,14.6667 81.3333,13.8333 80.5,13C 81.3366,11.9887 81.67,10.8221 81.5,9.5C 84.694,9.82444 85.694,8.65777 84.5,6C 86.2189,4.12952 87.2189,1.96285 87.5,-0.5 Z"/></g>
<g><path style="opacity:1" fill="#292a15" d="M 32.5,9.5 C 32.3691,10.3764 32.7025,11.0431 33.5,11.5C 34.451,10.6744 35.451,10.5078 36.5,11C 35.6634,12.0113 35.33,13.1779 35.5,14.5C 32.7387,13.0795 29.7387,12.4129 26.5,12.5C 26.5,11.1667 26.5,9.83333 26.5,8.5C 26.56,7.95691 26.8933,7.62358 27.5,7.5C 29.1955,8.17444 30.8621,8.8411 32.5,9.5 Z"/></g>
<g><path style="opacity:1" fill="#413d23" d="M 32.5,-0.5 C 33.1667,-0.5 33.8333,-0.5 34.5,-0.5C 35.3818,1.08432 36.2152,2.75099 37,4.5C 38.113,3.23965 38.2797,2.07298 37.5,1C 39.3817,0.801916 41.0484,0.301916 42.5,-0.5C 42.8333,-0.5 43.1667,-0.5 43.5,-0.5C 46.1073,3.77641 49.4406,7.44308 53.5,10.5C 53.8333,11.1667 54.1667,11.8333 54.5,12.5C 54.2528,13.7133 53.5862,14.38 52.5,14.5C 52.4207,13.0416 51.9207,11.7083 51,10.5C 49.3029,12.699 47.8029,15.0324 46.5,17.5C 47.1667,19.1667 47.8333,20.8333 48.5,22.5C 48,22.8333 47.5,23.1667 47,23.5C 45.6421,22.1913 44.3087,20.8579 43,19.5C 42.6667,20.1667 42.3333,20.8333 42,21.5C 41.2917,20.6195 40.4584,19.9528 39.5,19.5C 38.8333,19.1667 38.1667,18.8333 37.5,18.5C 36.5876,17.2618 36.4209,15.9285 37,14.5C 38.8138,15.7596 40.6471,15.7596 42.5,14.5C 41.3318,13.0944 41.6652,11.9277 43.5,11C 39.4765,10.0617 35.8099,7.89503 32.5,4.5C 31.5661,2.90519 31.5661,1.23852 32.5,-0.5 Z"/></g>
<g><path style="opacity:1" fill="#7a754d" d="M 34.5,-0.5 C 37.1667,-0.5 39.8333,-0.5 42.5,-0.5C 41.0484,0.301916 39.3817,0.801916 37.5,1C 38.2797,2.07298 38.113,3.23965 37,4.5C 36.2152,2.75099 35.3818,1.08432 34.5,-0.5 Z"/></g>
<g><path style="opacity:1" fill="#1d2217" d="M 109.5,-0.5 C 110.833,-0.5 112.167,-0.5 113.5,-0.5C 113.389,0.117425 113.056,0.617425 112.5,1C 115,2.16667 116.833,4 118,6.5C 122.474,5.23459 122.641,5.90126 118.5,8.5C 118.709,9.08605 119.043,9.58605 119.5,10C 118.061,10.9906 117.061,12.324 116.5,14C 117.167,14.3333 117.833,14.6667 118.5,15C 117.19,19.0021 117.19,22.5021 118.5,25.5C 119.672,25.0814 120.672,24.4147 121.5,23.5C 120.553,21.941 119.887,20.2743 119.5,18.5C 120.828,13.6757 122.828,9.17571 125.5,5C 124.293,2.97708 122.96,1.14374 121.5,-0.5C 123.5,-0.5 125.5,-0.5 127.5,-0.5C 127.5,11.8333 127.5,24.1667 127.5,36.5C 124.482,36.6646 121.482,36.498 118.5,36C 120.138,32.461 119.638,29.2943 117,26.5C 116.581,28.6797 116.748,30.8463 117.5,33C 117.316,34.3756 116.649,35.2089 115.5,35.5C 114.833,35.5 114.5,35.1667 114.5,34.5C 114.5,33.5 114.5,32.5 114.5,31.5C 111.795,31.6198 111.128,30.6198 112.5,28.5C 111.726,27.2888 110.893,27.2888 110,28.5C 109.508,27.451 109.674,26.451 110.5,25.5C 108.09,22.4236 105.424,19.7569 102.5,17.5C 104.104,14.5968 105.104,11.2634 105.5,7.5C 106.584,8.66508 107.417,9.99842 108,11.5C 108.653,9.43559 109.82,7.76893 111.5,6.5C 109.829,4.49024 109.162,2.1569 109.5,-0.5 Z"/></g>
<g><path style="opacity:1" fill="#313524" d="M 113.5,-0.5 C 116.167,-0.5 118.833,-0.5 121.5,-0.5C 122.96,1.14374 124.293,2.97708 125.5,5C 122.828,9.17571 120.828,13.6757 119.5,18.5C 119.887,20.2743 120.553,21.941 121.5,23.5C 120.672,24.4147 119.672,25.0814 118.5,25.5C 117.19,22.5021 117.19,19.0021 118.5,15C 117.833,14.6667 117.167,14.3333 116.5,14C 117.061,12.324 118.061,10.9906 119.5,10C 119.043,9.58605 118.709,9.08605 118.5,8.5C 122.641,5.90126 122.474,5.23459 118,6.5C 116.833,4 115,2.16667 112.5,1C 113.056,0.617425 113.389,0.117425 113.5,-0.5 Z"/></g>
<g><path style="opacity:1" fill="#635831" d="M 43.5,-0.5 C 44.1667,-0.5 44.8333,-0.5 45.5,-0.5C 45.811,0.477842 46.4777,1.14451 47.5,1.5C 48.7362,0.754152 50.0695,0.420818 51.5,0.5C 51.5,1.5 51.5,2.5 51.5,3.5C 52.8221,3.33003 53.9887,3.66337 55,4.5C 56.3513,2.98101 57.8513,1.64768 59.5,0.5C 59.8333,0.833333 60.1667,1.16667 60.5,1.5C 59.6533,2.84484 58.4866,3.84484 57,4.5C 56.3333,5.5 56.3333,6.5 57,7.5C 59.5728,6.19352 61.9061,4.52685 64,2.5C 64.677,4.68905 65.8437,5.02238 67.5,3.5C 68.8795,6.31787 68.7129,8.98453 67,11.5C 63.924,6.13638 61.0906,6.46971 58.5,12.5C 60.4511,13.2079 62.7845,13.8746 65.5,14.5C 65.7692,16.4286 65.2692,18.0953 64,19.5C 63.7216,18.5842 63.2216,17.9175 62.5,17.5C 58.2664,19.3858 54.2664,20.0525 50.5,19.5C 49.9569,19.44 49.6236,19.1067 49.5,18.5C 50.9095,17.4305 51.9095,16.0972 52.5,14.5C 53.5862,14.38 54.2528,13.7133 54.5,12.5C 54.1667,11.8333 53.8333,11.1667 53.5,10.5C 49.4406,7.44308 46.1073,3.77641 43.5,-0.5 Z"/></g>
<g><path style="opacity:1" fill="#b1b195" d="M 12.5,15.5 C 12.3383,18.6686 10.6716,20.6686 7.5,21.5C 6.54811,19.9547 6.21478,18.288 6.5,16.5C 6.5,15.1667 7.16667,14.5 8.5,14.5C 9.82207,14.67 10.9887,14.3366 12,13.5C 12.4643,14.0944 12.631,14.7611 12.5,15.5 Z"/></g>
<g><path style="opacity:1" fill="#6d603c" d="M 102.5,17.5 C 105.424,19.7569 108.09,22.4236 110.5,25.5C 109.674,26.451 109.508,27.451 110,28.5C 110.893,27.2888 111.726,27.2888 112.5,28.5C 111.128,30.6198 111.795,31.6198 114.5,31.5C 114.5,32.5 114.5,33.5 114.5,34.5C 113.833,34.1667 113.167,33.8333 112.5,33.5C 110.167,33.5 107.833,33.5 105.5,33.5C 105.167,32.1667 104.833,30.8333 104.5,29.5C 105.478,29.189 106.145,28.5223 106.5,27.5C 105.652,25.5914 105.318,23.5914 105.5,21.5C 101.714,20.9794 100.047,22.3127 100.5,25.5C 98.7103,28.047 97.0436,27.7137 95.5,24.5C 97.482,23.7838 99.1487,22.6171 100.5,21C 95.5569,18.263 90.2235,16.763 84.5,16.5C 84.5,14.5 85.5,13.5 87.5,13.5C 90.0862,12.4148 92.2528,13.0815 94,15.5C 94.3333,14.5 94.6667,13.5 95,12.5C 96.7454,14.0891 97.912,16.0891 98.5,18.5C 99.7362,17.7542 101.07,17.4208 102.5,17.5 Z"/></g>
<g><path style="opacity:1" fill="#322e15" d="M 62.5,17.5 C 62.9107,20.5534 63.5774,23.5534 64.5,26.5C 64.3764,27.1067 64.0431,27.44 63.5,27.5C 62.5084,27.3284 61.8417,27.6618 61.5,28.5C 61.44,29.0431 61.1067,29.3764 60.5,29.5C 60.0894,28.7376 59.9227,27.7376 60,26.5C 58.2894,27.5814 56.7894,27.248 55.5,25.5C 52.1742,25.0328 51.8409,23.8661 54.5,22C 53.2068,21.51 51.8734,21.3433 50.5,21.5C 50.5,20.8333 50.5,20.1667 50.5,19.5C 54.2664,20.0525 58.2664,19.3858 62.5,17.5 Z"/></g>
<g><path style="opacity:1" fill="#49401e" d="M 45.5,-0.5 C 54.5,-0.5 63.5,-0.5 72.5,-0.5C 71.4233,2.52579 71.4233,5.52579 72.5,8.5C 71.2064,10.8805 70.2064,13.3805 69.5,16C 69.14,18.2664 69.8067,20.4331 71.5,22.5C 70.8333,22.5 70.5,22.8333 70.5,23.5C 68.8606,25.8061 66.8606,27.8061 64.5,29.5C 63.6618,29.1583 63.3284,28.4916 63.5,27.5C 64.0431,27.44 64.3764,27.1067 64.5,26.5C 63.5774,23.5534 62.9107,20.5534 62.5,17.5C 63.2216,17.9175 63.7216,18.5842 64,19.5C 65.2692,18.0953 65.7692,16.4286 65.5,14.5C 62.7845,13.8746 60.4511,13.2079 58.5,12.5C 61.0906,6.46971 63.924,6.13638 67,11.5C 68.7129,8.98453 68.8795,6.31787 67.5,3.5C 65.8437,5.02238 64.677,4.68905 64,2.5C 61.9061,4.52685 59.5728,6.19352 57,7.5C 56.3333,6.5 56.3333,5.5 57,4.5C 58.4866,3.84484 59.6533,2.84484 60.5,1.5C 60.1667,1.16667 59.8333,0.833333 59.5,0.5C 57.8513,1.64768 56.3513,2.98101 55,4.5C 53.9887,3.66337 52.8221,3.33003 51.5,3.5C 51.5,2.5 51.5,1.5 51.5,0.5C 50.0695,0.420818 48.7362,0.754152 47.5,1.5C 46.4777,1.14451 45.811,0.477842 45.5,-0.5 Z"/></g>
<g><path style="opacity:1" fill="#be975f" d="M 37.5,18.5 C 38.1667,18.8333 38.8333,19.1667 39.5,19.5C 39.2964,21.6854 38.6298,23.6854 37.5,25.5C 36.9553,27.5932 36.122,29.5932 35,31.5C 33.955,30.6266 33.1217,29.6266 32.5,28.5C 32.3939,25.3855 33.3939,22.7188 35.5,20.5C 36.1667,19.8333 36.8333,19.1667 37.5,18.5 Z"/></g>
<g><path style="opacity:1" fill="#595435" d="M 12.5,15.5 C 14.6359,16.7189 16.9693,17.5522 19.5,18C 20.269,20.5837 21.6023,22.7504 23.5,24.5C 23.631,25.2389 23.4643,25.9056 23,26.5C 18.8339,25.5923 16.6672,22.9256 16.5,18.5C 15.7189,19.7287 15.2189,21.062 15,22.5C 13.8173,21.269 12.6507,21.269 11.5,22.5C 11.0702,25.2762 9.90353,27.6095 8,29.5C 7.5,29.3333 7,29.1667 6.5,29C 7.24008,27.2151 7.90674,25.3817 8.5,23.5C 7.2839,22.9041 5.95057,22.7374 4.5,23C 3.40191,22.2303 3.40191,21.397 4.5,20.5C 5.16667,19.1667 5.83333,17.8333 6.5,16.5C 6.21478,18.288 6.54811,19.9547 7.5,21.5C 10.6716,20.6686 12.3383,18.6686 12.5,15.5 Z"/></g>
<g><path style="opacity:1" fill="#797149" d="M 52.5,14.5 C 51.9095,16.0972 50.9095,17.4305 49.5,18.5C 49.6236,19.1067 49.9569,19.44 50.5,19.5C 50.5,20.1667 50.5,20.8333 50.5,21.5C 48.8968,24.5088 49.5635,27.5088 52.5,30.5C 50.8007,30.5271 49.4674,31.1938 48.5,32.5C 47.3466,30.1932 46.1799,27.8599 45,25.5C 44.1667,26.5 43.3333,27.5 42.5,28.5C 41.8133,26.7256 40.9799,25.0589 40,23.5C 39.5831,24.756 38.7498,25.4226 37.5,25.5C 38.6298,23.6854 39.2964,21.6854 39.5,19.5C 40.4584,19.9528 41.2917,20.6195 42,21.5C 42.3333,20.8333 42.6667,20.1667 43,19.5C 44.3087,20.8579 45.6421,22.1913 47,23.5C 47.5,23.1667 48,22.8333 48.5,22.5C 47.8333,20.8333 47.1667,19.1667 46.5,17.5C 47.8029,15.0324 49.3029,12.699 51,10.5C 51.9207,11.7083 52.4207,13.0416 52.5,14.5 Z"/></g>
<g><path style="opacity:1" fill="#312817" d="M 104.5,29.5 C 103.717,27.672 102.384,26.3387 100.5,25.5C 100.047,22.3127 101.714,20.9794 105.5,21.5C 105.318,23.5914 105.652,25.5914 106.5,27.5C 106.145,28.5223 105.478,29.189 104.5,29.5 Z"/></g>
<g><path style="opacity:1" fill="#363821" d="M -0.5,14.5 C 0.48011,17.1349 2.14678,19.1349 4.5,20.5C 3.40191,21.397 3.40191,22.2303 4.5,23C 5.95057,22.7374 7.2839,22.9041 8.5,23.5C 7.90674,25.3817 7.24008,27.2151 6.5,29C 7,29.1667 7.5,29.3333 8,29.5C 9.90353,27.6095 11.0702,25.2762 11.5,22.5C 12.6507,21.269 13.8173,21.269 15,22.5C 15.2189,21.062 15.7189,19.7287 16.5,18.5C 16.6672,22.9256 18.8339,25.5923 23,26.5C 23.4643,25.9056 23.631,25.2389 23.5,24.5C 24.5,24.5 25.5,24.5 26.5,24.5C 26.0509,27.2898 26.0509,29.9564 26.5,32.5C 27.086,32.7093 27.586,33.0426 28,33.5C 29.517,31.7605 31.017,30.0938 32.5,28.5C 33.1217,29.6266 33.955,30.6266 35,31.5C 36.122,29.5932 36.9553,27.5932 37.5,25.5C 38.7498,25.4226 39.5831,24.756 40,23.5C 40.9799,25.0589 41.8133,26.7256 42.5,28.5C 43.3333,27.5 44.1667,26.5 45,25.5C 46.1799,27.8599 47.3466,30.1932 48.5,32.5C 47.5,32.8333 46.8333,33.5 46.5,34.5C 39.1667,34.5 31.8333,34.5 24.5,34.5C 24.405,36.7857 23.7384,38.7857 22.5,40.5C 21.7459,36.5335 19.9126,35.8668 17,38.5C 17.214,33.1031 15.8806,32.4365 13,36.5C 13.0275,34.5826 13.8608,32.916 15.5,31.5C 14.821,29.4121 14.4877,27.4121 14.5,25.5C 10.7265,28.9611 8.55988,33.2945 8,38.5C 4.44229,34.2062 3.27563,34.5396 4.5,39.5C 3.16667,39.5 1.83333,39.5 0.5,39.5C 0.166667,39.5 -0.166667,39.5 -0.5,39.5C -0.5,31.1667 -0.5,22.8333 -0.5,14.5 Z"/></g>
<g><path style="opacity:1" fill="#a3a88a" d="M 50.5,21.5 C 51.8734,21.3433 53.2068,21.51 54.5,22C 51.8409,23.8661 52.1742,25.0328 55.5,25.5C 55.3601,27.1238 56.0267,28.2904 57.5,29C 56.0953,30.2692 54.4286,30.7692 52.5,30.5C 49.5635,27.5088 48.8968,24.5088 50.5,21.5 Z"/></g>
<g><path style="opacity:1" fill="#a27c47" d="M 70.5,23.5 C 71.5862,23.62 72.2528,24.2867 72.5,25.5C 71.1964,30.1081 68.8631,34.1081 65.5,37.5C 64.52,34.9135 64.1866,32.2469 64.5,29.5C 66.8606,27.8061 68.8606,25.8061 70.5,23.5 Z"/></g>
<g><path style="opacity:1" fill="#6d603b" d="M 83.5,19.5 C 84.6694,19.2716 86.0028,19.7716 87.5,21C 85.9443,21.7202 84.9443,22.8868 84.5,24.5C 81.1955,25.4066 80.8622,26.9066 83.5,29C 85.9342,29.3329 86.9342,28.1662 86.5,25.5C 89.4076,23.1836 91.4076,23.5169 92.5,26.5C 91.3318,27.9056 91.6652,29.0723 93.5,30C 91.6332,30.7112 90.1332,30.2112 89,28.5C 87.8652,30.3699 87.0319,32.3699 86.5,34.5C 85.7784,34.0825 85.2784,33.4158 85,32.5C 84.6655,35.1899 83.4988,35.8565 81.5,34.5C 81.8146,32.7741 81.9813,31.1075 82,29.5C 80.3189,31.2941 78.4856,31.7941 76.5,31C 76.9574,31.414 77.2907,31.914 77.5,32.5C 76.2887,33.8745 75.2887,35.3745 74.5,37C 74.9891,38.5637 75.3224,40.0637 75.5,41.5C 72.8122,40.9759 71.3122,39.3092 71,36.5C 69.9326,37.1905 68.7659,37.6905 67.5,38C 67.8333,38.3333 68.1667,38.6667 68.5,39C 67.2899,40.0391 66.2899,41.2058 65.5,42.5C 62.3519,38.0841 58.0185,35.4174 52.5,34.5C 54.99,34.0228 56.99,32.6895 58.5,30.5C 60.2671,34.3167 61.6004,33.9834 62.5,29.5C 62.3764,28.8933 62.0431,28.56 61.5,28.5C 61.8417,27.6618 62.5084,27.3284 63.5,27.5C 63.3284,28.4916 63.6618,29.1583 64.5,29.5C 64.1866,32.2469 64.52,34.9135 65.5,37.5C 68.8631,34.1081 71.1964,30.1081 72.5,25.5C 72.2528,24.2867 71.5862,23.62 70.5,23.5C 70.5,22.8333 70.8333,22.5 71.5,22.5C 74.9599,21.7071 78.6265,21.5404 82.5,22C 81.0036,19.5528 81.3369,18.7194 83.5,19.5 Z"/></g>
<g><path style="opacity:1" fill="#b6b496" d="M 84.5,24.5 C 85.1667,24.8333 85.8333,25.1667 86.5,25.5C 86.9342,28.1662 85.9342,29.3329 83.5,29C 80.8622,26.9066 81.1955,25.4066 84.5,24.5 Z"/></g>
<g><path style="opacity:1" fill="#967e4c" d="M 55.5,25.5 C 56.7894,27.248 58.2894,27.5814 60,26.5C 59.9227,27.7376 60.0894,28.7376 60.5,29.5C 61.1067,29.3764 61.44,29.0431 61.5,28.5C 62.0431,28.56 62.3764,28.8933 62.5,29.5C 61.6004,33.9834 60.2671,34.3167 58.5,30.5C 56.99,32.6895 54.99,34.0228 52.5,34.5C 50.5,34.5 48.5,34.5 46.5,34.5C 46.8333,33.5 47.5,32.8333 48.5,32.5C 49.4674,31.1938 50.8007,30.5271 52.5,30.5C 54.4286,30.7692 56.0953,30.2692 57.5,29C 56.0267,28.2904 55.3601,27.1238 55.5,25.5 Z"/></g>
<g><path style="opacity:1" fill="#4d4a2a" d="M 35.5,20.5 C 33.3939,22.7188 32.3939,25.3855 32.5,28.5C 31.017,30.0938 29.517,31.7605 28,33.5C 27.586,33.0426 27.086,32.7093 26.5,32.5C 26.0509,29.9564 26.0509,27.2898 26.5,24.5C 25.5,24.5 24.5,24.5 23.5,24.5C 24.6905,21.4974 24.0239,18.8308 21.5,16.5C 22.6283,15.7379 23.7949,15.0712 25,14.5C 26.9883,17.8047 28.9883,21.1381 31,24.5C 33.3064,21.7035 32.8064,19.5369 29.5,18C 30.5929,16.6346 31.9262,16.3013 33.5,17C 33.1667,17.3333 32.8333,17.6667 32.5,18C 33.9423,18.3768 34.9423,19.2101 35.5,20.5 Z"/></g>
<g><path style="opacity:1" fill="#fcfcfc" d="M 105.5,33.5 C 107.833,33.5 110.167,33.5 112.5,33.5C 110.353,42.7577 108.52,52.0911 107,61.5C 105.591,69.1391 103.258,76.4724 100,83.5C 91.8501,91.5958 82.3501,93.5958 71.5,89.5C 70.1535,87.4632 68.8202,85.4632 67.5,83.5C 67.3531,78.7858 67.6864,74.1191 68.5,69.5C 72.649,68.9197 76.3157,69.5864 79.5,71.5C 78.5651,74.1128 78.3985,76.7795 79,79.5C 79.4169,80.756 80.2502,81.4226 81.5,81.5C 84.3404,82.9171 87.007,82.5838 89.5,80.5C 93.9563,68.2083 96.9563,55.5416 98.5,42.5C 99.9279,39.6967 100.595,36.6967 100.5,33.5C 102.167,33.5 103.833,33.5 105.5,33.5 Z"/></g>
<g><path style="opacity:1" fill="#fbfbfb" d="M 46.5,34.5 C 48.5,34.5 50.5,34.5 52.5,34.5C 58.0185,35.4174 62.3519,38.0841 65.5,42.5C 65.9887,43.9952 66.6554,45.3285 67.5,46.5C 67.6659,51.5111 67.4993,56.5111 67,61.5C 65.4281,66.3041 63.5947,70.9708 61.5,75.5C 61.5,75.8333 61.5,76.1667 61.5,76.5C 58.9704,79.6883 56.3038,82.855 53.5,86C 49.7293,88.2187 45.7293,89.8854 41.5,91C 32.5062,91.4998 23.5062,91.6664 14.5,91.5C 13.8333,91.5 13.1667,91.5 12.5,91.5C 12.298,89.0504 12.6314,86.717 13.5,84.5C 14.3434,80.1266 15.3434,75.7933 16.5,71.5C 17.7453,66.5224 18.7453,61.5224 19.5,56.5C 20.8164,51.2329 21.8164,45.8996 22.5,40.5C 23.7384,38.7857 24.405,36.7857 24.5,34.5C 31.8333,34.5 39.1667,34.5 46.5,34.5 Z"/></g>
<g><path style="opacity:1" fill="#9ca07f" d="M 81.5,34.5 C 81.1062,38.3909 79.2729,41.3909 76,43.5C 75.5357,42.9056 75.369,42.2389 75.5,41.5C 75.3224,40.0637 74.9891,38.5637 74.5,37C 75.2887,35.3745 76.2887,33.8745 77.5,32.5C 77.2907,31.914 76.9574,31.414 76.5,31C 78.4856,31.7941 80.3189,31.2941 82,29.5C 81.9813,31.1075 81.8146,32.7741 81.5,34.5 Z"/></g>
<g><path style="opacity:1" fill="#453e22" d="M 84.5,16.5 C 90.2235,16.763 95.5569,18.263 100.5,21C 99.1487,22.6171 97.482,23.7838 95.5,24.5C 97.0436,27.7137 98.7103,28.047 100.5,25.5C 102.384,26.3387 103.717,27.672 104.5,29.5C 104.833,30.8333 105.167,32.1667 105.5,33.5C 103.833,33.5 102.167,33.5 100.5,33.5C 100.595,36.6967 99.9279,39.6967 98.5,42.5C 96.8297,42.2488 95.3297,41.5822 94,40.5C 93.1751,42.7008 93.6751,44.5341 95.5,46C 93.8988,46.2734 92.3988,46.7734 91,47.5C 90.0093,46.5704 89.5093,45.4038 89.5,44C 90.5632,42.2127 91.0632,40.3793 91,38.5C 89.3057,37.3012 87.8057,35.9678 86.5,34.5C 87.0319,32.3699 87.8652,30.3699 89,28.5C 90.1332,30.2112 91.6332,30.7112 93.5,30C 91.6652,29.0723 91.3318,27.9056 92.5,26.5C 91.4076,23.5169 89.4076,23.1836 86.5,25.5C 85.8333,25.1667 85.1667,24.8333 84.5,24.5C 84.9443,22.8868 85.9443,21.7202 87.5,21C 86.0028,19.7716 84.6694,19.2716 83.5,19.5C 83.5569,18.391 83.8902,17.391 84.5,16.5 Z"/></g>
<g><path style="opacity:1" fill="#2d2d1b" d="M 127.5,36.5 C 127.5,40.5 127.5,44.5 127.5,48.5C 124.538,48.1167 123.538,49.1167 124.5,51.5C 123.28,53.4956 121.614,54.3289 119.5,54C 122.768,52.3584 123.101,50.5251 120.5,48.5C 117.5,48.5 114.5,48.5 111.5,48.5C 112.833,44.1667 114.167,39.8333 115.5,35.5C 116.649,35.2089 117.316,34.3756 117.5,33C 116.748,30.8463 116.581,28.6797 117,26.5C 119.638,29.2943 120.138,32.461 118.5,36C 121.482,36.498 124.482,36.6646 127.5,36.5 Z"/></g>
<g><path style="opacity:1" fill="#31301b" d="M 86.5,34.5 C 87.8057,35.9678 89.3057,37.3012 91,38.5C 91.0632,40.3793 90.5632,42.2127 89.5,44C 89.5093,45.4038 90.0093,46.5704 91,47.5C 92.3988,46.7734 93.8988,46.2734 95.5,46C 93.6751,44.5341 93.1751,42.7008 94,40.5C 95.3297,41.5822 96.8297,42.2488 98.5,42.5C 96.9563,55.5416 93.9563,68.2083 89.5,80.5C 87.744,79.4479 87.0773,77.7812 87.5,75.5C 81.6416,76.4999 81.3083,78.3333 86.5,81C 84.8659,81.4935 83.1992,81.6602 81.5,81.5C 80.0225,78.239 80.6892,75.4057 83.5,73C 82.255,72.2086 80.9217,71.7086 79.5,71.5C 76.3157,69.5864 72.649,68.9197 68.5,69.5C 68.1667,69.5 67.8333,69.5 67.5,69.5C 68.2097,65.9752 69.2097,62.6418 70.5,59.5C 70.0058,54.959 69.0058,50.6256 67.5,46.5C 66.6554,45.3285 65.9887,43.9952 65.5,42.5C 66.2899,41.2058 67.2899,40.0391 68.5,39C 68.1667,38.6667 67.8333,38.3333 67.5,38C 68.7659,37.6905 69.9326,37.1905 71,36.5C 71.3122,39.3092 72.8122,40.9759 75.5,41.5C 75.369,42.2389 75.5357,42.9056 76,43.5C 79.2729,41.3909 81.1062,38.3909 81.5,34.5C 83.4988,35.8565 84.6655,35.1899 85,32.5C 85.2784,33.4158 85.7784,34.0825 86.5,34.5 Z"/></g>
<g><path style="opacity:1" fill="#a68355" d="M 111.5,48.5 C 114.5,48.5 117.5,48.5 120.5,48.5C 120.5,49.1667 120.5,49.8333 120.5,50.5C 117.5,50.5 114.5,50.5 111.5,50.5C 111.5,49.8333 111.5,49.1667 111.5,48.5 Z"/></g>
<g><path style="opacity:1" fill="#1a2014" d="M -0.5,39.5 C -0.166667,39.5 0.166667,39.5 0.5,39.5C 1.09065,40.1515 1.75731,40.8182 2.5,41.5C 2.15431,42.6956 1.65431,42.6956 1,41.5C 1.04638,43.3126 0.879711,44.9793 0.5,46.5C 1.2739,47.7112 2.10723,47.7112 3,46.5C 6.21625,49.7742 7.38291,53.7742 6.5,58.5C 4.61589,58.7118 3.28255,59.7118 2.5,61.5C 1.25278,63.0064 1.25278,64.5064 2.5,66C 1.62656,67.045 0.626561,67.8783 -0.5,68.5C -0.5,58.8333 -0.5,49.1667 -0.5,39.5 Z"/></g>
<g><path style="opacity:1" fill="#83805e" d="M 84.5,53.5 C 83.5448,51.2543 82.8782,48.921 82.5,46.5C 83.552,46.3505 84.552,46.5172 85.5,47C 85.1667,47.3333 84.8333,47.6667 84.5,48C 86.5,49.3333 88.5,50.6667 90.5,52C 88.8374,52.2649 87.3374,51.7649 86,50.5C 85.3828,51.4491 85.5494,52.2825 86.5,53C 85.9056,53.4643 85.2389,53.631 84.5,53.5 Z"/></g>
<g><path style="opacity:1" fill="#2b2d1a" d="M 22.5,40.5 C 21.8164,45.8996 20.8164,51.2329 19.5,56.5C 14.9639,56.1502 10.6306,56.8169 6.5,58.5C 7.38291,53.7742 6.21625,49.7742 3,46.5C 2.10723,47.7112 1.2739,47.7112 0.5,46.5C 0.879711,44.9793 1.04638,43.3126 1,41.5C 1.65431,42.6956 2.15431,42.6956 2.5,41.5C 1.75731,40.8182 1.09065,40.1515 0.5,39.5C 1.83333,39.5 3.16667,39.5 4.5,39.5C 3.27563,34.5396 4.44229,34.2062 8,38.5C 8.55988,33.2945 10.7265,28.9611 14.5,25.5C 14.4877,27.4121 14.821,29.4121 15.5,31.5C 13.8608,32.916 13.0275,34.5826 13,36.5C 15.8806,32.4365 17.214,33.1031 17,38.5C 19.9126,35.8668 21.7459,36.5335 22.5,40.5 Z"/></g>
<g><path style="opacity:1" fill="#88877e" d="M 53.5,47.5 C 47.5594,46.5872 41.5594,46.2539 35.5,46.5C 33.6902,52.523 32.6902,58.523 32.5,64.5C 31.8826,64.6107 31.3826,64.944 31,65.5C 30.4825,70.8978 29.6492,76.2311 28.5,81.5C 32.1817,81.6653 35.8484,81.4986 39.5,81C 40.056,80.6174 40.3893,80.1174 40.5,79.5C 41.1174,79.3893 41.6174,79.056 42,78.5C 42.2784,79.4158 42.7784,80.0825 43.5,80.5C 42.7375,81.2679 41.7375,81.7679 40.5,82C 35.5111,82.4993 30.5111,82.6659 25.5,82.5C 28.4226,70.22 31.0893,57.8867 33.5,45.5C 39.4724,44.3364 45.4724,44.1697 51.5,45C 52.3805,45.7083 53.0472,46.5416 53.5,47.5 Z"/></g>
<g><path style="opacity:1" fill="#999772" d="M 78.5,49.5 C 79.397,50.5981 80.2303,50.5981 81,49.5C 81.9487,51.0931 83.1154,52.4264 84.5,53.5C 84.5,53.8333 84.5,54.1667 84.5,54.5C 84.44,55.0431 84.1067,55.3764 83.5,55.5C 82.4164,54.3349 81.5831,53.0016 81,51.5C 80.5774,52.9561 79.7441,53.4561 78.5,53C 77.8288,52.0138 77.8288,50.8471 78.5,49.5 Z"/></g>
<g><path style="opacity:1" fill="#434022" d="M 111.5,50.5 C 114.5,50.5 117.5,50.5 120.5,50.5C 119.737,51.2679 118.737,51.7679 117.5,52C 116.1,56.8979 113.1,60.3979 108.5,62.5C 109.5,58.5007 110.5,54.5007 111.5,50.5 Z"/></g>
<g><path style="opacity:1" fill="#514926" d="M 78.5,49.5 C 77.8288,50.8471 77.8288,52.0138 78.5,53C 79.7441,53.4561 80.5774,52.9561 81,51.5C 81.5831,53.0016 82.4164,54.3349 83.5,55.5C 84.1067,55.3764 84.44,55.0431 84.5,54.5C 85.8968,56.3793 87.5635,58.0459 89.5,59.5C 84.9363,60.197 80.6029,60.197 76.5,59.5C 75.1667,59.5 73.8333,59.5 72.5,59.5C 72.822,57.2776 72.1554,55.4443 70.5,54C 72.1068,53.8849 73.6068,54.3849 75,55.5C 75.5,55.1667 76,54.8333 76.5,54.5C 74.9539,53.316 73.2873,52.316 71.5,51.5C 72.7662,50.2764 73.9328,48.9431 75,47.5C 75.9147,48.3279 76.5814,49.3279 77,50.5C 77.3826,49.944 77.8826,49.6107 78.5,49.5 Z"/></g>
<g><path style="opacity:1" fill="#847e52" d="M 120.5,48.5 C 123.101,50.5251 122.768,52.3584 119.5,54C 121.614,54.3289 123.28,53.4956 124.5,51.5C 123.538,49.1167 124.538,48.1167 127.5,48.5C 127.5,49.8333 127.5,51.1667 127.5,52.5C 125.616,52.7118 124.283,53.7118 123.5,55.5C 122.354,58.2794 121.021,60.9461 119.5,63.5C 117.803,62.6364 116.637,61.3031 116,59.5C 114.009,61.4572 112.009,63.4572 110,65.5C 109.617,64.944 109.117,64.6107 108.5,64.5C 108.5,63.8333 108.5,63.1667 108.5,62.5C 113.1,60.3979 116.1,56.8979 117.5,52C 118.737,51.7679 119.737,51.2679 120.5,50.5C 120.5,49.8333 120.5,49.1667 120.5,48.5 Z"/></g>
<g><path style="opacity:1" fill="#807f78" d="M 67.5,46.5 C 69.0058,50.6256 70.0058,54.959 70.5,59.5C 69.2097,62.6418 68.2097,65.9752 67.5,69.5C 66.3793,71.7415 65.2126,74.0748 64,76.5C 63.3292,75.7476 62.4959,75.4142 61.5,75.5C 63.5947,70.9708 65.4281,66.3041 67,61.5C 67.4993,56.5111 67.6659,51.5111 67.5,46.5 Z"/></g>
<g><path style="opacity:1" fill="#262716" d="M 15.5,71.5 C 14.2101,72.0577 13.3768,73.0577 13,74.5C 13.0431,78.6554 11.5431,81.9887 8.5,84.5C 7.19837,83.1931 5.86503,83.1931 4.5,84.5C 2.97125,83.2371 1.30459,82.2371 -0.5,81.5C -0.5,80.5 -0.5,79.5 -0.5,78.5C 1.00583,73.9305 3.6725,69.5972 7.5,65.5C 6.75415,64.2638 6.42082,62.9305 6.5,61.5C 9.43534,61.2833 12.2687,60.6166 15,59.5C 15.8333,59.8333 16.6667,60.1667 17.5,60.5C 15.9345,59.9394 14.6011,60.6061 13.5,62.5C 15.2603,65.2123 15.927,68.2123 15.5,71.5 Z"/></g>
<g><path style="opacity:1" fill="#a99c64" d="M 70.5,59.5 C 71.1667,59.5 71.8333,59.5 72.5,59.5C 73.8333,59.5 75.1667,59.5 76.5,59.5C 77.8189,61.6055 77.4856,63.6055 75.5,65.5C 73.086,64.0892 71.4194,62.0892 70.5,59.5 Z"/></g>
<g><path style="opacity:1" fill="#2e2f1d" d="M 127.5,52.5 C 127.5,69.1667 127.5,85.8333 127.5,102.5C 126.407,105.253 124.574,105.92 122,104.5C 121.667,105.5 121.333,106.5 121,107.5C 119.512,106.804 118.012,107.138 116.5,108.5C 118.086,110.173 118.753,112.173 118.5,114.5C 119.791,114.263 120.791,114.596 121.5,115.5C 120.022,115.238 118.689,115.571 117.5,116.5C 118.549,118.216 119.882,119.549 121.5,120.5C 120.761,120.369 120.094,120.536 119.5,121C 120.249,122.734 120.749,124.567 121,126.5C 121.667,125.833 122.333,125.167 123,124.5C 124.049,126.107 125.549,126.773 127.5,126.5C 127.5,126.833 127.5,127.167 127.5,127.5C 122.167,127.5 116.833,127.5 111.5,127.5C 114.313,126.463 116.98,125.13 119.5,123.5C 119.247,120.952 117.914,118.785 115.5,117C 113.167,117.333 110.833,117.667 108.5,118C 111.82,116.739 112.154,115.072 109.5,113C 111.107,113.019 112.774,113.185 114.5,113.5C 114.665,109.818 114.499,106.152 114,102.5C 111.925,100.352 109.592,100.018 107,101.5C 107.063,98.2328 105.563,96.0661 102.5,95C 103.448,94.5172 104.448,94.3505 105.5,94.5C 106.5,94.1667 107.167,93.5 107.5,92.5C 109.117,93.038 110.784,93.3713 112.5,93.5C 112.48,91.857 113.147,90.5237 114.5,89.5C 113.429,87.6745 114.096,86.5079 116.5,86C 114.482,85.4954 112.482,84.9954 110.5,84.5C 109.772,79.5488 109.272,74.5488 109,69.5C 108.617,70.056 108.117,70.3893 107.5,70.5C 108.15,68.5648 108.483,66.5648 108.5,64.5C 109.117,64.6107 109.617,64.944 110,65.5C 112.009,63.4572 114.009,61.4572 116,59.5C 116.637,61.3031 117.803,62.6364 119.5,63.5C 121.021,60.9461 122.354,58.2794 123.5,55.5C 124.283,53.7118 125.616,52.7118 127.5,52.5 Z"/></g>
<g><path style="opacity:1" fill="#3d3d26" d="M 19.5,56.5 C 18.7453,61.5224 17.7453,66.5224 16.5,71.5C 16.1667,71.5 15.8333,71.5 15.5,71.5C 15.927,68.2123 15.2603,65.2123 13.5,62.5C 14.6011,60.6061 15.9345,59.9394 17.5,60.5C 16.6667,60.1667 15.8333,59.8333 15,59.5C 12.2687,60.6166 9.43534,61.2833 6.5,61.5C 6.42082,62.9305 6.75415,64.2638 7.5,65.5C 3.6725,69.5972 1.00583,73.9305 -0.5,78.5C -0.5,75.1667 -0.5,71.8333 -0.5,68.5C 0.626561,67.8783 1.62656,67.045 2.5,66C 1.25278,64.5064 1.25278,63.0064 2.5,61.5C 3.28255,59.7118 4.61589,58.7118 6.5,58.5C 10.6306,56.8169 14.9639,56.1502 19.5,56.5 Z"/></g>
<g><path style="opacity:1" fill="#3b3c26" d="M 53.5,47.5 C 54.3382,47.8417 54.6716,48.5084 54.5,49.5C 55.8122,55.1178 55.4789,60.7844 53.5,66.5C 49.2946,66.6932 45.9612,68.3598 43.5,71.5C 42.9688,69.3763 41.6355,67.8763 39.5,67C 38.5509,66.3828 37.7175,66.5494 37,67.5C 35.6003,66.252 34.1003,65.252 32.5,64.5C 32.6902,58.523 33.6902,52.523 35.5,46.5C 41.5594,46.2539 47.5594,46.5872 53.5,47.5 Z"/></g>
<g><path style="opacity:1" fill="#1c2116" d="M 54.5,49.5 C 53.9871,53.546 53.1538,57.546 52,61.5C 51.586,61.9574 51.086,62.2907 50.5,62.5C 49.9037,57.3563 47.9037,56.523 44.5,60C 45.3128,61.3139 46.3128,62.4805 47.5,63.5C 46.5,64.8333 45.5,66.1667 44.5,67.5C 42.2297,65.0252 39.563,63.0252 36.5,61.5C 36.1667,60.8333 35.8333,60.1667 35.5,59.5C 36.7514,56.2437 37.7514,52.9104 38.5,49.5C 38.2907,48.914 37.9574,48.414 37.5,48C 44.2362,45.9524 47.7362,48.4524 48,55.5C 48.868,51.9555 50.368,51.2888 52.5,53.5C 53.5896,52.6086 53.5896,51.6086 52.5,50.5C 52.9569,49.7025 53.6236,49.3691 54.5,49.5 Z"/></g>
<g><path style="opacity:1" fill="#916a27" d="M 53.5,66.5 C 53.0679,67.7095 52.4013,68.7095 51.5,69.5C 48.2097,70.7718 46.3763,73.1052 46,76.5C 47.0391,75.2899 48.2058,74.2899 49.5,73.5C 48.2427,76.4274 46.2427,78.7607 43.5,80.5C 42.7784,80.0825 42.2784,79.4158 42,78.5C 41.6174,79.056 41.1174,79.3893 40.5,79.5C 40.3939,76.3855 41.3939,73.7188 43.5,71.5C 45.9612,68.3598 49.2946,66.6932 53.5,66.5 Z"/></g>
<g><path style="opacity:1" fill="#8b8b7f" d="M 79.5,71.5 C 80.9217,71.7086 82.255,72.2086 83.5,73C 80.6892,75.4057 80.0225,78.239 81.5,81.5C 80.2502,81.4226 79.4169,80.756 79,79.5C 78.3985,76.7795 78.5651,74.1128 79.5,71.5 Z"/></g>
<g><path style="opacity:1" fill="#3c3012" d="M 51.5,69.5 C 51.3404,71.153 50.6737,72.4863 49.5,73.5C 48.2058,74.2899 47.0391,75.2899 46,76.5C 46.3763,73.1052 48.2097,70.7718 51.5,69.5 Z"/></g>
<g><path style="opacity:1" fill="#898662" d="M 67.5,69.5 C 67.8333,69.5 68.1667,69.5 68.5,69.5C 67.6864,74.1191 67.3531,78.7858 67.5,83.5C 65.8212,83.2852 64.8212,83.9519 64.5,85.5C 62.9891,84.4975 61.3224,83.8308 59.5,83.5C 60.6854,82.1434 61.6854,80.6434 62.5,79C 62.2568,78.0979 61.9234,77.2646 61.5,76.5C 61.5,76.1667 61.5,75.8333 61.5,75.5C 62.4959,75.4142 63.3292,75.7476 64,76.5C 65.2126,74.0748 66.3793,71.7415 67.5,69.5 Z"/></g>
<g><path style="opacity:1" fill="#9d814a" d="M 15.5,71.5 C 15.8333,71.5 16.1667,71.5 16.5,71.5C 15.3434,75.7933 14.3434,80.1266 13.5,84.5C 12.603,83.4019 11.7697,83.4019 11,84.5C 9.77236,87.5984 8.6057,90.5984 7.5,93.5C 7.50795,90.4552 7.84128,87.4552 8.5,84.5C 11.5431,81.9887 13.0431,78.6554 13,74.5C 13.3768,73.0577 14.2101,72.0577 15.5,71.5 Z"/></g>
<g><path style="opacity:1" fill="#1d2217" d="M 32.5,64.5 C 34.1003,65.252 35.6003,66.252 37,67.5C 37.7175,66.5494 38.5509,66.3828 39.5,67C 41.6355,67.8763 42.9688,69.3763 43.5,71.5C 41.3939,73.7188 40.3939,76.3855 40.5,79.5C 40.3893,80.1174 40.056,80.6174 39.5,81C 35.8484,81.4986 32.1817,81.6653 28.5,81.5C 29.6492,76.2311 30.4825,70.8978 31,65.5C 31.3826,64.944 31.8826,64.6107 32.5,64.5 Z"/></g>
<g><path style="opacity:1" fill="#83805d" d="M 89.5,80.5 C 87.007,82.5838 84.3404,82.9171 81.5,81.5C 83.1992,81.6602 84.8659,81.4935 86.5,81C 81.3083,78.3333 81.6416,76.4999 87.5,75.5C 87.0773,77.7812 87.744,79.4479 89.5,80.5 Z"/></g>
<g><path style="opacity:1" fill="#6a5f32" d="M -0.5,81.5 C 1.30459,82.2371 2.97125,83.2371 4.5,84.5C 5.86503,83.1931 7.19837,83.1931 8.5,84.5C 7.84128,87.4552 7.50795,90.4552 7.5,93.5C 6.75147,92.469 6.0848,91.3024 5.5,90C 3.14746,89.2874 1.14746,88.1207 -0.5,86.5C -0.5,84.8333 -0.5,83.1667 -0.5,81.5 Z"/></g>
<g><path style="opacity:1" fill="#554c27" d="M 110.5,84.5 C 110.25,85.9221 109.417,86.9221 108,87.5C 108.068,89.3423 107.901,91.009 107.5,92.5C 107.167,93.5 106.5,94.1667 105.5,94.5C 105.082,93.7784 104.416,93.2784 103.5,93C 105.992,91.7508 105.825,90.5842 103,89.5C 101.644,90.3802 100.144,90.7135 98.5,90.5C 103.091,84.6431 106.091,77.9765 107.5,70.5C 108.117,70.3893 108.617,70.056 109,69.5C 109.272,74.5488 109.772,79.5488 110.5,84.5 Z"/></g>
<g><path style="opacity:1" fill="#818079" d="M 112.5,33.5 C 113.167,33.8333 113.833,34.1667 114.5,34.5C 114.5,35.1667 114.833,35.5 115.5,35.5C 114.167,39.8333 112.833,44.1667 111.5,48.5C 111.5,49.1667 111.5,49.8333 111.5,50.5C 110.5,54.5007 109.5,58.5007 108.5,62.5C 108.5,63.1667 108.5,63.8333 108.5,64.5C 108.483,66.5648 108.15,68.5648 107.5,70.5C 106.091,77.9765 103.091,84.6431 98.5,90.5C 92.3233,93.7056 85.6567,95.039 78.5,94.5C 75.3847,94.0685 73.0514,92.4018 71.5,89.5C 82.3501,93.5958 91.8501,91.5958 100,83.5C 103.258,76.4724 105.591,69.1391 107,61.5C 108.52,52.0911 110.353,42.7577 112.5,33.5 Z"/></g>
<g><path style="opacity:1" fill="#7a7b54" d="M 67.5,83.5 C 68.8202,85.4632 70.1535,87.4632 71.5,89.5C 73.0514,92.4018 75.3847,94.0685 78.5,94.5C 78.5,95.1667 78.5,95.8333 78.5,96.5C 75.6755,96.9193 73.5088,95.9193 72,93.5C 69.9545,90.5767 67.7879,87.7433 65.5,85C 66.4158,84.7216 67.0825,84.2216 67.5,83.5 Z"/></g>
<g><path style="opacity:1" fill="#867c4f" d="M 110.5,84.5 C 112.482,84.9954 114.482,85.4954 116.5,86C 114.096,86.5079 113.429,87.6745 114.5,89.5C 113.147,90.5237 112.48,91.857 112.5,93.5C 110.784,93.3713 109.117,93.038 107.5,92.5C 107.901,91.009 108.068,89.3423 108,87.5C 109.417,86.9221 110.25,85.9221 110.5,84.5 Z"/></g>
<g><path style="opacity:1" fill="#848279" d="M 61.5,76.5 C 61.9234,77.2646 62.2568,78.0979 62.5,79C 61.6854,80.6434 60.6854,82.1434 59.5,83.5C 59.5,83.8333 59.5,84.1667 59.5,84.5C 55.1822,88.6931 49.8489,92.0265 43.5,94.5C 37.6128,94.0418 31.9461,94.7085 26.5,96.5C 24.22,94.7773 21.5533,94.1107 18.5,94.5C 16.712,94.7852 15.0453,94.4519 13.5,93.5C 13.8627,92.8165 14.1961,92.1499 14.5,91.5C 23.5062,91.6664 32.5062,91.4998 41.5,91C 45.7293,89.8854 49.7293,88.2187 53.5,86C 56.3038,82.855 58.9704,79.6883 61.5,76.5 Z"/></g>
<g><path style="opacity:1" fill="#2d2d19" d="M 43.5,94.5 C 43.3345,98.5138 43.5012,102.514 44,106.5C 44.3333,106.833 44.6667,107.167 45,107.5C 45.3661,105.548 46.1995,103.882 47.5,102.5C 49.9272,103.279 49.9272,104.446 47.5,106C 48.756,106.417 49.4226,107.25 49.5,108.5C 45.4908,108.858 41.4908,109.358 37.5,110C 37.8333,110.333 38.1667,110.667 38.5,111C 36.3964,111.791 35.063,113.291 34.5,115.5C 33.135,114.193 31.8016,114.193 30.5,115.5C 30.5,114.5 30.5,113.5 30.5,112.5C 28.3812,112.532 27.0478,111.532 26.5,109.5C 28.368,108.243 30.0347,108.576 31.5,110.5C 33.1151,109.846 34.7818,109.346 36.5,109C 34.3625,106.561 32.8625,103.728 32,100.5C 31.6667,101.167 31.3333,101.833 31,102.5C 29.7225,100.253 28.2225,98.2528 26.5,96.5C 31.9461,94.7085 37.6128,94.0418 43.5,94.5 Z"/></g>
<g><path style="opacity:1" fill="#65562a" d="M 59.5,84.5 C 59.7793,90.1049 60.7793,95.4382 62.5,100.5C 62.2172,101.289 61.7172,101.956 61,102.5C 59.9904,99.3394 58.6571,96.3394 57,93.5C 55.9683,95.9944 54.8017,98.3277 53.5,100.5C 52.7677,101.808 51.9344,103.142 51,104.5C 50.5172,103.552 50.3505,102.552 50.5,101.5C 49.209,101.263 48.209,101.596 47.5,102.5C 46.1995,103.882 45.3661,105.548 45,107.5C 44.6667,107.167 44.3333,106.833 44,106.5C 43.5012,102.514 43.3345,98.5138 43.5,94.5C 49.8489,92.0265 55.1822,88.6931 59.5,84.5 Z"/></g>
<g><path style="opacity:1" fill="#aeac83" d="M 59.5,83.5 C 61.3224,83.8308 62.9891,84.4975 64.5,85.5C 67.6374,91.0628 66.9707,96.0628 62.5,100.5C 60.7793,95.4382 59.7793,90.1049 59.5,84.5C 59.5,84.1667 59.5,83.8333 59.5,83.5 Z"/></g>
<g><path style="opacity:1" fill="#1c1f14" d="M 105.5,94.5 C 104.448,94.3505 103.448,94.5172 102.5,95C 105.563,96.0661 107.063,98.2328 107,101.5C 109.592,100.018 111.925,100.352 114,102.5C 114.499,106.152 114.665,109.818 114.5,113.5C 112.774,113.185 111.107,113.019 109.5,113C 112.154,115.072 111.82,116.739 108.5,118C 110.833,117.667 113.167,117.333 115.5,117C 117.914,118.785 119.247,120.952 119.5,123.5C 116.98,125.13 114.313,126.463 111.5,127.5C 104.167,127.5 96.8333,127.5 89.5,127.5C 89.5,126.5 89.5,125.5 89.5,124.5C 91.1033,124.688 92.4366,124.188 93.5,123C 92.1667,121.667 90.8333,120.333 89.5,119C 89.9764,115.32 90.9764,111.82 92.5,108.5C 91.7376,108.089 90.7376,107.923 89.5,108C 91.5887,104.877 90.922,104.71 87.5,107.5C 86.5713,108.689 86.238,110.022 86.5,111.5C 84.3944,111.679 82.7277,112.679 81.5,114.5C 82.09,115.799 83.09,116.632 84.5,117C 84.0276,119.399 85.0276,121.399 87.5,123C 87.1667,123.333 86.8333,123.667 86.5,124C 81.6678,124.405 77.3345,123.238 73.5,120.5C 70.9293,121.401 68.596,122.734 66.5,124.5C 64.2906,123.894 62.124,123.227 60,122.5C 60.1484,123.825 59.9817,124.992 59.5,126C 60.4158,126.278 61.0825,126.778 61.5,127.5C 59.1667,127.5 56.8333,127.5 54.5,127.5C 55.1495,125.565 55.4828,123.565 55.5,121.5C 55.9724,116.972 56.9724,112.639 58.5,108.5C 59.8333,108.5 61.1667,108.5 62.5,108.5C 60.5735,110.663 59.9068,112.996 60.5,115.5C 59.475,115.897 59.3083,116.563 60,117.5C 61.9874,118.218 63.8208,119.218 65.5,120.5C 66.6256,119.192 66.6256,117.858 65.5,116.5C 64.9423,115.21 63.9423,114.377 62.5,114C 64.1371,112.049 65.6371,112.216 67,114.5C 67.3333,114.167 67.6667,113.833 68,113.5C 67.734,116.901 69.234,118.567 72.5,118.5C 73.0525,116.061 73.0525,113.727 72.5,111.5C 74.0777,110.702 75.7444,110.202 77.5,110C 75.355,107.67 74.0216,105.337 73.5,103C 76.4936,101.843 78.1602,99.6764 78.5,96.5C 78.5,95.8333 78.5,95.1667 78.5,94.5C 85.6567,95.039 92.3233,93.7056 98.5,90.5C 100.144,90.7135 101.644,90.3802 103,89.5C 105.825,90.5842 105.992,91.7508 103.5,93C 104.416,93.2784 105.082,93.7784 105.5,94.5 Z"/></g>
<g><path style="opacity:1" fill="#171b11" d="M 18.5,94.5 C 21.5533,94.1107 24.22,94.7773 26.5,96.5C 28.2225,98.2528 29.7225,100.253 31,102.5C 31.3333,101.833 31.6667,101.167 32,100.5C 32.8625,103.728 34.3625,106.561 36.5,109C 34.7818,109.346 33.1151,109.846 31.5,110.5C 30.0347,108.576 28.368,108.243 26.5,109.5C 25.8333,110.833 25.1667,112.167 24.5,113.5C 23.2921,114.234 21.9587,114.567 20.5,114.5C 20.5,113.5 20.5,112.5 20.5,111.5C 19.448,111.649 18.448,111.483 17.5,111C 18.3143,107.633 18.3143,104.133 17.5,100.5C 18.4614,98.7354 18.7947,96.7354 18.5,94.5 Z"/></g>
<g><path style="opacity:1" fill="#1d1f13" d="M 13.5,84.5 C 12.6314,86.717 12.298,89.0504 12.5,91.5C 12.6488,94.6074 12.1488,97.6074 11,100.5C 9.24931,101.482 7.41598,102.316 5.5,103C 6.95204,107.164 6.61871,111.164 4.5,115C 5.2199,117.122 6.38657,117.622 8,116.5C 10.0445,113.051 12.5445,110.051 15.5,107.5C 16.1681,105.031 16.8347,102.698 17.5,100.5C 18.3143,104.133 18.3143,107.633 17.5,111C 18.448,111.483 19.448,111.649 20.5,111.5C 20.5,112.5 20.5,113.5 20.5,114.5C 21.9587,114.567 23.2921,114.234 24.5,113.5C 23.6532,115.029 22.9865,116.696 22.5,118.5C 22.5195,119.726 22.8529,120.726 23.5,121.5C 23.9321,122.71 24.5987,123.71 25.5,124.5C 25.4431,125.609 25.1098,126.609 24.5,127.5C 16.1667,127.5 7.83333,127.5 -0.5,127.5C -0.5,113.833 -0.5,100.167 -0.5,86.5C 1.14746,88.1207 3.14746,89.2874 5.5,90C 6.0848,91.3024 6.75147,92.469 7.5,93.5C 8.6057,90.5984 9.77236,87.5984 11,84.5C 11.7697,83.4019 12.603,83.4019 13.5,84.5 Z"/></g>
<g><path style="opacity:1" fill="#464b30" d="M 12.5,91.5 C 13.1667,91.5 13.8333,91.5 14.5,91.5C 14.1961,92.1499 13.8627,92.8165 13.5,93.5C 15.0453,94.4519 16.712,94.7852 18.5,94.5C 18.7947,96.7354 18.4614,98.7354 17.5,100.5C 16.8347,102.698 16.1681,105.031 15.5,107.5C 12.5445,110.051 10.0445,113.051 8,116.5C 6.38657,117.622 5.2199,117.122 4.5,115C 6.61871,111.164 6.95204,107.164 5.5,103C 7.41598,102.316 9.24931,101.482 11,100.5C 12.1488,97.6074 12.6488,94.6074 12.5,91.5 Z"/></g>
<g><path style="opacity:1" fill="#4f4622" d="M 53.5,100.5 C 54.2186,102.764 54.552,105.097 54.5,107.5C 55.9587,107.433 57.2921,107.766 58.5,108.5C 56.9724,112.639 55.9724,116.972 55.5,121.5C 55.1667,121.5 54.8333,121.5 54.5,121.5C 54.8396,117.869 54.0063,114.536 52,111.5C 50.3333,112.733 48.8333,114.067 47.5,115.5C 46.5655,114.432 46.2322,113.099 46.5,111.5C 47.9002,110.9 48.9002,109.9 49.5,108.5C 49.4226,107.25 48.756,106.417 47.5,106C 49.9272,104.446 49.9272,103.279 47.5,102.5C 48.209,101.596 49.209,101.263 50.5,101.5C 50.3505,102.552 50.5172,103.552 51,104.5C 51.9344,103.142 52.7677,101.808 53.5,100.5 Z"/></g>
<g><path style="opacity:1" fill="#2b2c1b" d="M 67.5,83.5 C 67.0825,84.2216 66.4158,84.7216 65.5,85C 67.7879,87.7433 69.9545,90.5767 72,93.5C 73.5088,95.9193 75.6755,96.9193 78.5,96.5C 78.1602,99.6764 76.4936,101.843 73.5,103C 74.0216,105.337 75.355,107.67 77.5,110C 75.7444,110.202 74.0777,110.702 72.5,111.5C 73.0525,113.727 73.0525,116.061 72.5,118.5C 69.234,118.567 67.734,116.901 68,113.5C 67.6667,113.833 67.3333,114.167 67,114.5C 65.6371,112.216 64.1371,112.049 62.5,114C 63.9423,114.377 64.9423,115.21 65.5,116.5C 63.7168,115.825 62.0502,115.492 60.5,115.5C 59.9068,112.996 60.5735,110.663 62.5,108.5C 61.1667,108.5 59.8333,108.5 58.5,108.5C 57.2921,107.766 55.9587,107.433 54.5,107.5C 54.552,105.097 54.2186,102.764 53.5,100.5C 54.8017,98.3277 55.9683,95.9944 57,93.5C 58.6571,96.3394 59.9904,99.3394 61,102.5C 61.7172,101.956 62.2172,101.289 62.5,100.5C 66.9707,96.0628 67.6374,91.0628 64.5,85.5C 64.8212,83.9519 65.8212,83.2852 67.5,83.5 Z"/></g>
<g><path style="opacity:1" fill="#1b1b10" d="M 49.5,108.5 C 48.9002,109.9 47.9002,110.9 46.5,111.5C 45.596,112.209 45.2627,113.209 45.5,114.5C 43.2143,114.595 41.2143,115.262 39.5,116.5C 38.5778,120.112 37.9111,123.779 37.5,127.5C 35.8333,127.5 34.1667,127.5 32.5,127.5C 33.5256,124.628 35.1923,122.128 37.5,120C 35.4325,119.313 33.4325,119.48 31.5,120.5C 31.4214,118.872 31.0881,117.205 30.5,115.5C 31.8016,114.193 33.135,114.193 34.5,115.5C 35.063,113.291 36.3964,111.791 38.5,111C 38.1667,110.667 37.8333,110.333 37.5,110C 41.4908,109.358 45.4908,108.858 49.5,108.5 Z"/></g>
<g><path style="opacity:1" fill="#997e41" d="M 54.5,121.5 C 54.5654,121.938 54.3988,122.272 54,122.5C 50.9487,120.95 48.782,118.617 47.5,115.5C 48.8333,114.067 50.3333,112.733 52,111.5C 54.0063,114.536 54.8396,117.869 54.5,121.5 Z"/></g>
<g><path style="opacity:1" fill="#5d5e37" d="M 26.5,109.5 C 27.0478,111.532 28.3812,112.532 30.5,112.5C 30.5,113.5 30.5,114.5 30.5,115.5C 31.0881,117.205 31.4214,118.872 31.5,120.5C 33.4325,119.48 35.4325,119.313 37.5,120C 35.1923,122.128 33.5256,124.628 32.5,127.5C 31.8333,127.5 31.1667,127.5 30.5,127.5C 30.5569,126.391 30.8902,125.391 31.5,124.5C 29.7567,122.018 28.2567,119.351 27,116.5C 26.2904,117.973 25.1238,118.64 23.5,118.5C 23.5,119.5 23.5,120.5 23.5,121.5C 22.8529,120.726 22.5195,119.726 22.5,118.5C 22.9865,116.696 23.6532,115.029 24.5,113.5C 25.1667,112.167 25.8333,110.833 26.5,109.5 Z"/></g>
<g><path style="opacity:1" fill="#5a6249" d="M 60.5,115.5 C 62.0502,115.492 63.7168,115.825 65.5,116.5C 66.6256,117.858 66.6256,119.192 65.5,120.5C 63.8208,119.218 61.9874,118.218 60,117.5C 59.3083,116.563 59.475,115.897 60.5,115.5 Z"/></g>
<g><path style="opacity:1" fill="#6d7055" d="M 121.5,115.5 C 122.234,116.878 122.901,118.378 123.5,120C 122.906,120.464 122.239,120.631 121.5,120.5C 119.882,119.549 118.549,118.216 117.5,116.5C 118.689,115.571 120.022,115.238 121.5,115.5 Z"/></g>
<g><path style="opacity:1" fill="#a7874f" d="M 39.5,116.5 C 40.4972,116.47 41.1639,116.97 41.5,118C 40.4345,121.094 39.7678,124.26 39.5,127.5C 38.8333,127.5 38.1667,127.5 37.5,127.5C 37.9111,123.779 38.5778,120.112 39.5,116.5 Z"/></g>
<g><path style="opacity:1" fill="#3f3a1f" d="M 46.5,111.5 C 46.2322,113.099 46.5655,114.432 47.5,115.5C 48.782,118.617 50.9487,120.95 54,122.5C 54.3988,122.272 54.5654,121.938 54.5,121.5C 54.8333,121.5 55.1667,121.5 55.5,121.5C 55.4828,123.565 55.1495,125.565 54.5,127.5C 49.5,127.5 44.5,127.5 39.5,127.5C 39.7678,124.26 40.4345,121.094 41.5,118C 41.1639,116.97 40.4972,116.47 39.5,116.5C 41.2143,115.262 43.2143,114.595 45.5,114.5C 45.2627,113.209 45.596,112.209 46.5,111.5 Z"/></g>
<g><path style="opacity:1" fill="#7f855c" d="M 31.5,124.5 C 29.6112,123.62 27.6112,123.62 25.5,124.5C 24.5987,123.71 23.9321,122.71 23.5,121.5C 23.5,120.5 23.5,119.5 23.5,118.5C 25.1238,118.64 26.2904,117.973 27,116.5C 28.2567,119.351 29.7567,122.018 31.5,124.5 Z"/></g>
<g><path style="opacity:1" fill="#282b1e" d="M 89.5,127.5 C 80.1667,127.5 70.8333,127.5 61.5,127.5C 61.0825,126.778 60.4158,126.278 59.5,126C 59.9817,124.992 60.1484,123.825 60,122.5C 62.124,123.227 64.2906,123.894 66.5,124.5C 68.596,122.734 70.9293,121.401 73.5,120.5C 77.3345,123.238 81.6678,124.405 86.5,124C 86.8333,123.667 87.1667,123.333 87.5,123C 85.0276,121.399 84.0276,119.399 84.5,117C 83.09,116.632 82.09,115.799 81.5,114.5C 82.7277,112.679 84.3944,111.679 86.5,111.5C 86.238,110.022 86.5713,108.689 87.5,107.5C 90.922,104.71 91.5887,104.877 89.5,108C 90.7376,107.923 91.7376,108.089 92.5,108.5C 90.9764,111.82 89.9764,115.32 89.5,119C 90.8333,120.333 92.1667,121.667 93.5,123C 92.4366,124.188 91.1033,124.688 89.5,124.5C 89.5,125.5 89.5,126.5 89.5,127.5 Z"/></g>
<g><path style="opacity:1" fill="#27261a" d="M 127.5,102.5 C 127.5,110.5 127.5,118.5 127.5,126.5C 125.549,126.773 124.049,126.107 123,124.5C 122.333,125.167 121.667,125.833 121,126.5C 120.749,124.567 120.249,122.734 119.5,121C 120.094,120.536 120.761,120.369 121.5,120.5C 122.239,120.631 122.906,120.464 123.5,120C 122.901,118.378 122.234,116.878 121.5,115.5C 120.791,114.596 119.791,114.263 118.5,114.5C 118.753,112.173 118.086,110.173 116.5,108.5C 118.012,107.138 119.512,106.804 121,107.5C 121.333,106.5 121.667,105.5 122,104.5C 124.574,105.92 126.407,105.253 127.5,102.5 Z"/></g>
<g><path style="opacity:1" fill="#4c4017" d="M 31.5,124.5 C 30.8902,125.391 30.5569,126.391 30.5,127.5C 28.5,127.5 26.5,127.5 24.5,127.5C 25.1098,126.609 25.4431,125.609 25.5,124.5C 27.6112,123.62 29.6112,123.62 31.5,124.5 Z"/></g>
</svg>
