<?xml version="1.0" encoding="UTF-8"?>
<!DOCTYPE svg PUBLIC "-//W3C//DTD SVG 1.1//EN" "http://www.w3.org/Graphics/SVG/1.1/DTD/svg11.dtd">
<svg xmlns="http://www.w3.org/2000/svg" version="1.1" width="128px" height="128px" style="shape-rendering:geometricPrecision; text-rendering:geometricPrecision; image-rendering:optimizeQuality; fill-rule:evenodd; clip-rule:evenodd" xmlns:xlink="http://www.w3.org/1999/xlink">
<g><path style="opacity:1" fill="#292813" d="M 54.5,0.5 C 55.2625,1.26791 56.2625,1.76791 57.5,2C 55.3599,4.7998 53.3599,4.63313 51.5,1.5C 52.209,0.596028 53.209,0.262695 54.5,0.5 Z"/></g>
<g><path style="opacity:1" fill="#34331b" d="M 73.5,0.5 C 77.5,1.5 81.5,2.5 85.5,3.5C 84.3955,5.15335 84.2288,6.82001 85,8.5C 83.9887,9.33663 82.8221,9.66997 81.5,9.5C 81.67,10.8221 81.3366,11.9887 80.5,13C 81.3333,13.8333 82.1667,14.6667 83,15.5C 83.6172,14.5509 83.4506,13.7175 82.5,13C 84.3869,12.2204 86.0536,12.3871 87.5,13.5C 85.5,13.5 84.5,14.5 84.5,16.5C 83.8902,17.391 83.5569,18.391 83.5,19.5C 81.3369,18.7194 81.0036,19.5528 82.5,22C 78.6265,21.5404 74.9599,21.7071 71.5,22.5C 69.8067,20.4331 69.14,18.2664 69.5,16C 71.739,11.0652 73.0723,5.89856 73.5,0.5 Z"/></g>
<g><path style="opacity:0.631" fill="#2c2b15" d="M 31.5,8.5 C 31.9081,9.64314 32.5748,10.6431 33.5,11.5C 34.451,10.6744 35.451,10.5078 36.5,11C 35.6634,12.0113 35.33,13.1779 35.5,14.5C 33.54,13.8617 31.7067,13.8617 30,14.5C 29.2904,13.0267 28.1238,12.3601 26.5,12.5C 27.5794,10.457 29.246,9.1237 31.5,8.5 Z"/></g>
<g><path style="opacity:1" fill="#423e24" d="M 45.5,2.5 C 48.0575,5.14484 50.7242,7.8115 53.5,10.5C 53.8333,11.1667 54.1667,11.8333 54.5,12.5C 54.2528,13.7133 53.5862,14.38 52.5,14.5C 52.4207,13.0416 51.9207,11.7083 51,10.5C 49.3029,12.699 47.8029,15.0324 46.5,17.5C 47.1667,19.1667 47.8333,20.8333 48.5,22.5C 47.635,23.5827 46.635,23.7494 45.5,23C 44.1667,22.3333 44.1667,21.6667 45.5,21C 43.7703,19.1476 42.6036,19.3143 42,21.5C 40.3831,20.4642 40.2164,19.2975 41.5,18C 40.8333,17.6667 40.1667,17.3333 39.5,17C 40.5,16.1667 41.5,15.3333 42.5,14.5C 41.3318,13.0944 41.6652,11.9277 43.5,11C 42.3682,8.78991 40.8682,8.28991 39,9.5C 37.6898,8.86988 36.8565,7.86988 36.5,6.5C 39.0884,4.40821 42.0884,3.07488 45.5,2.5 Z"/></g>
<g><path style="opacity:1" fill="#635830" d="M 54.5,0.5 C 56.5,0.5 58.5,0.5 60.5,0.5C 60.2381,2.5638 59.0714,3.89713 57,4.5C 56.3333,5.5 56.3333,6.5 57,7.5C 59.5728,6.19352 61.9061,4.52685 64,2.5C 64.677,4.68905 65.8437,5.02238 67.5,3.5C 68.8795,6.31787 68.7129,8.98453 67,11.5C 63.924,6.13638 61.0906,6.46971 58.5,12.5C 60.4511,13.2079 62.7845,13.8746 65.5,14.5C 65.7318,19.797 63.8985,20.797 60,17.5C 58.3419,17.6752 57.0086,18.3418 56,19.5C 54.2977,18.8058 52.4643,18.8058 50.5,19.5C 49.9569,19.44 49.6236,19.1067 49.5,18.5C 50.9095,17.4305 51.9095,16.0972 52.5,14.5C 53.5862,14.38 54.2528,13.7133 54.5,12.5C 54.1667,11.8333 53.8333,11.1667 53.5,10.5C 50.7242,7.8115 48.0575,5.14484 45.5,2.5C 47.4352,1.85048 49.4352,1.51715 51.5,1.5C 53.3599,4.63313 55.3599,4.7998 57.5,2C 56.2625,1.76791 55.2625,1.26791 54.5,0.5 Z"/></g>
<g><path style="opacity:1" fill="#292919" d="M 85.5,3.5 C 106.284,12.2888 119.618,27.6221 125.5,49.5C 123.352,49.3894 123.019,50.056 124.5,51.5C 123.28,53.4956 121.614,54.3289 119.5,54C 122.768,52.3584 123.101,50.5251 120.5,48.5C 117.5,48.5 114.5,48.5 111.5,48.5C 113.307,43.7847 114.307,39.118 114.5,34.5C 114.5,33.5 114.5,32.5 114.5,31.5C 111.795,31.6198 111.128,30.6198 112.5,28.5C 111.726,27.2888 110.893,27.2888 110,28.5C 109.508,27.451 109.674,26.451 110.5,25.5C 108.115,21.9513 104.948,19.2846 101,17.5C 100.127,17.7355 99.2935,18.0688 98.5,18.5C 97.912,16.0891 96.7454,14.0891 95,12.5C 94.6667,13.5 94.3333,14.5 94,15.5C 92.2528,13.0815 90.0862,12.4148 87.5,13.5C 86.0536,12.3871 84.3869,12.2204 82.5,13C 83.4506,13.7175 83.6172,14.5509 83,15.5C 82.1667,14.6667 81.3333,13.8333 80.5,13C 81.3366,11.9887 81.67,10.8221 81.5,9.5C 82.8221,9.66997 83.9887,9.33663 85,8.5C 84.2288,6.82001 84.3955,5.15335 85.5,3.5 Z"/></g>
<g><path style="opacity:1" fill="#786b43" d="M 36.5,6.5 C 36.8565,7.86988 37.6898,8.86988 39,9.5C 40.8682,8.28991 42.3682,8.78991 43.5,11C 41.6652,11.9277 41.3318,13.0944 42.5,14.5C 41.5,15.3333 40.5,16.1667 39.5,17C 40.1667,17.3333 40.8333,17.6667 41.5,18C 40.2164,19.2975 40.3831,20.4642 42,21.5C 42.6036,19.3143 43.7703,19.1476 45.5,21C 44.1667,21.6667 44.1667,22.3333 45.5,23C 46.635,23.7494 47.635,23.5827 48.5,22.5C 47.8333,20.8333 47.1667,19.1667 46.5,17.5C 47.8029,15.0324 49.3029,12.699 51,10.5C 51.9207,11.7083 52.4207,13.0416 52.5,14.5C 51.9095,16.0972 50.9095,17.4305 49.5,18.5C 49.6236,19.1067 49.9569,19.44 50.5,19.5C 50.5,20.1667 50.5,20.8333 50.5,21.5C 48.8968,24.5088 49.5635,27.5088 52.5,30.5C 50.8007,30.5271 49.4674,31.1938 48.5,32.5C 47.3466,30.1932 46.1799,27.8599 45,25.5C 44.1667,26.5 43.3333,27.5 42.5,28.5C 41.8133,26.7256 40.9799,25.0589 40,23.5C 39.5831,24.756 38.7498,25.4226 37.5,25.5C 40.4891,18.3099 39.3224,17.3099 34,22.5C 32.872,24.3453 32.372,26.3453 32.5,28.5C 31.8333,28.8333 31.1667,29.1667 30.5,29.5C 30.3921,27.7909 30.2254,25.7909 30,23.5C 28.7267,21.2864 27.7267,18.953 27,16.5C 26.1841,15.1772 25.0174,14.5106 23.5,14.5C 23.9731,13.0937 24.9731,12.427 26.5,12.5C 28.1238,12.3601 29.2904,13.0267 30,14.5C 31.7067,13.8617 33.54,13.8617 35.5,14.5C 35.33,13.1779 35.6634,12.0113 36.5,11C 35.451,10.5078 34.451,10.6744 33.5,11.5C 32.5748,10.6431 31.9081,9.64314 31.5,8.5C 33.0495,7.5592 34.7162,6.89254 36.5,6.5 Z"/></g>
<g><path style="opacity:1" fill="#4a492a" d="M 23.5,14.5 C 25.0174,14.5106 26.1841,15.1772 27,16.5C 27.7267,18.953 28.7267,21.2864 30,23.5C 30.2254,25.7909 30.3921,27.7909 30.5,29.5C 30.1141,32.2617 28.7808,33.2617 26.5,32.5C 26.0509,29.9564 26.0509,27.2898 26.5,24.5C 25.5,24.5 24.5,24.5 23.5,24.5C 24.67,21.4695 24.0033,18.8028 21.5,16.5C 21.8333,15.5 22.5,14.8333 23.5,14.5 Z"/></g>
<g><path style="opacity:1" fill="#6d603c" d="M 114.5,34.5 C 113.833,34.1667 113.167,33.8333 112.5,33.5C 110.167,33.5 107.833,33.5 105.5,33.5C 105.167,32.1667 104.833,30.8333 104.5,29.5C 105.478,29.189 106.145,28.5223 106.5,27.5C 105.652,25.5914 105.318,23.5914 105.5,21.5C 101.714,20.9794 100.047,22.3127 100.5,25.5C 98.7103,28.047 97.0436,27.7137 95.5,24.5C 97.482,23.7838 99.1487,22.6171 100.5,21C 95.5569,18.263 90.2235,16.763 84.5,16.5C 84.5,14.5 85.5,13.5 87.5,13.5C 90.0862,12.4148 92.2528,13.0815 94,15.5C 94.3333,14.5 94.6667,13.5 95,12.5C 96.7454,14.0891 97.912,16.0891 98.5,18.5C 99.2935,18.0688 100.127,17.7355 101,17.5C 104.948,19.2846 108.115,21.9513 110.5,25.5C 109.674,26.451 109.508,27.451 110,28.5C 110.893,27.2888 111.726,27.2888 112.5,28.5C 111.128,30.6198 111.795,31.6198 114.5,31.5C 114.5,32.5 114.5,33.5 114.5,34.5 Z"/></g>
<g><path style="opacity:1" fill="#423a1b" d="M 60.5,0.5 C 64.8333,0.5 69.1667,0.5 73.5,0.5C 73.0723,5.89856 71.739,11.0652 69.5,16C 69.14,18.2664 69.8067,20.4331 71.5,22.5C 70.8333,22.5 70.5,22.8333 70.5,23.5C 68.8606,25.8061 66.8606,27.8061 64.5,29.5C 63.8485,28.9094 63.1818,28.2427 62.5,27.5C 61.8933,27.6236 61.56,27.9569 61.5,28.5C 61.44,29.0431 61.1067,29.3764 60.5,29.5C 60.0894,28.7376 59.9227,27.7376 60,26.5C 58.2894,27.5814 56.7894,27.248 55.5,25.5C 52.1742,25.0328 51.8409,23.8661 54.5,22C 53.2068,21.51 51.8734,21.3433 50.5,21.5C 50.5,20.8333 50.5,20.1667 50.5,19.5C 52.4643,18.8058 54.2977,18.8058 56,19.5C 57.0086,18.3418 58.3419,17.6752 60,17.5C 63.8985,20.797 65.7318,19.797 65.5,14.5C 62.7845,13.8746 60.4511,13.2079 58.5,12.5C 61.0906,6.46971 63.924,6.13638 67,11.5C 68.7129,8.98453 68.8795,6.31787 67.5,3.5C 65.8437,5.02238 64.677,4.68905 64,2.5C 61.9061,4.52685 59.5728,6.19352 57,7.5C 56.3333,6.5 56.3333,5.5 57,4.5C 59.0714,3.89713 60.2381,2.5638 60.5,0.5 Z"/></g>
<g><path style="opacity:1" fill="#979675" d="M 21.5,16.5 C 24.0033,18.8028 24.67,21.4695 23.5,24.5C 21.4284,22.6505 20.0951,20.3171 19.5,17.5C 19.8417,16.6618 20.5084,16.3284 21.5,16.5 Z"/></g>
<g><path style="opacity:1" fill="#be975f" d="M 37.5,25.5 C 36.9553,27.5932 36.122,29.5932 35,31.5C 33.955,30.6266 33.1217,29.6266 32.5,28.5C 32.372,26.3453 32.872,24.3453 34,22.5C 39.3224,17.3099 40.4891,18.3099 37.5,25.5 Z"/></g>
<g><path style="opacity:1" fill="#312817" d="M 104.5,29.5 C 103.717,27.672 102.384,26.3387 100.5,25.5C 100.047,22.3127 101.714,20.9794 105.5,21.5C 105.318,23.5914 105.652,25.5914 106.5,27.5C 106.145,28.5223 105.478,29.189 104.5,29.5 Z"/></g>
<g><path style="opacity:1" fill="#a3a88a" d="M 50.5,21.5 C 51.8734,21.3433 53.2068,21.51 54.5,22C 51.8409,23.8661 52.1742,25.0328 55.5,25.5C 55.3601,27.1238 56.0267,28.2904 57.5,29C 56.0953,30.2692 54.4286,30.7692 52.5,30.5C 49.5635,27.5088 48.8968,24.5088 50.5,21.5 Z"/></g>
<g><path style="opacity:1" fill="#a27c47" d="M 70.5,23.5 C 71.5862,23.62 72.2528,24.2867 72.5,25.5C 71.1964,30.1081 68.8631,34.1081 65.5,37.5C 64.52,34.9135 64.1866,32.2469 64.5,29.5C 66.8606,27.8061 68.8606,25.8061 70.5,23.5 Z"/></g>
<g><path style="opacity:1" fill="#6d603b" d="M 83.5,19.5 C 84.6694,19.2716 86.0028,19.7716 87.5,21C 85.9443,21.7202 84.9443,22.8868 84.5,24.5C 81.1955,25.4066 80.8622,26.9066 83.5,29C 85.9342,29.3329 86.9342,28.1662 86.5,25.5C 89.4076,23.1836 91.4076,23.5169 92.5,26.5C 91.3318,27.9056 91.6652,29.0723 93.5,30C 91.6332,30.7112 90.1332,30.2112 89,28.5C 87.8652,30.3699 87.0319,32.3699 86.5,34.5C 85.7784,34.0825 85.2784,33.4158 85,32.5C 84.6655,35.1899 83.4988,35.8565 81.5,34.5C 81.8146,32.7741 81.9813,31.1075 82,29.5C 80.3189,31.2941 78.4856,31.7941 76.5,31C 76.9574,31.414 77.2907,31.914 77.5,32.5C 76.2887,33.8745 75.2887,35.3745 74.5,37C 74.9891,38.5637 75.3224,40.0637 75.5,41.5C 72.8122,40.9759 71.3122,39.3092 71,36.5C 69.9326,37.1905 68.7659,37.6905 67.5,38C 67.8333,38.3333 68.1667,38.6667 68.5,39C 67.2899,40.0391 66.2899,41.2058 65.5,42.5C 62.3519,38.0841 58.0185,35.4174 52.5,34.5C 54.99,34.0228 56.99,32.6895 58.5,30.5C 60.2671,34.3167 61.6004,33.9834 62.5,29.5C 62.3764,28.8933 62.0431,28.56 61.5,28.5C 61.56,27.9569 61.8933,27.6236 62.5,27.5C 63.1818,28.2427 63.8485,28.9094 64.5,29.5C 64.1866,32.2469 64.52,34.9135 65.5,37.5C 68.8631,34.1081 71.1964,30.1081 72.5,25.5C 72.2528,24.2867 71.5862,23.62 70.5,23.5C 70.5,22.8333 70.8333,22.5 71.5,22.5C 74.9599,21.7071 78.6265,21.5404 82.5,22C 81.0036,19.5528 81.3369,18.7194 83.5,19.5 Z"/></g>
<g><path style="opacity:1" fill="#b6b496" d="M 84.5,24.5 C 85.1667,24.8333 85.8333,25.1667 86.5,25.5C 86.9342,28.1662 85.9342,29.3329 83.5,29C 80.8622,26.9066 81.1955,25.4066 84.5,24.5 Z"/></g>
<g><path style="opacity:1" fill="#967e4c" d="M 55.5,25.5 C 56.7894,27.248 58.2894,27.5814 60,26.5C 59.9227,27.7376 60.0894,28.7376 60.5,29.5C 61.1067,29.3764 61.44,29.0431 61.5,28.5C 62.0431,28.56 62.3764,28.8933 62.5,29.5C 61.6004,33.9834 60.2671,34.3167 58.5,30.5C 56.99,32.6895 54.99,34.0228 52.5,34.5C 50.5,34.5 48.5,34.5 46.5,34.5C 46.8333,33.5 47.5,32.8333 48.5,32.5C 49.4674,31.1938 50.8007,30.5271 52.5,30.5C 54.4286,30.7692 56.0953,30.2692 57.5,29C 56.0267,28.2904 55.3601,27.1238 55.5,25.5 Z"/></g>
<g><path style="opacity:1" fill="#30321d" d="M 19.5,17.5 C 20.0951,20.3171 21.4284,22.6505 23.5,24.5C 24.5,24.5 25.5,24.5 26.5,24.5C 26.0509,27.2898 26.0509,29.9564 26.5,32.5C 28.7808,33.2617 30.1141,32.2617 30.5,29.5C 31.1667,29.1667 31.8333,28.8333 32.5,28.5C 33.1217,29.6266 33.955,30.6266 35,31.5C 36.122,29.5932 36.9553,27.5932 37.5,25.5C 38.7498,25.4226 39.5831,24.756 40,23.5C 40.9799,25.0589 41.8133,26.7256 42.5,28.5C 43.3333,27.5 44.1667,26.5 45,25.5C 46.1799,27.8599 47.3466,30.1932 48.5,32.5C 47.5,32.8333 46.8333,33.5 46.5,34.5C 39.1667,34.5 31.8333,34.5 24.5,34.5C 21.066,46.6703 18.3993,59.0036 16.5,71.5C 15.5041,71.4142 14.6708,71.7476 14,72.5C 13.0296,75.4436 12.1962,78.4436 11.5,81.5C 10.4805,82.6872 9.31386,83.6872 8,84.5C 6.58609,83.5868 5.08609,83.5868 3.5,84.5C 2.69929,82.9582 2.36596,81.2915 2.5,79.5C 6.16107,79.5743 6.82773,78.5743 4.5,76.5C 5.81553,73.6673 7.81553,72.834 10.5,74C 8.19516,72.3361 8.52849,70.8361 11.5,69.5C 12.7362,70.2458 14.0695,70.5792 15.5,70.5C 15.8897,67.5342 15.223,64.8676 13.5,62.5C 14.6011,60.6061 15.9345,59.9394 17.5,60.5C 16.6667,60.1667 15.8333,59.8333 15,59.5C 12.2687,60.6166 9.43534,61.2833 6.5,61.5C 6.5,62.5 6.5,63.5 6.5,64.5C 5.17793,64.67 4.01127,64.3366 3,63.5C 2.23703,66.0635 1.73703,66.0635 1.5,63.5C 2.48392,61.5201 3.81725,59.8534 5.5,58.5C 7.52606,53.5513 6.52606,49.5513 2.5,46.5C 5.36451,35.0921 11.0312,25.4254 19.5,17.5 Z"/></g>
<g><path style="opacity:1" fill="#fcfcfc" d="M 105.5,33.5 C 107.833,33.5 110.167,33.5 112.5,33.5C 110.353,42.7577 108.52,52.0911 107,61.5C 105.591,69.1391 103.258,76.4724 100,83.5C 91.8501,91.5958 82.3501,93.5958 71.5,89.5C 70.1535,87.4632 68.8202,85.4632 67.5,83.5C 67.3531,78.7858 67.6864,74.1191 68.5,69.5C 72.649,68.9197 76.3157,69.5864 79.5,71.5C 78.5651,74.1128 78.3985,76.7795 79,79.5C 79.4169,80.756 80.2502,81.4226 81.5,81.5C 84.3404,82.9171 87.007,82.5838 89.5,80.5C 93.9563,68.2083 96.9563,55.5416 98.5,42.5C 99.9279,39.6967 100.595,36.6967 100.5,33.5C 102.167,33.5 103.833,33.5 105.5,33.5 Z"/></g>
<g><path style="opacity:1" fill="#fbfbfb" d="M 46.5,34.5 C 48.5,34.5 50.5,34.5 52.5,34.5C 58.0185,35.4174 62.3519,38.0841 65.5,42.5C 65.9887,43.9952 66.6554,45.3285 67.5,46.5C 67.6659,51.5111 67.4993,56.5111 67,61.5C 65.4281,66.3041 63.5947,70.9708 61.5,75.5C 61.5,75.8333 61.5,76.1667 61.5,76.5C 58.9704,79.6883 56.3038,82.855 53.5,86C 49.7293,88.2187 45.7293,89.8854 41.5,91C 32.5062,91.4998 23.5062,91.6664 14.5,91.5C 12.1553,89.643 11.822,87.3096 13.5,84.5C 14.3434,80.1266 15.3434,75.7933 16.5,71.5C 18.3993,59.0036 21.066,46.6703 24.5,34.5C 31.8333,34.5 39.1667,34.5 46.5,34.5 Z"/></g>
<g><path style="opacity:1" fill="#9ca07f" d="M 81.5,34.5 C 81.1062,38.3909 79.2729,41.3909 76,43.5C 75.5357,42.9056 75.369,42.2389 75.5,41.5C 75.3224,40.0637 74.9891,38.5637 74.5,37C 75.2887,35.3745 76.2887,33.8745 77.5,32.5C 77.2907,31.914 76.9574,31.414 76.5,31C 78.4856,31.7941 80.3189,31.2941 82,29.5C 81.9813,31.1075 81.8146,32.7741 81.5,34.5 Z"/></g>
<g><path style="opacity:1" fill="#453e22" d="M 84.5,16.5 C 90.2235,16.763 95.5569,18.263 100.5,21C 99.1487,22.6171 97.482,23.7838 95.5,24.5C 97.0436,27.7137 98.7103,28.047 100.5,25.5C 102.384,26.3387 103.717,27.672 104.5,29.5C 104.833,30.8333 105.167,32.1667 105.5,33.5C 103.833,33.5 102.167,33.5 100.5,33.5C 100.595,36.6967 99.9279,39.6967 98.5,42.5C 96.8297,42.2488 95.3297,41.5822 94,40.5C 93.1751,42.7008 93.6751,44.5341 95.5,46C 93.8988,46.2734 92.3988,46.7734 91,47.5C 90.0093,46.5704 89.5093,45.4038 89.5,44C 90.5632,42.2127 91.0632,40.3793 91,38.5C 89.3057,37.3012 87.8057,35.9678 86.5,34.5C 87.0319,32.3699 87.8652,30.3699 89,28.5C 90.1332,30.2112 91.6332,30.7112 93.5,30C 91.6652,29.0723 91.3318,27.9056 92.5,26.5C 91.4076,23.5169 89.4076,23.1836 86.5,25.5C 85.8333,25.1667 85.1667,24.8333 84.5,24.5C 84.9443,22.8868 85.9443,21.7202 87.5,21C 86.0028,19.7716 84.6694,19.2716 83.5,19.5C 83.5569,18.391 83.8902,17.391 84.5,16.5 Z"/></g>
<g><path style="opacity:1" fill="#31301b" d="M 86.5,34.5 C 87.8057,35.9678 89.3057,37.3012 91,38.5C 91.0632,40.3793 90.5632,42.2127 89.5,44C 89.5093,45.4038 90.0093,46.5704 91,47.5C 92.3988,46.7734 93.8988,46.2734 95.5,46C 93.6751,44.5341 93.1751,42.7008 94,40.5C 95.3297,41.5822 96.8297,42.2488 98.5,42.5C 96.9563,55.5416 93.9563,68.2083 89.5,80.5C 87.744,79.4479 87.0773,77.7812 87.5,75.5C 81.6416,76.4999 81.3083,78.3333 86.5,81C 84.8659,81.4935 83.1992,81.6602 81.5,81.5C 80.0225,78.239 80.6892,75.4057 83.5,73C 82.255,72.2086 80.9217,71.7086 79.5,71.5C 76.3157,69.5864 72.649,68.9197 68.5,69.5C 68.1667,69.5 67.8333,69.5 67.5,69.5C 68.2097,65.9752 69.2097,62.6418 70.5,59.5C 70.0058,54.959 69.0058,50.6256 67.5,46.5C 66.6554,45.3285 65.9887,43.9952 65.5,42.5C 66.2899,41.2058 67.2899,40.0391 68.5,39C 68.1667,38.6667 67.8333,38.3333 67.5,38C 68.7659,37.6905 69.9326,37.1905 71,36.5C 71.3122,39.3092 72.8122,40.9759 75.5,41.5C 75.369,42.2389 75.5357,42.9056 76,43.5C 79.2729,41.3909 81.1062,38.3909 81.5,34.5C 83.4988,35.8565 84.6655,35.1899 85,32.5C 85.2784,33.4158 85.7784,34.0825 86.5,34.5 Z"/></g>
<g><path style="opacity:1" fill="#a68355" d="M 111.5,48.5 C 114.5,48.5 117.5,48.5 120.5,48.5C 120.5,49.1667 120.5,49.8333 120.5,50.5C 117.5,50.5 114.5,50.5 111.5,50.5C 111.5,49.8333 111.5,49.1667 111.5,48.5 Z"/></g>
<g><path style="opacity:1" fill="#83805e" d="M 84.5,53.5 C 83.5448,51.2543 82.8782,48.921 82.5,46.5C 83.552,46.3505 84.552,46.5172 85.5,47C 85.1667,47.3333 84.8333,47.6667 84.5,48C 86.5,49.3333 88.5,50.6667 90.5,52C 88.8374,52.2649 87.3374,51.7649 86,50.5C 85.3828,51.4491 85.5494,52.2825 86.5,53C 85.9056,53.4643 85.2389,53.631 84.5,53.5 Z"/></g>
<g><path style="opacity:1" fill="#88877e" d="M 53.5,47.5 C 47.5594,46.5872 41.5594,46.2539 35.5,46.5C 33.6902,52.523 32.6902,58.523 32.5,64.5C 31.8826,64.6107 31.3826,64.944 31,65.5C 30.4825,70.8978 29.6492,76.2311 28.5,81.5C 32.1817,81.6653 35.8484,81.4986 39.5,81C 40.056,80.6174 40.3893,80.1174 40.5,79.5C 41.1174,79.3893 41.6174,79.056 42,78.5C 42.2784,79.4158 42.7784,80.0825 43.5,80.5C 42.7375,81.2679 41.7375,81.7679 40.5,82C 35.5111,82.4993 30.5111,82.6659 25.5,82.5C 28.4226,70.22 31.0893,57.8867 33.5,45.5C 39.4724,44.3364 45.4724,44.1697 51.5,45C 52.3805,45.7083 53.0472,46.5416 53.5,47.5 Z"/></g>
<g><path style="opacity:1" fill="#999772" d="M 78.5,49.5 C 79.397,50.5981 80.2303,50.5981 81,49.5C 81.9487,51.0931 83.1154,52.4264 84.5,53.5C 84.5,53.8333 84.5,54.1667 84.5,54.5C 84.44,55.0431 84.1067,55.3764 83.5,55.5C 82.4164,54.3349 81.5831,53.0016 81,51.5C 80.5774,52.9561 79.7441,53.4561 78.5,53C 77.8288,52.0138 77.8288,50.8471 78.5,49.5 Z"/></g>
<g><path style="opacity:1" fill="#434022" d="M 111.5,50.5 C 114.5,50.5 117.5,50.5 120.5,50.5C 119.737,51.2679 118.737,51.7679 117.5,52C 116.1,56.8979 113.1,60.3979 108.5,62.5C 109.5,58.5007 110.5,54.5007 111.5,50.5 Z"/></g>
<g><path style="opacity:1" fill="#514926" d="M 78.5,49.5 C 77.8288,50.8471 77.8288,52.0138 78.5,53C 79.7441,53.4561 80.5774,52.9561 81,51.5C 81.5831,53.0016 82.4164,54.3349 83.5,55.5C 84.1067,55.3764 84.44,55.0431 84.5,54.5C 85.8968,56.3793 87.5635,58.0459 89.5,59.5C 84.9363,60.197 80.6029,60.197 76.5,59.5C 75.1667,59.5 73.8333,59.5 72.5,59.5C 72.822,57.2776 72.1554,55.4443 70.5,54C 72.1068,53.8849 73.6068,54.3849 75,55.5C 75.5,55.1667 76,54.8333 76.5,54.5C 74.9539,53.316 73.2873,52.316 71.5,51.5C 72.7662,50.2764 73.9328,48.9431 75,47.5C 75.9147,48.3279 76.5814,49.3279 77,50.5C 77.3826,49.944 77.8826,49.6107 78.5,49.5 Z"/></g>
<g><path style="opacity:1" fill="#817c51" d="M 120.5,48.5 C 123.101,50.5251 122.768,52.3584 119.5,54C 121.614,54.3289 123.28,53.4956 124.5,51.5C 123.019,50.056 123.352,49.3894 125.5,49.5C 125.833,50.8333 126.167,52.1667 126.5,53.5C 125.265,53.7214 124.265,54.3881 123.5,55.5C 122.354,58.2794 121.021,60.9461 119.5,63.5C 117.803,62.6364 116.637,61.3031 116,59.5C 114.009,61.4572 112.009,63.4572 110,65.5C 109.617,64.944 109.117,64.6107 108.5,64.5C 108.5,63.8333 108.5,63.1667 108.5,62.5C 113.1,60.3979 116.1,56.8979 117.5,52C 118.737,51.7679 119.737,51.2679 120.5,50.5C 120.5,49.8333 120.5,49.1667 120.5,48.5 Z"/></g>
<g><path style="opacity:1" fill="#807f78" d="M 67.5,46.5 C 69.0058,50.6256 70.0058,54.959 70.5,59.5C 69.2097,62.6418 68.2097,65.9752 67.5,69.5C 66.3793,71.7415 65.2126,74.0748 64,76.5C 63.3292,75.7476 62.4959,75.4142 61.5,75.5C 63.5947,70.9708 65.4281,66.3041 67,61.5C 67.4993,56.5111 67.6659,51.5111 67.5,46.5 Z"/></g>
<g><path style="opacity:1" fill="#222515" d="M 2.5,46.5 C 6.52606,49.5513 7.52606,53.5513 5.5,58.5C 3.81725,59.8534 2.48392,61.5201 1.5,63.5C 1.73703,66.0635 2.23703,66.0635 3,63.5C 4.01127,64.3366 5.17793,64.67 6.5,64.5C 6.5,63.5 6.5,62.5 6.5,61.5C 9.43534,61.2833 12.2687,60.6166 15,59.5C 15.8333,59.8333 16.6667,60.1667 17.5,60.5C 15.9345,59.9394 14.6011,60.6061 13.5,62.5C 15.223,64.8676 15.8897,67.5342 15.5,70.5C 14.0695,70.5792 12.7362,70.2458 11.5,69.5C 8.52849,70.8361 8.19516,72.3361 10.5,74C 7.81553,72.834 5.81553,73.6673 4.5,76.5C 6.82773,78.5743 6.16107,79.5743 2.5,79.5C 0.942907,74.431 0.27624,69.0976 0.5,63.5C 0.307839,57.6735 0.974506,52.0069 2.5,46.5 Z"/></g>
<g><path style="opacity:1" fill="#a99c64" d="M 70.5,59.5 C 71.1667,59.5 71.8333,59.5 72.5,59.5C 73.8333,59.5 75.1667,59.5 76.5,59.5C 77.8189,61.6055 77.4856,63.6055 75.5,65.5C 73.086,64.0892 71.4194,62.0892 70.5,59.5 Z"/></g>
<g><path style="opacity:1" fill="#292a18" d="M 126.5,53.5 C 126.666,60.8409 126.5,68.1742 126,75.5C 125.79,77.0581 125.29,78.3915 124.5,79.5C 123.451,76.3995 122.118,73.3995 120.5,70.5C 119.264,71.2458 117.93,71.5792 116.5,71.5C 115.8,74.0627 114.8,76.5627 113.5,79C 115.115,82.0878 115.782,81.5878 115.5,77.5C 116.978,77.238 118.311,77.5713 119.5,78.5C 119.291,79.086 118.957,79.586 118.5,80C 119.833,81.6667 121.167,83.3333 122.5,85C 120.527,85.4955 118.527,85.6621 116.5,85.5C 114.435,85.4828 112.435,85.1495 110.5,84.5C 109.772,79.5488 109.272,74.5488 109,69.5C 108.617,70.056 108.117,70.3893 107.5,70.5C 108.15,68.5648 108.483,66.5648 108.5,64.5C 109.117,64.6107 109.617,64.944 110,65.5C 112.009,63.4572 114.009,61.4572 116,59.5C 116.637,61.3031 117.803,62.6364 119.5,63.5C 121.021,60.9461 122.354,58.2794 123.5,55.5C 124.265,54.3881 125.265,53.7214 126.5,53.5 Z"/></g>
<g><path style="opacity:1" fill="#3b3c26" d="M 53.5,47.5 C 54.3382,47.8417 54.6716,48.5084 54.5,49.5C 55.8122,55.1178 55.4789,60.7844 53.5,66.5C 49.2946,66.6932 45.9612,68.3598 43.5,71.5C 42.9688,69.3763 41.6355,67.8763 39.5,67C 38.5509,66.3828 37.7175,66.5494 37,67.5C 35.6003,66.252 34.1003,65.252 32.5,64.5C 32.6902,58.523 33.6902,52.523 35.5,46.5C 41.5594,46.2539 47.5594,46.5872 53.5,47.5 Z"/></g>
<g><path style="opacity:1" fill="#1c2116" d="M 54.5,49.5 C 53.9871,53.546 53.1538,57.546 52,61.5C 51.586,61.9574 51.086,62.2907 50.5,62.5C 49.9037,57.3563 47.9037,56.523 44.5,60C 45.3128,61.3139 46.3128,62.4805 47.5,63.5C 46.5,64.8333 45.5,66.1667 44.5,67.5C 42.2297,65.0252 39.563,63.0252 36.5,61.5C 36.1667,60.8333 35.8333,60.1667 35.5,59.5C 36.7514,56.2437 37.7514,52.9104 38.5,49.5C 38.2907,48.914 37.9574,48.414 37.5,48C 44.2362,45.9524 47.7362,48.4524 48,55.5C 48.868,51.9555 50.368,51.2888 52.5,53.5C 53.5896,52.6086 53.5896,51.6086 52.5,50.5C 52.9569,49.7025 53.6236,49.3691 54.5,49.5 Z"/></g>
<g><path style="opacity:1" fill="#916a27" d="M 53.5,66.5 C 53.0679,67.7095 52.4013,68.7095 51.5,69.5C 48.2097,70.7718 46.3763,73.1052 46,76.5C 47.0391,75.2899 48.2058,74.2899 49.5,73.5C 48.2427,76.4274 46.2427,78.7607 43.5,80.5C 42.7784,80.0825 42.2784,79.4158 42,78.5C 41.6174,79.056 41.1174,79.3893 40.5,79.5C 40.3939,76.3855 41.3939,73.7188 43.5,71.5C 45.9612,68.3598 49.2946,66.6932 53.5,66.5 Z"/></g>
<g><path style="opacity:1" fill="#8b8b7f" d="M 79.5,71.5 C 80.9217,71.7086 82.255,72.2086 83.5,73C 80.6892,75.4057 80.0225,78.239 81.5,81.5C 80.2502,81.4226 79.4169,80.756 79,79.5C 78.3985,76.7795 78.5651,74.1128 79.5,71.5 Z"/></g>
<g><path style="opacity:1" fill="#3c3012" d="M 51.5,69.5 C 51.3404,71.153 50.6737,72.4863 49.5,73.5C 48.2058,74.2899 47.0391,75.2899 46,76.5C 46.3763,73.1052 48.2097,70.7718 51.5,69.5 Z"/></g>
<g><path style="opacity:1" fill="#898662" d="M 67.5,69.5 C 67.8333,69.5 68.1667,69.5 68.5,69.5C 67.6864,74.1191 67.3531,78.7858 67.5,83.5C 65.8212,83.2852 64.8212,83.9519 64.5,85.5C 62.9891,84.4975 61.3224,83.8308 59.5,83.5C 60.6854,82.1434 61.6854,80.6434 62.5,79C 62.2568,78.0979 61.9234,77.2646 61.5,76.5C 61.5,76.1667 61.5,75.8333 61.5,75.5C 62.4959,75.4142 63.3292,75.7476 64,76.5C 65.2126,74.0748 66.3793,71.7415 67.5,69.5 Z"/></g>
<g><path style="opacity:1" fill="#1d2217" d="M 32.5,64.5 C 34.1003,65.252 35.6003,66.252 37,67.5C 37.7175,66.5494 38.5509,66.3828 39.5,67C 41.6355,67.8763 42.9688,69.3763 43.5,71.5C 41.3939,73.7188 40.3939,76.3855 40.5,79.5C 40.3893,80.1174 40.056,80.6174 39.5,81C 35.8484,81.4986 32.1817,81.6653 28.5,81.5C 29.6492,76.2311 30.4825,70.8978 31,65.5C 31.3826,64.944 31.8826,64.6107 32.5,64.5 Z"/></g>
<g><path style="opacity:1" fill="#83805d" d="M 89.5,80.5 C 87.007,82.5838 84.3404,82.9171 81.5,81.5C 83.1992,81.6602 84.8659,81.4935 86.5,81C 81.3083,78.3333 81.6416,76.4999 87.5,75.5C 87.0773,77.7812 87.744,79.4479 89.5,80.5 Z"/></g>
<g><path style="opacity:1" fill="#3e422c" d="M 124.5,79.5 C 124.302,83.0924 123.302,86.4258 121.5,89.5C 119.167,89.5 116.833,89.5 114.5,89.5C 114.389,88.8826 114.056,88.3826 113.5,88C 114.571,87.1482 115.571,86.3149 116.5,85.5C 118.527,85.6621 120.527,85.4955 122.5,85C 121.167,83.3333 119.833,81.6667 118.5,80C 118.957,79.586 119.291,79.086 119.5,78.5C 118.311,77.5713 116.978,77.238 115.5,77.5C 115.782,81.5878 115.115,82.0878 113.5,79C 114.8,76.5627 115.8,74.0627 116.5,71.5C 117.93,71.5792 119.264,71.2458 120.5,70.5C 122.118,73.3995 123.451,76.3995 124.5,79.5 Z"/></g>
<g><path style="opacity:1" fill="#554c27" d="M 110.5,84.5 C 110.25,85.9221 109.417,86.9221 108,87.5C 108.068,89.3423 107.901,91.009 107.5,92.5C 106.611,94.8586 105.278,95.0253 103.5,93C 105.992,91.7508 105.825,90.5842 103,89.5C 101.644,90.3802 100.144,90.7135 98.5,90.5C 103.091,84.6431 106.091,77.9765 107.5,70.5C 108.117,70.3893 108.617,70.056 109,69.5C 109.272,74.5488 109.772,79.5488 110.5,84.5 Z"/></g>
<g><path style="opacity:1" fill="#818079" d="M 112.5,33.5 C 113.167,33.8333 113.833,34.1667 114.5,34.5C 114.307,39.118 113.307,43.7847 111.5,48.5C 111.5,49.1667 111.5,49.8333 111.5,50.5C 110.5,54.5007 109.5,58.5007 108.5,62.5C 108.5,63.1667 108.5,63.8333 108.5,64.5C 108.483,66.5648 108.15,68.5648 107.5,70.5C 106.091,77.9765 103.091,84.6431 98.5,90.5C 95.0455,92.2091 91.3788,93.5424 87.5,94.5C 84.5,94.5 81.5,94.5 78.5,94.5C 75.3847,94.0685 73.0514,92.4018 71.5,89.5C 82.3501,93.5958 91.8501,91.5958 100,83.5C 103.258,76.4724 105.591,69.1391 107,61.5C 108.52,52.0911 110.353,42.7577 112.5,33.5 Z"/></g>
<g><path style="opacity:1" fill="#7a7b54" d="M 67.5,83.5 C 68.8202,85.4632 70.1535,87.4632 71.5,89.5C 73.0514,92.4018 75.3847,94.0685 78.5,94.5C 78.5,95.1667 78.5,95.8333 78.5,96.5C 75.6755,96.9193 73.5088,95.9193 72,93.5C 69.9545,90.5767 67.7879,87.7433 65.5,85C 66.4158,84.7216 67.0825,84.2216 67.5,83.5 Z"/></g>
<g><path style="opacity:1" fill="#867c4f" d="M 110.5,84.5 C 112.435,85.1495 114.435,85.4828 116.5,85.5C 115.571,86.3149 114.571,87.1482 113.5,88C 114.056,88.3826 114.389,88.8826 114.5,89.5C 113.194,90.4674 112.527,91.8007 112.5,93.5C 110.784,93.3713 109.117,93.038 107.5,92.5C 107.901,91.009 108.068,89.3423 108,87.5C 109.417,86.9221 110.25,85.9221 110.5,84.5 Z"/></g>
<g><path style="opacity:1" fill="#957741" d="M 16.5,71.5 C 15.3434,75.7933 14.3434,80.1266 13.5,84.5C 12.603,83.4019 11.7697,83.4019 11,84.5C 9.77236,87.5984 8.6057,90.5984 7.5,93.5C 5.89456,90.6223 4.56123,87.6223 3.5,84.5C 5.08609,83.5868 6.58609,83.5868 8,84.5C 9.31386,83.6872 10.4805,82.6872 11.5,81.5C 12.1962,78.4436 13.0296,75.4436 14,72.5C 14.6708,71.7476 15.5041,71.4142 16.5,71.5 Z"/></g>
<g><path style="opacity:1" fill="#848279" d="M 61.5,76.5 C 61.9234,77.2646 62.2568,78.0979 62.5,79C 61.6854,80.6434 60.6854,82.1434 59.5,83.5C 59.5,83.8333 59.5,84.1667 59.5,84.5C 55.1822,88.6931 49.8489,92.0265 43.5,94.5C 41.5,94.5 39.5,94.5 37.5,94.5C 33.5874,94.1868 29.9207,94.8534 26.5,96.5C 24.22,94.7773 21.5533,94.1107 18.5,94.5C 16.712,94.7852 15.0453,94.4519 13.5,93.5C 13.8627,92.8165 14.1961,92.1499 14.5,91.5C 23.5062,91.6664 32.5062,91.4998 41.5,91C 45.7293,89.8854 49.7293,88.2187 53.5,86C 56.3038,82.855 58.9704,79.6883 61.5,76.5 Z"/></g>
<g><path style="opacity:0.931" fill="#33351e" d="M 13.5,84.5 C 11.822,87.3096 12.1553,89.643 14.5,91.5C 14.1961,92.1499 13.8627,92.8165 13.5,93.5C 15.0453,94.4519 16.712,94.7852 18.5,94.5C 17.8986,98.4978 17.232,102.164 16.5,105.5C 12.7621,102.09 9.76211,98.0897 7.5,93.5C 8.6057,90.5984 9.77236,87.5984 11,84.5C 11.7697,83.4019 12.603,83.4019 13.5,84.5 Z"/></g>
<g><path style="opacity:1" fill="#272715" d="M 37.5,94.5 C 38.0906,95.1515 38.7573,95.8182 39.5,96.5C 37.8333,97.1667 36.1667,97.8333 34.5,98.5C 36.1033,99.8986 37.4366,101.565 38.5,103.5C 39.086,103.291 39.586,102.957 40,102.5C 40.8159,103.823 41.9826,104.489 43.5,104.5C 43.4614,105.756 43.9614,106.756 45,107.5C 45.3661,105.548 46.1995,103.882 47.5,102.5C 49.9272,103.279 49.9272,104.446 47.5,106C 48.756,106.417 49.4226,107.25 49.5,108.5C 45.4908,108.858 41.4908,109.358 37.5,110C 38.1513,111.308 37.4846,112.141 35.5,112.5C 35.1788,110.952 34.1788,110.285 32.5,110.5C 33.6085,109.71 34.9419,109.21 36.5,109C 34.3625,106.561 32.8625,103.728 32,100.5C 31.6667,101.167 31.3333,101.833 31,102.5C 29.7225,100.253 28.2225,98.2528 26.5,96.5C 29.9207,94.8534 33.5874,94.1868 37.5,94.5 Z"/></g>
<g><path style="opacity:1" fill="#65562a" d="M 59.5,84.5 C 59.7793,90.1049 60.7793,95.4382 62.5,100.5C 62.2172,101.289 61.7172,101.956 61,102.5C 59.9904,99.3394 58.6571,96.3394 57,93.5C 55.9683,95.9944 54.8017,98.3277 53.5,100.5C 52.7677,101.808 51.9344,103.142 51,104.5C 50.5172,103.552 50.3505,102.552 50.5,101.5C 49.209,101.263 48.209,101.596 47.5,102.5C 46.1995,103.882 45.3661,105.548 45,107.5C 43.9614,106.756 43.4614,105.756 43.5,104.5C 43.5,101.167 43.5,97.8333 43.5,94.5C 49.8489,92.0265 55.1822,88.6931 59.5,84.5 Z"/></g>
<g><path style="opacity:1" fill="#aeac83" d="M 59.5,83.5 C 61.3224,83.8308 62.9891,84.4975 64.5,85.5C 67.6374,91.0628 66.9707,96.0628 62.5,100.5C 60.7793,95.4382 59.7793,90.1049 59.5,84.5C 59.5,84.1667 59.5,83.8333 59.5,83.5 Z"/></g>
<g><path style="opacity:1" fill="#3e3c21" d="M 37.5,94.5 C 39.5,94.5 41.5,94.5 43.5,94.5C 43.5,97.8333 43.5,101.167 43.5,104.5C 41.9826,104.489 40.8159,103.823 40,102.5C 39.586,102.957 39.086,103.291 38.5,103.5C 37.4366,101.565 36.1033,99.8986 34.5,98.5C 36.1667,97.8333 37.8333,97.1667 39.5,96.5C 38.7573,95.8182 38.0906,95.1515 37.5,94.5 Z"/></g>
<g><path style="opacity:1" fill="#181b11" d="M 18.5,94.5 C 21.5533,94.1107 24.22,94.7773 26.5,96.5C 28.2225,98.2528 29.7225,100.253 31,102.5C 31.3333,101.833 31.6667,101.167 32,100.5C 32.8625,103.728 34.3625,106.561 36.5,109C 34.9419,109.21 33.6085,109.71 32.5,110.5C 30.9557,110.297 29.6223,109.63 28.5,108.5C 26.4352,109.654 25.1019,111.32 24.5,113.5C 20.8962,111.712 18.2295,109.045 16.5,105.5C 17.232,102.164 17.8986,98.4978 18.5,94.5 Z"/></g>
<g><path style="opacity:1" fill="#272817" d="M 107.5,92.5 C 109.117,93.038 110.784,93.3713 112.5,93.5C 112.527,91.8007 113.194,90.4674 114.5,89.5C 116.833,89.5 119.167,89.5 121.5,89.5C 117.734,98.3953 112.068,105.729 104.5,111.5C 104.256,108.305 102.756,107.305 100,108.5C 97.5014,107.158 97.3347,105.992 99.5,105C 97.2705,104.131 95.6038,102.131 94.5,99C 95.7073,97.6998 96.3739,96.1998 96.5,94.5C 94.095,94.8664 91.7617,95.5331 89.5,96.5C 88.2867,96.2528 87.62,95.5862 87.5,94.5C 91.3788,93.5424 95.0455,92.2091 98.5,90.5C 100.144,90.7135 101.644,90.3802 103,89.5C 105.825,90.5842 105.992,91.7508 103.5,93C 105.278,95.0253 106.611,94.8586 107.5,92.5 Z"/></g>
<g><path style="opacity:1" fill="#2b2c1b" d="M 67.5,83.5 C 67.0825,84.2216 66.4158,84.7216 65.5,85C 67.7879,87.7433 69.9545,90.5767 72,93.5C 73.5088,95.9193 75.6755,96.9193 78.5,96.5C 78.1602,99.6764 76.4936,101.843 73.5,103C 74.0216,105.337 75.355,107.67 77.5,110C 75.7444,110.202 74.0777,110.702 72.5,111.5C 73.0525,113.727 73.0525,116.061 72.5,118.5C 69.234,118.567 67.734,116.901 68,113.5C 67.6667,113.833 67.3333,114.167 67,114.5C 65.6371,112.216 64.1371,112.049 62.5,114C 63.9423,114.377 64.9423,115.21 65.5,116.5C 63.7168,115.825 62.0502,115.492 60.5,115.5C 59.9068,112.996 60.5735,110.663 62.5,108.5C 61.1667,108.5 59.8333,108.5 58.5,108.5C 57.2921,107.766 55.9587,107.433 54.5,107.5C 54.552,105.097 54.2186,102.764 53.5,100.5C 54.8017,98.3277 55.9683,95.9944 57,93.5C 58.6571,96.3394 59.9904,99.3394 61,102.5C 61.7172,101.956 62.2172,101.289 62.5,100.5C 66.9707,96.0628 67.6374,91.0628 64.5,85.5C 64.8212,83.9519 65.8212,83.2852 67.5,83.5 Z"/></g>
<g><path style="opacity:1" fill="#3d3f23" d="M 32.5,110.5 C 34.1788,110.285 35.1788,110.952 35.5,112.5C 35.6198,115.205 34.6198,115.872 32.5,114.5C 30.2997,115.325 29.9663,116.658 31.5,118.5C 28.8646,117.189 26.5313,115.522 24.5,113.5C 25.1019,111.32 26.4352,109.654 28.5,108.5C 29.6223,109.63 30.9557,110.297 32.5,110.5 Z"/></g>
<g><path style="opacity:1" fill="#15150c" d="M 49.5,108.5 C 48.8953,110.026 47.7286,111.026 46,111.5C 45.5172,112.448 45.3505,113.448 45.5,114.5C 43.2143,114.595 41.2143,115.262 39.5,116.5C 38.3947,118.223 36.7281,119.223 34.5,119.5C 33.391,119.443 32.391,119.11 31.5,118.5C 29.9663,116.658 30.2997,115.325 32.5,114.5C 34.6198,115.872 35.6198,115.205 35.5,112.5C 37.4846,112.141 38.1513,111.308 37.5,110C 41.4908,109.358 45.4908,108.858 49.5,108.5 Z"/></g>
<g><path style="opacity:1" fill="#1a1d14" d="M 78.5,94.5 C 81.5,94.5 84.5,94.5 87.5,94.5C 87.62,95.5862 88.2867,96.2528 89.5,96.5C 91.7617,95.5331 94.095,94.8664 96.5,94.5C 96.3739,96.1998 95.7073,97.6998 94.5,99C 95.6038,102.131 97.2705,104.131 99.5,105C 97.3347,105.992 97.5014,107.158 100,108.5C 102.756,107.305 104.256,108.305 104.5,111.5C 102.909,113.633 100.909,115.299 98.5,116.5C 98.9783,113.722 97.9783,111.722 95.5,110.5C 94.1667,112.833 92.8333,115.167 91.5,117.5C 90.0585,114.264 90.3919,111.264 92.5,108.5C 91.7376,108.089 90.7376,107.923 89.5,108C 91.5887,104.877 90.922,104.71 87.5,107.5C 86.5713,108.689 86.238,110.022 86.5,111.5C 84.3944,111.679 82.7277,112.679 81.5,114.5C 82.09,115.799 83.09,116.632 84.5,117C 83.7203,118.073 83.887,119.24 85,120.5C 86.1448,120.619 87.3115,120.952 88.5,121.5C 84.5443,123.749 80.2109,125.249 75.5,126C 68.5079,126.5 61.5079,126.666 54.5,126.5C 55.4095,120.362 56.7429,114.362 58.5,108.5C 59.8333,108.5 61.1667,108.5 62.5,108.5C 60.5735,110.663 59.9068,112.996 60.5,115.5C 59.475,115.897 59.3083,116.563 60,117.5C 61.9874,118.218 63.8208,119.218 65.5,120.5C 66.6256,119.192 66.6256,117.858 65.5,116.5C 64.9423,115.21 63.9423,114.377 62.5,114C 64.1371,112.049 65.6371,112.216 67,114.5C 67.3333,114.167 67.6667,113.833 68,113.5C 67.734,116.901 69.234,118.567 72.5,118.5C 73.0525,116.061 73.0525,113.727 72.5,111.5C 74.0777,110.702 75.7444,110.202 77.5,110C 75.355,107.67 74.0216,105.337 73.5,103C 76.4936,101.843 78.1602,99.6764 78.5,96.5C 78.5,95.8333 78.5,95.1667 78.5,94.5 Z"/></g>
<g><path style="opacity:1" fill="#5a6249" d="M 60.5,115.5 C 62.0502,115.492 63.7168,115.825 65.5,116.5C 66.6256,117.858 66.6256,119.192 65.5,120.5C 63.8208,119.218 61.9874,118.218 60,117.5C 59.3083,116.563 59.475,115.897 60.5,115.5 Z"/></g>
<g><path style="opacity:1" fill="#947b47" d="M 39.5,116.5 C 40.4972,116.47 41.1639,116.97 41.5,118C 40.8524,119.44 40.5191,120.94 40.5,122.5C 38.1815,122.008 36.1815,121.008 34.5,119.5C 36.7281,119.223 38.3947,118.223 39.5,116.5 Z"/></g>
<g><path style="opacity:1" fill="#464121" d="M 53.5,100.5 C 54.2186,102.764 54.552,105.097 54.5,107.5C 55.9587,107.433 57.2921,107.766 58.5,108.5C 56.7429,114.362 55.4095,120.362 54.5,126.5C 49.5551,125.767 44.8885,124.434 40.5,122.5C 40.5191,120.94 40.8524,119.44 41.5,118C 41.1639,116.97 40.4972,116.47 39.5,116.5C 41.2143,115.262 43.2143,114.595 45.5,114.5C 45.3505,113.448 45.5172,112.448 46,111.5C 47.7286,111.026 48.8953,110.026 49.5,108.5C 49.4226,107.25 48.756,106.417 47.5,106C 49.9272,104.446 49.9272,103.279 47.5,102.5C 48.209,101.596 49.209,101.263 50.5,101.5C 50.3505,102.552 50.5172,103.552 51,104.5C 51.9344,103.142 52.7677,101.808 53.5,100.5 Z"/></g>
<g><path style="opacity:1" fill="#997e41" d="M 51.5,111.5 C 54.2175,114.637 55.0508,118.304 54,122.5C 50.9712,120.971 48.8045,118.638 47.5,115.5C 48.8665,114.16 50.1999,112.827 51.5,111.5 Z"/></g>
<g><path style="opacity:1" fill="#303325" d="M 98.5,116.5 C 95.4846,118.674 92.1513,120.341 88.5,121.5C 87.3115,120.952 86.1448,120.619 85,120.5C 83.887,119.24 83.7203,118.073 84.5,117C 83.09,116.632 82.09,115.799 81.5,114.5C 82.7277,112.679 84.3944,111.679 86.5,111.5C 86.238,110.022 86.5713,108.689 87.5,107.5C 90.922,104.71 91.5887,104.877 89.5,108C 90.7376,107.923 91.7376,108.089 92.5,108.5C 90.3919,111.264 90.0585,114.264 91.5,117.5C 92.8333,115.167 94.1667,112.833 95.5,110.5C 97.9783,111.722 98.9783,113.722 98.5,116.5 Z"/></g>
</svg>
